<?xml version="1.0" standalone="no"?>
<!DOCTYPE svg PUBLIC "-//W3C//DTD SVG 20010904//EN"
 "http://www.w3.org/TR/2001/REC-SVG-20010904/DTD/svg10.dtd">
<svg version="1.0" xmlns="http://www.w3.org/2000/svg"
 width="434.000000pt" height="434.000000pt" viewBox="0 0 434.000000 434.000000"
 preserveAspectRatio="xMidYMid meet">
<metadata>
Created by potrace 1.16, written by Peter Selinger 2001-2019
</metadata>
<g transform="translate(0.000000,434.000000) scale(0.100000,-0.100000)"
fill="#000000" stroke="none">
<path d="M1885 4140 c-145 -26 -196 -41 -477 -139 -139 -49 -273 -95 -298
-102 -51 -13 -171 -17 -213 -6 -26 7 -28 6 -21 -15 4 -13 17 -39 30 -58 l24
-35 -27 -8 c-16 -4 -112 -9 -215 -10 -152 -1 -188 -4 -188 -15 0 -8 7 -42 16
-76 25 -95 81 -193 156 -270 l68 -69 -20 -33 c-116 -187 -112 -595 9 -849 21
-44 30 -82 35 -145 19 -240 89 -432 244 -665 97 -147 224 -277 351 -360 l91
-60 0 -45 c0 -216 -34 -740 -65 -1028 -8 -74 -15 -138 -15 -143 0 -5 31 -9 69
-9 64 0 70 2 74 23 l4 22 2 -22 1 -23 979 0 979 0 6 31 c3 17 6 127 6 244 l0
212 56 7 c230 27 303 213 193 497 -58 151 -215 384 -343 509 -31 30 -56 59
-56 65 0 7 20 38 45 70 141 181 249 422 290 645 10 52 28 149 40 215 13 66 31
189 40 274 15 129 15 172 6 257 -29 255 -133 465 -298 599 -89 73 -250 145
-322 145 -23 0 -47 15 -98 62 -178 161 -414 270 -678 313 -124 20 -354 18
-480 -5z m1014 -896 c-22 -57 -29 -137 -18 -204 11 -72 38 -125 135 -271 60
-90 66 -104 84 -198 11 -56 23 -141 26 -189 10 -135 8 -132 107 -132 51 0 90
5 100 13 11 8 19 39 27 97 14 118 46 159 113 146 25 -5 45 -18 62 -41 l26 -33
-16 -99 c-60 -348 -273 -697 -531 -869 -175 -117 -414 -207 -635 -240 -141
-21 -410 -24 -494 -6 -348 77 -583 231 -766 506 -156 232 -219 438 -219 714 0
245 37 406 131 564 33 56 117 175 149 211 4 5 29 -2 56 -16 27 -13 99 -41 159
-61 394 -130 780 -124 1210 18 77 26 176 64 220 85 44 21 81 37 83 36 1 -1 -2
-15 -9 -31z m540 -1993 c159 -216 245 -432 213 -540 -16 -51 -59 -83 -121 -89
l-47 -4 -18 143 c-10 79 -37 242 -60 361 -29 147 -38 214 -29 207 7 -6 35 -41
62 -78z"/>
<path d="M2115 2534 c-72 -37 -105 -89 -105 -164 0 -89 59 -168 137 -185 76
-16 185 45 212 118 24 61 1 158 -45 199 -52 46 -144 61 -199 32z"/>
<path d="M1230 2508 c-87 -25 -135 -95 -128 -189 7 -98 84 -168 186 -169 170
-1 238 249 90 333 -52 30 -101 38 -148 25z"/>
<path d="M2132 2050 c-32 -27 -135 -57 -235 -70 -77 -9 -183 -3 -271 16 -26 6
-27 5 -17 -14 12 -22 23 -27 89 -37 35 -6 42 -10 36 -23 -30 -71 -35 -100 -24
-141 10 -37 17 -45 57 -63 159 -70 375 5 419 146 15 48 16 61 3 127 -8 40 -18
74 -24 75 -5 2 -21 -6 -33 -16z"/>
</g>
</svg>
