<?xml version="1.0" encoding="UTF-8" standalone="no"?>
<!DOCTYPE svg PUBLIC "-//W3C//DTD SVG 1.1//EN"
 "http://www.w3.org/Graphics/SVG/1.1/DTD/svg11.dtd">
<!-- Generated by graphviz version 9.0.0 (20230911.1827)
 -->
<!-- Pages: 1 -->
<svg width="1677pt" height="376pt"
 viewBox="0.00 0.00 1676.93 375.97" xmlns="http://www.w3.org/2000/svg" xmlns:xlink="http://www.w3.org/1999/xlink">
<g id="graph0" class="graph" transform="scale(1 1) rotate(0) translate(4 371.97)">
<polygon fill="white" stroke="none" points="-4,4 -4,-371.97 1672.93,-371.97 1672.93,4 -4,4"/>
<!-- conf -->
<g id="node1" class="node">
<title>conf</title>
<ellipse fill="none" stroke="black" cx="238.93" cy="-162" rx="99.97" ry="18"/>
<text text-anchor="middle" x="238.93" y="-156.95" font-family="Times,serif" font-size="14.00">configuration languages</text>
</g>
<!-- JSON -->
<g id="node11" class="node">
<title>JSON</title>
<ellipse fill="none" stroke="black" cx="32.93" cy="-90" rx="32.93" ry="18"/>
<text text-anchor="middle" x="32.93" y="-84.95" font-family="Times,serif" font-size="14.00">JSON</text>
</g>
<!-- conf&#45;&gt;JSON -->
<g id="edge8" class="edge">
<title>conf&#45;&gt;JSON</title>
<path fill="none" stroke="black" d="M189.45,-146.03C156.74,-135.89 113.03,-121.85 74.93,-108 73.01,-107.3 71.06,-106.58 69.09,-105.83"/>
<polygon fill="black" stroke="black" points="70.58,-102.65 59.99,-102.27 68.03,-109.17 70.58,-102.65"/>
</g>
<!-- INI -->
<g id="node12" class="node">
<title>INI</title>
<ellipse fill="none" stroke="black" cx="110.93" cy="-90" rx="27" ry="18"/>
<text text-anchor="middle" x="110.93" y="-84.95" font-family="Times,serif" font-size="14.00">INI</text>
</g>
<!-- conf&#45;&gt;INI -->
<g id="edge7" class="edge">
<title>conf&#45;&gt;INI</title>
<path fill="none" stroke="black" d="M208.59,-144.41C188.32,-133.33 161.75,-118.79 141.44,-107.69"/>
<polygon fill="black" stroke="black" points="143.24,-104.68 132.79,-102.95 139.88,-110.82 143.24,-104.68"/>
</g>
<!-- YAML -->
<g id="node13" class="node">
<title>YAML</title>
<ellipse fill="none" stroke="black" cx="193.93" cy="-90" rx="37.53" ry="18"/>
<text text-anchor="middle" x="193.93" y="-84.95" font-family="Times,serif" font-size="14.00">YAML</text>
</g>
<!-- conf&#45;&gt;YAML -->
<g id="edge6" class="edge">
<title>conf&#45;&gt;YAML</title>
<path fill="none" stroke="black" d="M227.8,-143.7C222.66,-135.7 216.44,-126.02 210.74,-117.15"/>
<polygon fill="black" stroke="black" points="213.78,-115.41 205.43,-108.9 207.89,-119.2 213.78,-115.41"/>
</g>
<!-- Toml -->
<g id="node14" class="node">
<title>Toml</title>
<ellipse fill="none" stroke="black" cx="279.93" cy="-90" rx="30.88" ry="18"/>
<text text-anchor="middle" x="279.93" y="-84.95" font-family="Times,serif" font-size="14.00">Toml</text>
</g>
<!-- conf&#45;&gt;Toml -->
<g id="edge9" class="edge">
<title>conf&#45;&gt;Toml</title>
<path fill="none" stroke="black" d="M249.06,-143.7C253.77,-135.67 259.46,-125.95 264.67,-117.05"/>
<polygon fill="black" stroke="black" points="267.67,-118.85 269.71,-108.45 261.63,-115.31 267.67,-118.85"/>
</g>
<!-- Starlark -->
<g id="node15" class="node">
<title>Starlark</title>
<ellipse fill="none" stroke="black" cx="368.93" cy="-90" rx="40.09" ry="18"/>
<text text-anchor="middle" x="368.93" y="-84.95" font-family="Times,serif" font-size="14.00">Starlark</text>
</g>
<!-- conf&#45;&gt;Starlark -->
<g id="edge10" class="edge">
<title>conf&#45;&gt;Starlark</title>
<path fill="none" stroke="black" d="M269.73,-144.41C289.04,-134.01 313.98,-120.59 334.02,-109.8"/>
<polygon fill="black" stroke="black" points="335.52,-112.96 342.67,-105.14 332.2,-106.8 335.52,-112.96"/>
</g>
<!-- clike -->
<g id="node2" class="node">
<title>clike</title>
<ellipse fill="none" stroke="black" cx="1136.93" cy="-90" rx="73.36" ry="18"/>
<text text-anchor="middle" x="1136.93" y="-84.95" font-family="Times,serif" font-size="14.00">C&#45;like languages</text>
</g>
<!-- Cpp -->
<g id="node3" class="node">
<title>Cpp</title>
<ellipse fill="none" stroke="black" cx="1568.93" cy="-18" rx="28.32" ry="18"/>
<text text-anchor="middle" x="1568.93" y="-12.95" font-family="Times,serif" font-size="14.00">C++</text>
</g>
<!-- clike&#45;&gt;Cpp -->
<g id="edge29" class="edge">
<title>clike&#45;&gt;Cpp</title>
<path fill="none" stroke="black" d="M1190.17,-77.24C1199.72,-75.34 1209.6,-73.5 1218.93,-72 1356.74,-49.81 1396.31,-72.93 1530.93,-36 1532.8,-35.49 1534.69,-34.9 1536.58,-34.25"/>
<polygon fill="black" stroke="black" points="1537.8,-37.53 1545.84,-30.62 1535.25,-31.01 1537.8,-37.53"/>
</g>
<!-- Csharp -->
<g id="node8" class="node">
<title>Csharp</title>
<ellipse fill="none" stroke="black" cx="1641.93" cy="-18" rx="27" ry="18"/>
<text text-anchor="middle" x="1641.93" y="-12.95" font-family="Times,serif" font-size="14.00">C#</text>
</g>
<!-- clike&#45;&gt;Csharp -->
<g id="edge28" class="edge">
<title>clike&#45;&gt;Csharp</title>
<path fill="none" stroke="black" d="M1189.7,-77.15C1199.39,-75.24 1209.44,-73.42 1218.93,-72 1389.77,-46.43 1439.3,-81.57 1605.93,-36 1607.55,-35.56 1609.19,-35.04 1610.83,-34.48"/>
<polygon fill="black" stroke="black" points="1612.11,-37.74 1620.06,-30.73 1609.47,-31.25 1612.11,-37.74"/>
</g>
<!-- C -->
<g id="node25" class="node">
<title>C</title>
<ellipse fill="none" stroke="black" cx="952.93" cy="-18" rx="27" ry="18"/>
<text text-anchor="middle" x="952.93" y="-12.95" font-family="Times,serif" font-size="14.00">C</text>
</g>
<!-- clike&#45;&gt;C -->
<g id="edge27" class="edge">
<title>clike&#45;&gt;C</title>
<path fill="none" stroke="black" d="M1094.41,-75C1064.6,-64.89 1023.98,-50.51 988.93,-36 987.41,-35.37 985.86,-34.71 984.31,-34.04"/>
<polygon fill="black" stroke="black" points="986.03,-30.97 975.47,-30.04 983.14,-37.35 986.03,-30.97"/>
</g>
<!-- Rust -->
<g id="node26" class="node">
<title>Rust</title>
<ellipse fill="none" stroke="black" cx="1025.93" cy="-18" rx="27.81" ry="18"/>
<text text-anchor="middle" x="1025.93" y="-12.95" font-family="Times,serif" font-size="14.00">Rust</text>
</g>
<!-- clike&#45;&gt;Rust -->
<g id="edge30" class="edge">
<title>clike&#45;&gt;Rust</title>
<path fill="none" stroke="black" d="M1111.18,-72.76C1094.37,-62.16 1072.39,-48.3 1054.96,-37.31"/>
<polygon fill="black" stroke="black" points="1056.9,-34.39 1046.57,-32.02 1053.16,-40.32 1056.9,-34.39"/>
</g>
<!-- Zig -->
<g id="node27" class="node">
<title>Zig</title>
<ellipse fill="none" stroke="black" cx="1098.93" cy="-18" rx="27" ry="18"/>
<text text-anchor="middle" x="1098.93" y="-12.95" font-family="Times,serif" font-size="14.00">Zig</text>
</g>
<!-- clike&#45;&gt;Zig -->
<g id="edge31" class="edge">
<title>clike&#45;&gt;Zig</title>
<path fill="none" stroke="black" d="M1127.53,-71.7C1123.17,-63.67 1117.9,-53.95 1113.07,-45.05"/>
<polygon fill="black" stroke="black" points="1116.26,-43.59 1108.41,-36.47 1110.11,-46.93 1116.26,-43.59"/>
</g>
<!-- Go -->
<g id="node28" class="node">
<title>Go</title>
<ellipse fill="none" stroke="black" cx="1170.93" cy="-18" rx="27" ry="18"/>
<text text-anchor="middle" x="1170.93" y="-12.95" font-family="Times,serif" font-size="14.00">Go</text>
</g>
<!-- clike&#45;&gt;Go -->
<g id="edge32" class="edge">
<title>clike&#45;&gt;Go</title>
<path fill="none" stroke="black" d="M1145.33,-71.7C1149.13,-63.87 1153.71,-54.44 1157.94,-45.73"/>
<polygon fill="black" stroke="black" points="1160.97,-47.51 1162.19,-36.98 1154.67,-44.45 1160.97,-47.51"/>
</g>
<!-- JavaScript -->
<g id="node29" class="node">
<title>JavaScript</title>
<ellipse fill="none" stroke="black" cx="1264.93" cy="-18" rx="49.3" ry="18"/>
<text text-anchor="middle" x="1264.93" y="-12.95" font-family="Times,serif" font-size="14.00">JavaScript</text>
</g>
<!-- clike&#45;&gt;JavaScript -->
<g id="edge33" class="edge">
<title>clike&#45;&gt;JavaScript</title>
<path fill="none" stroke="black" d="M1165.97,-73.12C1184.56,-62.95 1208.83,-49.68 1228.68,-38.82"/>
<polygon fill="black" stroke="black" points="1230.19,-41.99 1237.28,-34.12 1226.83,-35.85 1230.19,-41.99"/>
</g>
<!-- TypeScript -->
<g id="node30" class="node">
<title>TypeScript</title>
<ellipse fill="none" stroke="black" cx="1383.93" cy="-18" rx="51.35" ry="18"/>
<text text-anchor="middle" x="1383.93" y="-12.95" font-family="Times,serif" font-size="14.00">TypeScript</text>
</g>
<!-- clike&#45;&gt;TypeScript -->
<g id="edge34" class="edge">
<title>clike&#45;&gt;TypeScript</title>
<path fill="none" stroke="black" d="M1183.68,-75.75C1226.65,-63.57 1290.16,-45.57 1334.08,-33.13"/>
<polygon fill="black" stroke="black" points="1334.96,-36.51 1343.63,-30.42 1333.05,-29.78 1334.96,-36.51"/>
</g>
<!-- Kotlin -->
<g id="node31" class="node">
<title>Kotlin</title>
<ellipse fill="none" stroke="black" cx="1487.93" cy="-18" rx="34.46" ry="18"/>
<text text-anchor="middle" x="1487.93" y="-12.95" font-family="Times,serif" font-size="14.00">Kotlin</text>
</g>
<!-- clike&#45;&gt;Kotlin -->
<g id="edge35" class="edge">
<title>clike&#45;&gt;Kotlin</title>
<path fill="none" stroke="black" d="M1190.67,-77.49C1200.07,-75.58 1209.77,-73.68 1218.93,-72 1318.53,-53.72 1346.15,-62.39 1443.93,-36 1446.21,-35.38 1448.54,-34.69 1450.88,-33.94"/>
<polygon fill="black" stroke="black" points="1451.98,-37.26 1460.27,-30.66 1449.68,-30.65 1451.98,-37.26"/>
</g>
<!-- incomplete -->
<g id="node4" class="node">
<title>incomplete</title>
<ellipse fill="none" stroke="black" cx="312.93" cy="-244.99" rx="97.76" ry="28.99"/>
<text text-anchor="middle" x="312.93" y="-248.19" font-family="Times,serif" font-size="14.00">Turing Incomplete</text>
<text text-anchor="middle" x="312.93" y="-231.69" font-family="Times,serif" font-size="14.00">(finite time execution)</text>
</g>
<!-- incomplete&#45;&gt;conf -->
<g id="edge1" class="edge">
<title>incomplete&#45;&gt;conf</title>
<path fill="none" stroke="black" d="M287.87,-216.57C279.57,-207.48 270.37,-197.41 262.21,-188.48"/>
<polygon fill="black" stroke="black" points="264.81,-186.14 255.48,-181.12 259.64,-190.86 264.81,-186.14"/>
</g>
<!-- data -->
<g id="node9" class="node">
<title>data</title>
<ellipse fill="none" stroke="black" cx="93.93" cy="-162" rx="27" ry="18"/>
<text text-anchor="middle" x="93.93" y="-156.95" font-family="Times,serif" font-size="14.00">data</text>
</g>
<!-- incomplete&#45;&gt;data -->
<g id="edge2" class="edge">
<title>incomplete&#45;&gt;data</title>
<path fill="none" stroke="black" d="M247.94,-223.11C212.69,-211.33 168.55,-195.82 129.93,-180 128.41,-179.38 126.86,-178.72 125.3,-178.05"/>
<polygon fill="black" stroke="black" points="127.02,-174.98 116.46,-174.06 124.14,-181.37 127.02,-174.98"/>
</g>
<!-- build -->
<g id="node10" class="node">
<title>build</title>
<ellipse fill="none" stroke="black" cx="386.93" cy="-162" rx="29.86" ry="18"/>
<text text-anchor="middle" x="386.93" y="-156.95" font-family="Times,serif" font-size="14.00">build</text>
</g>
<!-- incomplete&#45;&gt;build -->
<g id="edge3" class="edge">
<title>incomplete&#45;&gt;build</title>
<path fill="none" stroke="black" d="M337.98,-216.57C346.88,-206.83 356.81,-195.97 365.38,-186.58"/>
<polygon fill="black" stroke="black" points="367.93,-188.98 372.1,-179.23 362.77,-184.25 367.93,-188.98"/>
</g>
<!-- complete -->
<g id="node5" class="node">
<title>complete</title>
<ellipse fill="none" stroke="black" cx="467.93" cy="-338.97" rx="113.14" ry="28.99"/>
<text text-anchor="middle" x="467.93" y="-342.17" font-family="Times,serif" font-size="14.00">Turing Complete</text>
<text text-anchor="middle" x="467.93" y="-325.67" font-family="Times,serif" font-size="14.00">(unknown time execution)</text>
</g>
<!-- complete&#45;&gt;incomplete -->
<g id="edge14" class="edge">
<title>complete&#45;&gt;incomplete</title>
<path fill="none" stroke="black" d="M423.92,-311.86C405.71,-301.05 384.44,-288.43 365.41,-277.14"/>
<polygon fill="black" stroke="black" points="367.39,-274.24 357,-272.15 363.82,-280.26 367.39,-274.24"/>
</g>
<!-- HighLevelLangs -->
<g id="node6" class="node">
<title>HighLevelLangs</title>
<ellipse fill="none" stroke="black" cx="813.93" cy="-244.99" rx="89.23" ry="18"/>
<text text-anchor="middle" x="813.93" y="-239.94" font-family="Times,serif" font-size="14.00">High level languages</text>
</g>
<!-- complete&#45;&gt;HighLevelLangs -->
<g id="edge13" class="edge">
<title>complete&#45;&gt;HighLevelLangs</title>
<path fill="none" stroke="black" d="M545.14,-317.45C606.98,-301.01 692.67,-278.23 750.53,-262.84"/>
<polygon fill="black" stroke="black" points="751.13,-266.31 759.9,-260.35 749.33,-259.54 751.13,-266.31"/>
</g>
<!-- functional -->
<g id="node17" class="node">
<title>functional</title>
<ellipse fill="none" stroke="black" cx="713.93" cy="-162" rx="48.28" ry="18"/>
<text text-anchor="middle" x="713.93" y="-156.95" font-family="Times,serif" font-size="14.00">functional</text>
</g>
<!-- HighLevelLangs&#45;&gt;functional -->
<g id="edge15" class="edge">
<title>HighLevelLangs&#45;&gt;functional</title>
<path fill="none" stroke="black" d="M793.21,-227.21C778.34,-215.17 758.14,-198.81 741.85,-185.62"/>
<polygon fill="black" stroke="black" points="744.41,-183.19 734.44,-179.61 740.01,-188.63 744.41,-183.19"/>
</g>
<!-- procedural -->
<g id="node18" class="node">
<title>procedural</title>
<ellipse fill="none" stroke="black" cx="914.93" cy="-162" rx="50.33" ry="18"/>
<text text-anchor="middle" x="914.93" y="-156.95" font-family="Times,serif" font-size="14.00">procedural</text>
</g>
<!-- HighLevelLangs&#45;&gt;procedural -->
<g id="edge16" class="edge">
<title>HighLevelLangs&#45;&gt;procedural</title>
<path fill="none" stroke="black" d="M834.85,-227.21C849.77,-215.25 870.01,-199.02 886.4,-185.87"/>
<polygon fill="black" stroke="black" points="888.26,-188.87 893.88,-179.88 883.88,-183.41 888.26,-188.87"/>
</g>
<!-- object oriented -->
<g id="node19" class="node">
<title>object oriented</title>
<ellipse fill="none" stroke="black" cx="1423.93" cy="-162" rx="66.19" ry="18"/>
<text text-anchor="middle" x="1423.93" y="-156.95" font-family="Times,serif" font-size="14.00">object oriented</text>
</g>
<!-- HighLevelLangs&#45;&gt;object oriented -->
<g id="edge17" class="edge">
<title>HighLevelLangs&#45;&gt;object oriented</title>
<path fill="none" stroke="black" d="M886.9,-234.3C1005.34,-218.58 1237.86,-187.7 1354.19,-172.26"/>
<polygon fill="black" stroke="black" points="1354.46,-175.75 1363.91,-170.97 1353.54,-168.82 1354.46,-175.75"/>
</g>
<!-- Fsharp -->
<g id="node7" class="node">
<title>Fsharp</title>
<ellipse fill="none" stroke="black" cx="713.93" cy="-90" rx="27" ry="18"/>
<text text-anchor="middle" x="713.93" y="-84.95" font-family="Times,serif" font-size="14.00">F#</text>
</g>
<!-- data&#45;&gt;JSON -->
<g id="edge4" class="edge">
<title>data&#45;&gt;JSON</title>
<path fill="none" stroke="black" d="M80.69,-145.81C72.89,-136.85 62.83,-125.32 53.96,-115.14"/>
<polygon fill="black" stroke="black" points="56.76,-113.02 47.55,-107.79 51.48,-117.62 56.76,-113.02"/>
</g>
<!-- data&#45;&gt;INI -->
<g id="edge5" class="edge">
<title>data&#45;&gt;INI</title>
<path fill="none" stroke="black" d="M98.04,-144.05C99.85,-136.6 102.03,-127.64 104.07,-119.22"/>
<polygon fill="black" stroke="black" points="107.41,-120.29 106.37,-109.75 100.61,-118.64 107.41,-120.29"/>
</g>
<!-- build&#45;&gt;Starlark -->
<g id="edge11" class="edge">
<title>build&#45;&gt;Starlark</title>
<path fill="none" stroke="black" d="M382.57,-144.05C380.65,-136.6 378.35,-127.64 376.18,-119.22"/>
<polygon fill="black" stroke="black" points="379.63,-118.55 373.75,-109.74 372.85,-120.3 379.63,-118.55"/>
</g>
<!-- Meson -->
<g id="node16" class="node">
<title>Meson</title>
<ellipse fill="none" stroke="black" cx="463.93" cy="-90" rx="36.51" ry="18"/>
<text text-anchor="middle" x="463.93" y="-84.95" font-family="Times,serif" font-size="14.00">Meson</text>
</g>
<!-- build&#45;&gt;Meson -->
<g id="edge12" class="edge">
<title>build&#45;&gt;Meson</title>
<path fill="none" stroke="black" d="M402.88,-146.5C413.3,-137.02 427.13,-124.45 438.98,-113.68"/>
<polygon fill="black" stroke="black" points="441.03,-116.55 446.07,-107.23 436.32,-111.37 441.03,-116.55"/>
</g>
<!-- functional&#45;&gt;Fsharp -->
<g id="edge46" class="edge">
<title>functional&#45;&gt;Fsharp</title>
<path fill="none" stroke="black" d="M713.93,-143.7C713.93,-136.41 713.93,-127.73 713.93,-119.54"/>
<polygon fill="black" stroke="black" points="717.43,-119.62 713.93,-109.62 710.43,-119.62 717.43,-119.62"/>
</g>
<!-- OCaml -->
<g id="node23" class="node">
<title>OCaml</title>
<ellipse fill="none" stroke="black" cx="796.93" cy="-90" rx="38.04" ry="18"/>
<text text-anchor="middle" x="796.93" y="-84.95" font-family="Times,serif" font-size="14.00">OCaml</text>
</g>
<!-- functional&#45;&gt;OCaml -->
<g id="edge47" class="edge">
<title>functional&#45;&gt;OCaml</title>
<path fill="none" stroke="black" d="M732.76,-145.12C743.92,-135.7 758.24,-123.63 770.52,-113.27"/>
<polygon fill="black" stroke="black" points="772.48,-116.2 777.86,-107.08 767.96,-110.85 772.48,-116.2"/>
</g>
<!-- Haskell -->
<g id="node38" class="node">
<title>Haskell</title>
<ellipse fill="none" stroke="black" cx="557.93" cy="-90" rx="39.07" ry="18"/>
<text text-anchor="middle" x="557.93" y="-84.95" font-family="Times,serif" font-size="14.00">Haskell</text>
</g>
<!-- functional&#45;&gt;Haskell -->
<g id="edge44" class="edge">
<title>functional&#45;&gt;Haskell</title>
<path fill="none" stroke="black" d="M683.85,-147.5C658.68,-136.21 622.64,-120.04 595.56,-107.89"/>
<polygon fill="black" stroke="black" points="597.24,-104.8 586.68,-103.9 594.37,-111.19 597.24,-104.8"/>
</g>
<!-- Lisp -->
<g id="node39" class="node">
<title>Lisp</title>
<ellipse fill="none" stroke="black" cx="641.93" cy="-90" rx="27.3" ry="18"/>
<text text-anchor="middle" x="641.93" y="-84.95" font-family="Times,serif" font-size="14.00">Lisp</text>
</g>
<!-- functional&#45;&gt;Lisp -->
<g id="edge45" class="edge">
<title>functional&#45;&gt;Lisp</title>
<path fill="none" stroke="black" d="M697.23,-144.76C687.52,-135.33 675.17,-123.32 664.59,-113.04"/>
<polygon fill="black" stroke="black" points="667.28,-110.77 657.67,-106.3 662.4,-115.79 667.28,-110.77"/>
</g>
<!-- procedural&#45;&gt;clike -->
<g id="edge19" class="edge">
<title>procedural&#45;&gt;clike</title>
<path fill="none" stroke="black" d="M951.83,-149.36C987.41,-138.14 1041.67,-121.03 1082.26,-108.24"/>
<polygon fill="black" stroke="black" points="1083.13,-111.63 1091.61,-105.29 1081.02,-104.96 1083.13,-111.63"/>
</g>
<!-- procedural&#45;&gt;Fsharp -->
<g id="edge20" class="edge">
<title>procedural&#45;&gt;Fsharp</title>
<path fill="none" stroke="black" d="M876.09,-150.08C842.33,-140.23 792.32,-124.74 749.93,-108 748.4,-107.4 746.85,-106.76 745.28,-106.1"/>
<polygon fill="black" stroke="black" points="746.99,-103.03 736.43,-102.15 744.13,-109.42 746.99,-103.03"/>
</g>
<!-- procedural&#45;&gt;Starlark -->
<g id="edge37" class="edge">
<title>procedural&#45;&gt;Starlark</title>
<path fill="none" stroke="black" d="M867.93,-155.26C839.8,-151.87 803.33,-147.56 770.93,-144 614.17,-126.75 571.9,-142.07 417.93,-108 415.16,-107.39 412.33,-106.67 409.49,-105.88"/>
<polygon fill="black" stroke="black" points="410.7,-102.59 400.12,-103 408.65,-109.28 410.7,-102.59"/>
</g>
<!-- Fortran -->
<g id="node20" class="node">
<title>Fortran</title>
<ellipse fill="none" stroke="black" cx="1265.93" cy="-90" rx="38.04" ry="18"/>
<text text-anchor="middle" x="1265.93" y="-84.95" font-family="Times,serif" font-size="14.00">Fortran</text>
</g>
<!-- procedural&#45;&gt;Fortran -->
<g id="edge18" class="edge">
<title>procedural&#45;&gt;Fortran</title>
<path fill="none" stroke="black" d="M962.09,-155.37C1022.32,-147.6 1129.48,-131.78 1218.93,-108 1221.47,-107.32 1224.08,-106.57 1226.69,-105.76"/>
<polygon fill="black" stroke="black" points="1227.51,-109.17 1235.91,-102.71 1225.32,-102.53 1227.51,-109.17"/>
</g>
<!-- Python -->
<g id="node22" class="node">
<title>Python</title>
<ellipse fill="none" stroke="black" cx="1358.93" cy="-90" rx="37.02" ry="18"/>
<text text-anchor="middle" x="1358.93" y="-84.95" font-family="Times,serif" font-size="14.00">Python</text>
</g>
<!-- procedural&#45;&gt;Python -->
<g id="edge36" class="edge">
<title>procedural&#45;&gt;Python</title>
<path fill="none" stroke="black" d="M964.29,-157.96C1040.17,-152.49 1189.62,-138.59 1312.93,-108 1315.51,-107.36 1318.14,-106.62 1320.78,-105.82"/>
<polygon fill="black" stroke="black" points="1321.68,-109.21 1330.07,-102.74 1319.48,-102.57 1321.68,-109.21"/>
</g>
<!-- commandline -->
<g id="node32" class="node">
<title>commandline</title>
<ellipse fill="none" stroke="black" cx="914.93" cy="-90" rx="62.1" ry="18"/>
<text text-anchor="middle" x="914.93" y="-84.95" font-family="Times,serif" font-size="14.00">commandline</text>
</g>
<!-- procedural&#45;&gt;commandline -->
<g id="edge38" class="edge">
<title>procedural&#45;&gt;commandline</title>
<path fill="none" stroke="black" d="M914.93,-143.7C914.93,-136.41 914.93,-127.73 914.93,-119.54"/>
<polygon fill="black" stroke="black" points="918.43,-119.62 914.93,-109.62 911.43,-119.62 918.43,-119.62"/>
</g>
<!-- object oriented&#45;&gt;Cpp -->
<g id="edge23" class="edge">
<title>object oriented&#45;&gt;Cpp</title>
<path fill="none" stroke="black" d="M1424.28,-143.54C1425.57,-123.94 1430.46,-92.22 1447.93,-72 1474.21,-41.57 1494.13,-52.21 1530.93,-36 1532.65,-35.24 1534.43,-34.46 1536.21,-33.66"/>
<polygon fill="black" stroke="black" points="1537.35,-36.99 1545.06,-29.73 1534.5,-30.6 1537.35,-36.99"/>
</g>
<!-- object oriented&#45;&gt;Csharp -->
<g id="edge24" class="edge">
<title>object oriented&#45;&gt;Csharp</title>
<path fill="none" stroke="black" d="M1430.44,-143.93C1438.99,-123.78 1455.92,-90.65 1480.93,-72 1527.27,-37.44 1551.83,-56.41 1605.93,-36 1607.46,-35.42 1609.02,-34.8 1610.59,-34.16"/>
<polygon fill="black" stroke="black" points="1611.72,-37.48 1619.46,-30.25 1608.9,-31.08 1611.72,-37.48"/>
</g>
<!-- Java -->
<g id="node21" class="node">
<title>Java</title>
<ellipse fill="none" stroke="black" cx="1516.93" cy="-90" rx="27.3" ry="18"/>
<text text-anchor="middle" x="1516.93" y="-84.95" font-family="Times,serif" font-size="14.00">Java</text>
</g>
<!-- object oriented&#45;&gt;Java -->
<g id="edge21" class="edge">
<title>object oriented&#45;&gt;Java</title>
<path fill="none" stroke="black" d="M1445.5,-144.76C1458.97,-134.63 1476.4,-121.51 1490.67,-110.76"/>
<polygon fill="black" stroke="black" points="1492.42,-113.83 1498.31,-105.02 1488.21,-108.23 1492.42,-113.83"/>
</g>
<!-- object oriented&#45;&gt;Python -->
<g id="edge22" class="edge">
<title>object oriented&#45;&gt;Python</title>
<path fill="none" stroke="black" d="M1408.19,-144.05C1400.14,-135.38 1390.19,-124.67 1381.35,-115.15"/>
<polygon fill="black" stroke="black" points="1384.02,-112.88 1374.65,-107.94 1378.89,-117.65 1384.02,-112.88"/>
</g>
<!-- object oriented&#45;&gt;OCaml -->
<g id="edge25" class="edge">
<title>object oriented&#45;&gt;OCaml</title>
<path fill="none" stroke="black" d="M1357.85,-160.43C1249.3,-158.28 1027.01,-148.77 843.93,-108 841.18,-107.39 838.38,-106.66 835.58,-105.86"/>
<polygon fill="black" stroke="black" points="836.94,-102.62 826.35,-102.9 834.81,-109.28 836.94,-102.62"/>
</g>
<!-- erlang -->
<g id="node24" class="node">
<title>erlang</title>
<ellipse fill="none" stroke="black" cx="1595.93" cy="-90" rx="33.95" ry="18"/>
<text text-anchor="middle" x="1595.93" y="-84.95" font-family="Times,serif" font-size="14.00">erlang</text>
</g>
<!-- object oriented&#45;&gt;erlang -->
<g id="edge26" class="edge">
<title>object oriented&#45;&gt;erlang</title>
<path fill="none" stroke="black" d="M1459.56,-146.5C1488.62,-134.67 1529.52,-118.03 1558.93,-106.06"/>
<polygon fill="black" stroke="black" points="1560.25,-109.3 1568.19,-102.29 1557.61,-102.81 1560.25,-109.3"/>
</g>
<!-- sh -->
<g id="node33" class="node">
<title>sh</title>
<ellipse fill="none" stroke="black" cx="662.93" cy="-18" rx="27" ry="18"/>
<text text-anchor="middle" x="662.93" y="-12.95" font-family="Times,serif" font-size="14.00">sh</text>
</g>
<!-- commandline&#45;&gt;sh -->
<g id="edge39" class="edge">
<title>commandline&#45;&gt;sh</title>
<path fill="none" stroke="black" d="M868.21,-77.79C807.15,-63.1 706.98,-38.86 698.93,-36 697.38,-35.45 695.81,-34.86 694.23,-34.23"/>
<polygon fill="black" stroke="black" points="695.91,-31.14 685.34,-30.39 693.13,-37.57 695.91,-31.14"/>
</g>
<!-- zsh -->
<g id="node34" class="node">
<title>zsh</title>
<ellipse fill="none" stroke="black" cx="734.93" cy="-18" rx="27" ry="18"/>
<text text-anchor="middle" x="734.93" y="-12.95" font-family="Times,serif" font-size="14.00">zsh</text>
</g>
<!-- commandline&#45;&gt;zsh -->
<g id="edge40" class="edge">
<title>commandline&#45;&gt;zsh</title>
<path fill="none" stroke="black" d="M875.75,-75.64C846.59,-65.43 805.94,-50.68 770.93,-36 769.41,-35.37 767.87,-34.7 766.32,-34.02"/>
<polygon fill="black" stroke="black" points="768.04,-30.96 757.48,-30.01 765.14,-37.33 768.04,-30.96"/>
</g>
<!-- fsh -->
<g id="node35" class="node">
<title>fsh</title>
<ellipse fill="none" stroke="black" cx="806.93" cy="-18" rx="27" ry="18"/>
<text text-anchor="middle" x="806.93" y="-12.95" font-family="Times,serif" font-size="14.00">fsh</text>
</g>
<!-- commandline&#45;&gt;fsh -->
<g id="edge41" class="edge">
<title>commandline&#45;&gt;fsh</title>
<path fill="none" stroke="black" d="M890.42,-73.12C874.08,-62.53 852.55,-48.57 835.45,-37.49"/>
<polygon fill="black" stroke="black" points="837.53,-34.66 827.23,-32.16 833.72,-40.54 837.53,-34.66"/>
</g>
<!-- bash -->
<g id="node36" class="node">
<title>bash</title>
<ellipse fill="none" stroke="black" cx="879.93" cy="-18" rx="27.81" ry="18"/>
<text text-anchor="middle" x="879.93" y="-12.95" font-family="Times,serif" font-size="14.00">bash</text>
</g>
<!-- commandline&#45;&gt;bash -->
<g id="edge42" class="edge">
<title>commandline&#45;&gt;bash</title>
<path fill="none" stroke="black" d="M906.27,-71.7C902.36,-63.87 897.64,-54.44 893.29,-45.73"/>
<polygon fill="black" stroke="black" points="896.52,-44.36 888.91,-36.98 890.26,-47.49 896.52,-44.36"/>
</g>
<!-- perl -->
<g id="node37" class="node">
<title>perl</title>
<ellipse fill="none" stroke="black" cx="590.93" cy="-18" rx="27" ry="18"/>
<text text-anchor="middle" x="590.93" y="-12.95" font-family="Times,serif" font-size="14.00">perl</text>
</g>
<!-- commandline&#45;&gt;perl -->
<g id="edge43" class="edge">
<title>commandline&#45;&gt;perl</title>
<path fill="none" stroke="black" d="M869.2,-77.55C860.82,-75.59 852.13,-73.66 843.93,-72 748.11,-52.61 720.24,-65.15 626.93,-36 625.32,-35.5 623.69,-34.94 622.06,-34.33"/>
<polygon fill="black" stroke="black" points="623.44,-31.12 612.87,-30.48 620.74,-37.57 623.44,-31.12"/>
</g>
</g>
</svg>
