<?xml version="1.0" encoding="UTF-8" standalone="no"?>
<!DOCTYPE svg PUBLIC "-//W3C//DTD SVG 1.1//EN"
 "http://www.w3.org/Graphics/SVG/1.1/DTD/svg11.dtd">
<!-- Generated by graphviz version 8.1.0 (20230707.0739)
 -->
<!-- Pages: 1 -->
<svg width="1454pt" height="785pt"
 viewBox="0.00 0.00 1454.03 785.00" xmlns="http://www.w3.org/2000/svg" xmlns:xlink="http://www.w3.org/1999/xlink">
<g id="graph0" class="graph" transform="scale(1 1) rotate(0) translate(4 781)">
<polygon fill="white" stroke="none" points="-4,4 -4,-781 1450.03,-781 1450.03,4 -4,4"/>
<!-- Fsharp -->
<g id="node1" class="node">
<title>Fsharp</title>
<ellipse fill="none" stroke="black" cx="132.01" cy="-316.5" rx="27" ry="18"/>
<text text-anchor="middle" x="132.01" y="-311.45" font-family="Times,serif" font-size="14.00">F#</text>
</g>
<!-- dotNET -->
<g id="node4" class="node">
<title>dotNET</title>
<ellipse fill="none" stroke="black" cx="80.01" cy="-228" rx="80.01" ry="18"/>
<text text-anchor="middle" x="80.01" y="-222.95" font-family="Times,serif" font-size="14.00">.NET (MSIL/CIL)</text>
</g>
<!-- Fsharp&#45;&gt;dotNET -->
<g id="edge14" class="edge">
<title>Fsharp&#45;&gt;dotNET</title>
<path fill="none" stroke="black" d="M126.3,-298.63C122.43,-288.25 116.79,-274.9 110.01,-264 108.01,-260.78 105.72,-257.54 103.31,-254.42"/>
<polygon fill="black" stroke="black" points="105.44,-252.5 96.39,-246.99 100.03,-256.94 105.44,-252.5"/>
<text text-anchor="middle" x="126.89" y="-267.2" font-family="Times,serif" font-size="14.00">fsc</text>
</g>
<!-- Cpp -->
<g id="node2" class="node">
<title>Cpp</title>
<ellipse fill="none" stroke="black" cx="439.01" cy="-493.5" rx="28.32" ry="18"/>
<text text-anchor="middle" x="439.01" y="-488.45" font-family="Times,serif" font-size="14.00">C++</text>
</g>
<!-- LLVMIR -->
<g id="node5" class="node">
<title>LLVMIR</title>
<ellipse fill="none" stroke="black" cx="671.01" cy="-316.5" rx="48.79" ry="18"/>
<text text-anchor="middle" x="671.01" y="-311.45" font-family="Times,serif" font-size="14.00">LLVM IR</text>
</g>
<!-- Cpp&#45;&gt;LLVMIR -->
<g id="edge25" class="edge">
<title>Cpp&#45;&gt;LLVMIR</title>
<path fill="none" stroke="black" d="M462.17,-482.54C473.8,-476.62 487.42,-468.17 497.01,-457.5 531.44,-419.2 506.74,-385.82 546.01,-352.5 564.63,-336.7 589.88,-328.01 612.81,-323.23"/>
<polygon fill="black" stroke="black" points="613.3,-326.52 622.49,-321.25 612.02,-319.63 613.3,-326.52"/>
<text text-anchor="middle" x="537.64" y="-399.95" font-family="Times,serif" font-size="14.00">clang</text>
</g>
<!-- assembly -->
<g id="node10" class="node">
<title>assembly</title>
<ellipse fill="none" stroke="black" cx="565.01" cy="-228" rx="45.72" ry="18"/>
<text text-anchor="middle" x="565.01" y="-222.95" font-family="Times,serif" font-size="14.00">assembly</text>
</g>
<!-- Cpp&#45;&gt;assembly -->
<g id="edge17" class="edge">
<title>Cpp&#45;&gt;assembly</title>
<path fill="none" stroke="black" d="M429.09,-476.21C417.66,-455.31 401.71,-418.04 412.01,-387 432.51,-325.27 493.47,-275.73 531.97,-249.5"/>
<polygon fill="black" stroke="black" points="533.38,-252.1 539.77,-243.64 529.5,-246.27 533.38,-252.1"/>
<text text-anchor="middle" x="439.64" y="-355.7" font-family="Times,serif" font-size="14.00">g++</text>
</g>
<!-- Zig -->
<g id="node19" class="node">
<title>Zig</title>
<ellipse fill="none" stroke="black" cx="448.01" cy="-405" rx="27" ry="18"/>
<text text-anchor="middle" x="448.01" y="-399.95" font-family="Times,serif" font-size="14.00">Zig</text>
</g>
<!-- Cpp&#45;&gt;Zig -->
<g id="edge22" class="edge">
<title>Cpp&#45;&gt;Zig</title>
<path fill="none" stroke="blue" d="M438.73,-475.28C438.77,-465.24 439.14,-452.37 440.51,-441 440.8,-438.59 441.18,-436.11 441.61,-433.62"/>
<polygon fill="blue" stroke="blue" points="445.21,-434.48 443.72,-423.99 438.34,-433.11 445.21,-434.48"/>
<text text-anchor="middle" x="449.26" y="-444.2" font-family="Times,serif" font-size="14.00">zig</text>
</g>
<!-- Csharp -->
<g id="node3" class="node">
<title>Csharp</title>
<ellipse fill="none" stroke="black" cx="29.01" cy="-316.5" rx="27" ry="18"/>
<text text-anchor="middle" x="29.01" y="-311.45" font-family="Times,serif" font-size="14.00">C#</text>
</g>
<!-- Csharp&#45;&gt;dotNET -->
<g id="edge13" class="edge">
<title>Csharp&#45;&gt;dotNET</title>
<path fill="none" stroke="black" d="M25.8,-298.28C24.71,-287.77 24.93,-274.41 30.51,-264 32.93,-259.48 36.23,-255.42 39.97,-251.8"/>
<polygon fill="black" stroke="black" points="41.7,-254.08 47.15,-244.99 37.22,-248.7 41.7,-254.08"/>
<text text-anchor="middle" x="70.76" y="-267.2" font-family="Times,serif" font-size="14.00">visual studio!?</text>
</g>
<!-- run -->
<g id="node7" class="node">
<title>run</title>
<ellipse fill="none" stroke="red" cx="1001.01" cy="-18" rx="27" ry="18"/>
<text text-anchor="middle" x="1001.01" y="-12.95" font-family="Times,serif" font-size="14.00">run</text>
</g>
<!-- dotNET&#45;&gt;run -->
<g id="edge3" class="edge">
<title>dotNET&#45;&gt;run</title>
<path fill="none" stroke="red" d="M81.64,-209.82C84.39,-190.66 91.69,-160.04 111.01,-142.5 181.32,-78.65 224.77,-107.78 317.76,-88.5 559.99,-38.29 858.36,-23.82 962.78,-20.13"/>
<polygon fill="red" stroke="red" points="962.81,-23.6 972.69,-19.76 962.58,-16.6 962.81,-23.6"/>
<text text-anchor="middle" x="331.14" y="-101.45" font-family="Times,serif" font-size="14.00">CLR</text>
</g>
<!-- binary -->
<g id="node9" class="node">
<title>binary</title>
<ellipse fill="none" stroke="black" cx="387.01" cy="-106.5" rx="34.46" ry="18"/>
<text text-anchor="middle" x="387.01" y="-101.45" font-family="Times,serif" font-size="14.00">binary</text>
</g>
<!-- dotNET&#45;&gt;binary -->
<g id="edge4" class="edge">
<title>dotNET&#45;&gt;binary</title>
<path fill="none" stroke="black" d="M95.9,-210.01C115.26,-190.42 149.93,-158.82 186.26,-142.5 236.37,-119.99 299.54,-111.91 341.5,-109.04"/>
<polygon fill="black" stroke="black" points="341.71,-112.47 351.48,-108.37 341.28,-105.48 341.71,-112.47"/>
<text text-anchor="middle" x="206.89" y="-162.2" font-family="Times,serif" font-size="14.00">coreRT</text>
</g>
<!-- LLVMIR&#45;&gt;run -->
<g id="edge5" class="edge">
<title>LLVMIR&#45;&gt;run</title>
<path fill="none" stroke="red" d="M669.61,-298.06C667.78,-265.38 667.62,-193.63 695.51,-142.5 748.07,-46.17 893.39,-24.86 962.95,-20.23"/>
<polygon fill="red" stroke="red" points="963.05,-23.67 972.83,-19.6 962.65,-16.68 963.05,-23.67"/>
<text text-anchor="middle" x="715.26" y="-162.2" font-family="Times,serif" font-size="14.00">llvm jit</text>
</g>
<!-- LLVMIR&#45;&gt;assembly -->
<g id="edge6" class="edge">
<title>LLVMIR&#45;&gt;assembly</title>
<path fill="none" stroke="black" d="M651.57,-299.63C635.06,-286.16 611.17,-266.66 592.67,-251.57"/>
<polygon fill="black" stroke="black" points="595.29,-248.38 585.33,-244.76 590.87,-253.8 595.29,-248.38"/>
<text text-anchor="middle" x="633.76" y="-267.2" font-family="Times,serif" font-size="14.00">llc</text>
</g>
<!-- WASM -->
<g id="node11" class="node">
<title>WASM</title>
<ellipse fill="none" stroke="black" cx="744.01" cy="-228" rx="39.58" ry="18"/>
<text text-anchor="middle" x="744.01" y="-222.95" font-family="Times,serif" font-size="14.00">WASM</text>
</g>
<!-- LLVMIR&#45;&gt;WASM -->
<g id="edge9" class="edge">
<title>LLVMIR&#45;&gt;WASM</title>
<path fill="none" stroke="black" d="M685.09,-298.82C695.96,-285.94 711.17,-267.91 723.42,-253.4"/>
<polygon fill="black" stroke="black" points="726.45,-256.23 730.23,-246.33 721.1,-251.72 726.45,-256.23"/>
<text text-anchor="middle" x="726.76" y="-267.2" font-family="Times,serif" font-size="14.00">llvm</text>
</g>
<!-- browser -->
<g id="node6" class="node">
<title>browser</title>
<ellipse fill="none" stroke="black" cx="821.01" cy="-106.5" rx="53.91" ry="18"/>
<text text-anchor="middle" x="821.01" y="-101.45" font-family="Times,serif" font-size="14.00">Browser IR</text>
</g>
<!-- browser&#45;&gt;run -->
<g id="edge1" class="edge">
<title>browser&#45;&gt;run</title>
<path fill="none" stroke="red" d="M827.45,-88.17C832.56,-76.78 840.8,-62.48 852.51,-54 884.95,-30.52 930.86,-22.56 963.02,-19.99"/>
<polygon fill="red" stroke="red" points="963.03,-23.43 972.78,-19.28 962.57,-16.44 963.03,-23.43"/>
<text text-anchor="middle" x="873.76" y="-57.2" font-family="Times,serif" font-size="14.00">browser</text>
</g>
<!-- JVM -->
<g id="node8" class="node">
<title>JVM</title>
<ellipse fill="none" stroke="black" cx="932.01" cy="-582" rx="29.86" ry="18"/>
<text text-anchor="middle" x="932.01" y="-576.95" font-family="Times,serif" font-size="14.00">JVM</text>
</g>
<!-- JVM&#45;&gt;run -->
<g id="edge2" class="edge">
<title>JVM&#45;&gt;run</title>
<path fill="none" stroke="red" d="M930.1,-563.71C921.88,-486.91 891.63,-176.55 929.01,-88.5 938.01,-67.32 956.97,-49.45 973.18,-37.13"/>
<polygon fill="red" stroke="red" points="974.77,-39.58 980.82,-30.88 970.67,-33.91 974.77,-39.58"/>
<text text-anchor="middle" x="923.26" y="-311.45" font-family="Times,serif" font-size="14.00">java</text>
</g>
<!-- binary&#45;&gt;run -->
<g id="edge8" class="edge">
<title>binary&#45;&gt;run</title>
<path fill="none" stroke="red" d="M417.65,-97.98C464.18,-86.82 555.58,-65.91 634.26,-54 753.83,-35.9 896.82,-25.44 963.43,-21.21"/>
<polygon fill="red" stroke="red" points="963.44,-24.66 973.2,-20.54 963,-17.67 963.44,-24.66"/>
<text text-anchor="middle" x="646.39" y="-57.2" font-family="Times,serif" font-size="14.00">exec</text>
</g>
<!-- assembly&#45;&gt;binary -->
<g id="edge7" class="edge">
<title>assembly&#45;&gt;binary</title>
<path fill="none" stroke="black" d="M548.6,-210.84C529.46,-192.6 496.33,-162.83 464.01,-142.5 451.66,-134.72 437.28,-127.71 424.32,-122.04"/>
<polygon fill="black" stroke="black" points="425.87,-118.47 415.3,-117.79 423.14,-124.91 425.87,-118.47"/>
<text text-anchor="middle" x="573.76" y="-162.2" font-family="Times,serif" font-size="14.00">assembler&amp;linker</text>
</g>
<!-- WASM&#45;&gt;browser -->
<g id="edge38" class="edge">
<title>WASM&#45;&gt;browser</title>
<path fill="none" stroke="black" d="M741.56,-209.83C739.89,-191.52 740.03,-162.45 753.76,-142.5 758.81,-135.18 765.87,-129.28 773.54,-124.57"/>
<polygon fill="black" stroke="black" points="774.62,-127.42 781.73,-119.57 771.28,-121.27 774.62,-127.42"/>
<text text-anchor="middle" x="779.64" y="-162.2" font-family="Times,serif" font-size="14.00">v8 and co</text>
</g>
<!-- Java -->
<g id="node12" class="node">
<title>Java</title>
<ellipse fill="none" stroke="black" cx="926.01" cy="-670.5" rx="27.3" ry="18"/>
<text text-anchor="middle" x="926.01" y="-665.45" font-family="Times,serif" font-size="14.00">Java</text>
</g>
<!-- Java&#45;&gt;JVM -->
<g id="edge10" class="edge">
<title>Java&#45;&gt;JVM</title>
<path fill="none" stroke="black" d="M927.2,-652.41C928.01,-640.64 929.12,-624.73 930.06,-611.11"/>
<polygon fill="black" stroke="black" points="933.61,-611.57 930.81,-601.35 926.63,-611.08 933.61,-611.57"/>
<text text-anchor="middle" x="943.26" y="-621.2" font-family="Times,serif" font-size="14.00">javac</text>
</g>
<!-- Kotlin -->
<g id="node13" class="node">
<title>Kotlin</title>
<ellipse fill="none" stroke="black" cx="799.01" cy="-670.5" rx="34.46" ry="18"/>
<text text-anchor="middle" x="799.01" y="-665.45" font-family="Times,serif" font-size="14.00">Kotlin</text>
</g>
<!-- Kotlin&#45;&gt;LLVMIR -->
<g id="edge20" class="edge">
<title>Kotlin&#45;&gt;LLVMIR</title>
<path fill="none" stroke="blue" d="M782.59,-654.2C769.43,-641.04 751.51,-620.93 741.01,-600 690.33,-498.91 712.1,-461.51 682.01,-352.5 681.33,-350.01 680.58,-347.44 679.82,-344.86"/>
<polygon fill="blue" stroke="blue" points="682.92,-344.04 676.63,-335.52 676.23,-346.11 682.92,-344.04"/>
<text text-anchor="middle" x="726.76" y="-488.45" font-family="Times,serif" font-size="14.00">kotlinc</text>
</g>
<!-- Kotlin&#45;&gt;JVM -->
<g id="edge11" class="edge">
<title>Kotlin&#45;&gt;JVM</title>
<path fill="none" stroke="black" d="M820.09,-655.79C842.56,-641.18 878.29,-617.94 903.32,-601.66"/>
<polygon fill="black" stroke="black" points="904.86,-604.18 911.34,-595.8 901.05,-598.31 904.86,-604.18"/>
<text text-anchor="middle" x="895.76" y="-621.2" font-family="Times,serif" font-size="14.00">kotlinc</text>
</g>
<!-- JavaScript -->
<g id="node24" class="node">
<title>JavaScript</title>
<ellipse fill="none" stroke="black" cx="799.01" cy="-582" rx="49.3" ry="18"/>
<text text-anchor="middle" x="799.01" y="-576.95" font-family="Times,serif" font-size="14.00">JavaScript</text>
</g>
<!-- Kotlin&#45;&gt;JavaScript -->
<g id="edge37" class="edge">
<title>Kotlin&#45;&gt;JavaScript</title>
<path fill="none" stroke="blue" d="M799.01,-652.41C799.01,-640.64 799.01,-624.73 799.01,-611.11"/>
<polygon fill="blue" stroke="blue" points="802.51,-611.35 799.01,-601.35 795.51,-611.35 802.51,-611.35"/>
<text text-anchor="middle" x="817.76" y="-621.2" font-family="Times,serif" font-size="14.00">kotlinc</text>
</g>
<!-- OCaml -->
<g id="node14" class="node">
<title>OCaml</title>
<ellipse fill="none" stroke="black" cx="1009.01" cy="-670.5" rx="38.04" ry="18"/>
<text text-anchor="middle" x="1009.01" y="-665.45" font-family="Times,serif" font-size="14.00">OCaml</text>
</g>
<!-- OCaml&#45;&gt;JVM -->
<g id="edge12" class="edge">
<title>OCaml&#45;&gt;JVM</title>
<path fill="none" stroke="black" d="M994.89,-653.63C983.09,-640.38 966.11,-621.31 952.77,-606.32"/>
<polygon fill="black" stroke="black" points="956.05,-604.62 946.79,-599.47 950.82,-609.27 956.05,-604.62"/>
<text text-anchor="middle" x="996.89" y="-621.2" font-family="Times,serif" font-size="14.00">ocamlc</text>
</g>
<!-- C -->
<g id="node15" class="node">
<title>C</title>
<ellipse fill="none" stroke="black" cx="576.01" cy="-493.5" rx="27" ry="18"/>
<text text-anchor="middle" x="576.01" y="-488.45" font-family="Times,serif" font-size="14.00">C</text>
</g>
<!-- C&#45;&gt;LLVMIR -->
<g id="edge26" class="edge">
<title>C&#45;&gt;LLVMIR</title>
<path fill="none" stroke="black" d="M583.57,-475.79C593.23,-454.76 610.74,-417.69 627.76,-387 635.89,-372.34 645.71,-356.44 653.94,-343.55"/>
<polygon fill="black" stroke="black" points="657.39,-345.65 659.86,-335.35 651.5,-341.86 657.39,-345.65"/>
<text text-anchor="middle" x="641.64" y="-399.95" font-family="Times,serif" font-size="14.00">clang</text>
</g>
<!-- C&#45;&gt;assembly -->
<g id="edge15" class="edge">
<title>C&#45;&gt;assembly</title>
<path fill="none" stroke="black" d="M575.29,-475.21C573.43,-430.73 568.48,-312 566.19,-257.3"/>
<polygon fill="black" stroke="black" points="569.65,-257.2 565.74,-247.35 562.66,-257.49 569.65,-257.2"/>
<text text-anchor="middle" x="579.39" y="-355.7" font-family="Times,serif" font-size="14.00">gcc</text>
</g>
<!-- C&#45;&gt;Zig -->
<g id="edge21" class="edge">
<title>C&#45;&gt;Zig</title>
<path fill="none" stroke="blue" d="M557.4,-479.92C535.88,-465.38 500.26,-441.31 475.54,-424.6"/>
<polygon fill="blue" stroke="blue" points="477.89,-421.29 467.65,-418.59 473.97,-427.09 477.89,-421.29"/>
<text text-anchor="middle" x="531.26" y="-444.2" font-family="Times,serif" font-size="14.00">zig</text>
</g>
<!-- erlang -->
<g id="node16" class="node">
<title>erlang</title>
<ellipse fill="none" stroke="black" cx="306.01" cy="-228" rx="33.95" ry="18"/>
<text text-anchor="middle" x="306.01" y="-222.95" font-family="Times,serif" font-size="14.00">erlang</text>
</g>
<!-- erlang&#45;&gt;binary -->
<g id="edge16" class="edge">
<title>erlang&#45;&gt;binary</title>
<path fill="none" stroke="black" d="M308.28,-209.56C311.4,-191.28 318.46,-162.49 333.76,-142.5 338.96,-135.71 345.88,-129.82 353.01,-124.92"/>
<polygon fill="black" stroke="black" points="354.43,-127.53 361.03,-119.24 350.7,-121.61 354.43,-127.53"/>
<text text-anchor="middle" x="344.14" y="-162.2" font-family="Times,serif" font-size="14.00">erlc</text>
</g>
<!-- Go -->
<g id="node17" class="node">
<title>Go</title>
<ellipse fill="none" stroke="black" cx="461.01" cy="-228" rx="27" ry="18"/>
<text text-anchor="middle" x="461.01" y="-222.95" font-family="Times,serif" font-size="14.00">Go</text>
</g>
<!-- Go&#45;&gt;binary -->
<g id="edge18" class="edge">
<title>Go&#45;&gt;binary</title>
<path fill="none" stroke="black" d="M454.69,-210.31C447.6,-192.65 435.1,-164.38 420.01,-142.5 417.22,-138.45 413.96,-134.4 410.6,-130.58"/>
<polygon fill="black" stroke="black" points="413.59,-128.59 404.22,-123.65 408.47,-133.35 413.59,-128.59"/>
<text text-anchor="middle" x="453.76" y="-162.2" font-family="Times,serif" font-size="14.00">go</text>
</g>
<!-- Fortran -->
<g id="node18" class="node">
<title>Fortran</title>
<ellipse fill="none" stroke="black" cx="216.01" cy="-228" rx="38.04" ry="18"/>
<text text-anchor="middle" x="216.01" y="-222.95" font-family="Times,serif" font-size="14.00">Fortran</text>
</g>
<!-- Fortran&#45;&gt;binary -->
<g id="edge19" class="edge">
<title>Fortran&#45;&gt;binary</title>
<path fill="none" stroke="black" d="M221.67,-209.78C228.86,-190.57 243.09,-159.92 265.51,-142.5 287.56,-125.37 317.68,-116.62 342.42,-112.15"/>
<polygon fill="black" stroke="black" points="342.7,-115.49 352.01,-110.44 341.58,-108.58 342.7,-115.49"/>
<text text-anchor="middle" x="287.76" y="-178.7" font-family="Times,serif" font-size="14.00">gfortran</text>
<text text-anchor="middle" x="287.76" y="-162.2" font-family="Times,serif" font-size="14.00">ifort</text>
<text text-anchor="middle" x="287.76" y="-145.7" font-family="Times,serif" font-size="14.00">pgf77</text>
</g>
<!-- Zig&#45;&gt;LLVMIR -->
<g id="edge24" class="edge">
<title>Zig&#45;&gt;LLVMIR</title>
<path fill="none" stroke="blue" d="M454.21,-387.46C459.44,-375.84 468.08,-360.91 480.51,-352.5 501.77,-338.12 565.38,-328.45 613.3,-322.98"/>
<polygon fill="blue" stroke="blue" points="613.62,-326.35 623.18,-321.78 612.86,-319.4 613.62,-326.35"/>
<text text-anchor="middle" x="488.26" y="-355.7" font-family="Times,serif" font-size="14.00">zig</text>
</g>
<!-- Zig&#45;&gt;binary -->
<g id="edge23" class="edge">
<title>Zig&#45;&gt;binary</title>
<path fill="none" stroke="black" d="M444.47,-386.78C434.34,-337.55 405.2,-195.88 392.75,-135.41"/>
<polygon fill="black" stroke="black" points="396.01,-134.86 390.57,-125.77 389.15,-136.27 396.01,-134.86"/>
<text text-anchor="middle" x="431.26" y="-267.2" font-family="Times,serif" font-size="14.00">zig</text>
</g>
<!-- Rust -->
<g id="node20" class="node">
<title>Rust</title>
<ellipse fill="none" stroke="black" cx="765.01" cy="-405" rx="27.81" ry="18"/>
<text text-anchor="middle" x="765.01" y="-399.95" font-family="Times,serif" font-size="14.00">Rust</text>
</g>
<!-- Rust&#45;&gt;LLVMIR -->
<g id="edge27" class="edge">
<title>Rust&#45;&gt;LLVMIR</title>
<path fill="none" stroke="black" d="M753.97,-388.1C746.06,-377.36 734.78,-363.23 723.01,-352.5 717.56,-347.52 711.34,-342.73 705.15,-338.36"/>
<polygon fill="black" stroke="black" points="707.43,-335.01 697.19,-332.31 703.51,-340.81 707.43,-335.01"/>
<text text-anchor="middle" x="751.14" y="-355.7" font-family="Times,serif" font-size="14.00">rustc</text>
</g>
<!-- Haskell -->
<g id="node21" class="node">
<title>Haskell</title>
<ellipse fill="none" stroke="black" cx="576.01" cy="-759" rx="39.07" ry="18"/>
<text text-anchor="middle" x="576.01" y="-753.95" font-family="Times,serif" font-size="14.00">Haskell</text>
</g>
<!-- STG -->
<g id="node22" class="node">
<title>STG</title>
<ellipse fill="none" stroke="black" cx="576.01" cy="-670.5" rx="28.32" ry="18"/>
<text text-anchor="middle" x="576.01" y="-665.45" font-family="Times,serif" font-size="14.00">STG</text>
</g>
<!-- Haskell&#45;&gt;STG -->
<g id="edge28" class="edge">
<title>Haskell&#45;&gt;STG</title>
<path fill="none" stroke="black" d="M576.01,-740.91C576.01,-729.14 576.01,-713.23 576.01,-699.61"/>
<polygon fill="black" stroke="black" points="579.51,-699.85 576.01,-689.85 572.51,-699.85 579.51,-699.85"/>
<text text-anchor="middle" x="585.76" y="-709.7" font-family="Times,serif" font-size="14.00">ghc</text>
</g>
<!-- Cmm -->
<g id="node23" class="node">
<title>Cmm</title>
<ellipse fill="none" stroke="black" cx="576.01" cy="-582" rx="32.41" ry="18"/>
<text text-anchor="middle" x="576.01" y="-576.95" font-family="Times,serif" font-size="14.00">Cmm</text>
</g>
<!-- STG&#45;&gt;Cmm -->
<g id="edge29" class="edge">
<title>STG&#45;&gt;Cmm</title>
<path fill="none" stroke="black" d="M576.01,-652.41C576.01,-640.64 576.01,-624.73 576.01,-611.11"/>
<polygon fill="black" stroke="black" points="579.51,-611.35 576.01,-601.35 572.51,-611.35 579.51,-611.35"/>
<text text-anchor="middle" x="585.76" y="-621.2" font-family="Times,serif" font-size="14.00">ghc</text>
</g>
<!-- Cmm&#45;&gt;LLVMIR -->
<g id="edge31" class="edge">
<title>Cmm&#45;&gt;LLVMIR</title>
<path fill="none" stroke="blue" d="M587.83,-564.98C591.91,-559.14 596.37,-552.4 600.01,-546 629.82,-493.64 640.19,-480.86 657.01,-423 664.49,-397.28 667.99,-366.87 669.62,-345.32"/>
<polygon fill="blue" stroke="blue" points="673.15,-345.84 670.32,-335.63 666.17,-345.38 673.15,-345.84"/>
<text text-anchor="middle" x="660.76" y="-444.2" font-family="Times,serif" font-size="14.00">ghc</text>
</g>
<!-- Cmm&#45;&gt;binary -->
<g id="edge30" class="edge">
<title>Cmm&#45;&gt;binary</title>
<path fill="none" stroke="blue" d="M543.94,-578.41C503.31,-573.23 434.65,-557.74 402.01,-511.5 318.83,-393.66 359.53,-204.67 378.82,-134.7"/>
<polygon fill="blue" stroke="blue" points="382.35,-136.1 381.71,-125.52 375.62,-134.18 382.35,-136.1"/>
<text text-anchor="middle" x="363.76" y="-355.7" font-family="Times,serif" font-size="14.00">ghc</text>
</g>
<!-- Cmm&#45;&gt;C -->
<g id="edge32" class="edge">
<title>Cmm&#45;&gt;C</title>
<path fill="none" stroke="black" d="M576.01,-563.91C576.01,-552.14 576.01,-536.23 576.01,-522.61"/>
<polygon fill="black" stroke="black" points="579.51,-522.85 576.01,-512.85 572.51,-522.85 579.51,-522.85"/>
<text text-anchor="middle" x="585.76" y="-532.7" font-family="Times,serif" font-size="14.00">ghc</text>
</g>
<!-- JavaScript&#45;&gt;browser -->
<g id="edge33" class="edge">
<title>JavaScript&#45;&gt;browser</title>
<path fill="none" stroke="black" d="M797.41,-563.6C796.2,-549.55 794.65,-529.27 794.01,-511.5 793.44,-495.51 792.15,-491.39 794.01,-475.5 800.05,-423.89 821.01,-413.71 821.01,-361.75 821.01,-361.75 821.01,-361.75 821.01,-227 821.01,-195.8 821.01,-160.02 821.01,-135.8"/>
<polygon fill="black" stroke="black" points="824.51,-135.92 821.01,-125.92 817.51,-135.92 824.51,-135.92"/>
<text text-anchor="middle" x="847.64" y="-355.7" font-family="Times,serif" font-size="14.00">v8 and co</text>
</g>
<!-- JavaScript&#45;&gt;C -->
<g id="edge34" class="edge">
<title>JavaScript&#45;&gt;C</title>
<path fill="none" stroke="blue" d="M766.11,-568.24C724,-551.9 651.47,-523.77 609.22,-507.38"/>
<polygon fill="blue" stroke="blue" points="610.75,-503.83 600.16,-503.48 608.22,-510.36 610.75,-503.83"/>
<text text-anchor="middle" x="729.51" y="-532.7" font-family="Times,serif" font-size="14.00">shermes</text>
</g>
<!-- TypeScript -->
<g id="node25" class="node">
<title>TypeScript</title>
<ellipse fill="none" stroke="black" cx="854.01" cy="-493.5" rx="51.35" ry="18"/>
<text text-anchor="middle" x="854.01" y="-488.45" font-family="Times,serif" font-size="14.00">TypeScript</text>
</g>
<!-- JavaScript&#45;&gt;TypeScript -->
<g id="edge35" class="edge">
<title>JavaScript&#45;&gt;TypeScript</title>
<path fill="none" stroke="blue" d="M813.97,-564.5C818.75,-558.84 823.86,-552.34 828.01,-546 833.03,-538.34 837.78,-529.59 841.81,-521.49"/>
<polygon fill="blue" stroke="blue" points="845.32,-523.26 846.5,-512.73 839.01,-520.23 845.32,-523.26"/>
<text text-anchor="middle" x="859.51" y="-532.7" font-family="Times,serif" font-size="14.00">shermes</text>
</g>
<!-- TypeScript&#45;&gt;JavaScript -->
<g id="edge36" class="edge">
<title>TypeScript&#45;&gt;JavaScript</title>
<path fill="none" stroke="black" d="M828.61,-509.28C821.24,-514.75 813.88,-521.57 809.01,-529.5 804.74,-536.46 802.23,-544.87 800.78,-552.86"/>
<polygon fill="black" stroke="black" points="797.19,-552.3 799.35,-562.67 804.13,-553.21 797.19,-552.3"/>
<text text-anchor="middle" x="816.51" y="-532.7" font-family="Times,serif" font-size="14.00">tsc</text>
</g>
<!-- Lisp -->
<g id="node26" class="node">
<title>Lisp</title>
<ellipse fill="none" stroke="black" cx="965.01" cy="-106.5" rx="27.3" ry="18"/>
<text text-anchor="middle" x="965.01" y="-101.45" font-family="Times,serif" font-size="14.00">Lisp</text>
</g>
<!-- Lisp&#45;&gt;run -->
<g id="edge39" class="edge">
<title>Lisp&#45;&gt;run</title>
<path fill="none" stroke="red" d="M971.95,-88.82C977.03,-76.62 984.03,-59.8 989.89,-45.73"/>
<polygon fill="red" stroke="red" points="993.48,-47.2 994.09,-36.63 987.02,-44.51 993.48,-47.2"/>
<text text-anchor="middle" x="995.76" y="-57.2" font-family="Times,serif" font-size="14.00">lisp</text>
</g>
<!-- sh -->
<g id="node27" class="node">
<title>sh</title>
<ellipse fill="none" stroke="black" cx="1037.01" cy="-106.5" rx="27" ry="18"/>
<text text-anchor="middle" x="1037.01" y="-101.45" font-family="Times,serif" font-size="14.00">sh</text>
</g>
<!-- sh&#45;&gt;run -->
<g id="edge40" class="edge">
<title>sh&#45;&gt;run</title>
<path fill="none" stroke="red" d="M1030.07,-88.82C1024.99,-76.62 1017.99,-59.8 1012.14,-45.73"/>
<polygon fill="red" stroke="red" points="1015.01,-44.51 1007.93,-36.63 1008.54,-47.2 1015.01,-44.51"/>
<text text-anchor="middle" x="1028.01" y="-57.2" font-family="Times,serif" font-size="14.00">sh</text>
</g>
<!-- zsh -->
<g id="node28" class="node">
<title>zsh</title>
<ellipse fill="none" stroke="black" cx="1109.01" cy="-106.5" rx="27" ry="18"/>
<text text-anchor="middle" x="1109.01" y="-101.45" font-family="Times,serif" font-size="14.00">zsh</text>
</g>
<!-- zsh&#45;&gt;run -->
<g id="edge41" class="edge">
<title>zsh&#45;&gt;run</title>
<path fill="none" stroke="red" d="M1092.14,-91.98C1074.46,-77.83 1046.51,-55.44 1026.22,-39.19"/>
<polygon fill="red" stroke="red" points="1028.76,-35.94 1018.77,-32.42 1024.39,-41.4 1028.76,-35.94"/>
<text text-anchor="middle" x="1073.01" y="-57.2" font-family="Times,serif" font-size="14.00">zsh</text>
</g>
<!-- fsh -->
<g id="node29" class="node">
<title>fsh</title>
<ellipse fill="none" stroke="black" cx="1181.01" cy="-106.5" rx="27" ry="18"/>
<text text-anchor="middle" x="1181.01" y="-101.45" font-family="Times,serif" font-size="14.00">fsh</text>
</g>
<!-- fsh&#45;&gt;run -->
<g id="edge42" class="edge">
<title>fsh&#45;&gt;run</title>
<path fill="none" stroke="red" d="M1161.31,-94.02C1142.32,-83.15 1112.62,-66.64 1086.01,-54 1069.1,-45.96 1049.84,-37.94 1033.94,-31.61"/>
<polygon fill="red" stroke="red" points="1035.62,-28.12 1025.03,-27.71 1033.05,-34.63 1035.62,-28.12"/>
<text text-anchor="middle" x="1125.26" y="-57.2" font-family="Times,serif" font-size="14.00">fsh</text>
</g>
<!-- bash -->
<g id="node30" class="node">
<title>bash</title>
<ellipse fill="none" stroke="black" cx="1254.01" cy="-106.5" rx="27.81" ry="18"/>
<text text-anchor="middle" x="1254.01" y="-101.45" font-family="Times,serif" font-size="14.00">bash</text>
</g>
<!-- bash&#45;&gt;run -->
<g id="edge43" class="edge">
<title>bash&#45;&gt;run</title>
<path fill="none" stroke="red" d="M1231.74,-95.18C1226.89,-92.96 1221.79,-90.64 1217.01,-88.5 1182.05,-72.83 1174.25,-66.45 1138.01,-54 1104.4,-42.45 1064.99,-32.77 1037.09,-26.54"/>
<polygon fill="red" stroke="red" points="1038.14,-22.97 1027.62,-24.24 1036.64,-29.81 1038.14,-22.97"/>
<text text-anchor="middle" x="1189.39" y="-57.2" font-family="Times,serif" font-size="14.00">bash</text>
</g>
<!-- perl -->
<g id="node31" class="node">
<title>perl</title>
<ellipse fill="none" stroke="black" cx="1327.01" cy="-106.5" rx="27" ry="18"/>
<text text-anchor="middle" x="1327.01" y="-101.45" font-family="Times,serif" font-size="14.00">perl</text>
</g>
<!-- perl&#45;&gt;run -->
<g id="edge44" class="edge">
<title>perl&#45;&gt;run</title>
<path fill="none" stroke="red" d="M1305.78,-95.23C1300.95,-92.97 1295.82,-90.61 1291.01,-88.5 1253.68,-72.12 1245.23,-65.16 1206.01,-54 1148.6,-37.66 1079.83,-27.82 1038.33,-22.91"/>
<polygon fill="red" stroke="red" points="1038.97,-19.35 1028.63,-21.68 1038.17,-26.3 1038.97,-19.35"/>
<text text-anchor="middle" x="1260.51" y="-57.2" font-family="Times,serif" font-size="14.00">perl</text>
</g>
<!-- Python -->
<g id="node32" class="node">
<title>Python</title>
<ellipse fill="none" stroke="black" cx="1409.01" cy="-106.5" rx="37.02" ry="18"/>
<text text-anchor="middle" x="1409.01" y="-101.45" font-family="Times,serif" font-size="14.00">Python</text>
</g>
<!-- Python&#45;&gt;run -->
<g id="edge45" class="edge">
<title>Python&#45;&gt;run</title>
<path fill="none" stroke="red" d="M1382.93,-93.32C1356.36,-81.43 1313.68,-63.75 1275.01,-54 1192.31,-33.15 1092.28,-24.38 1038.91,-20.96"/>
<polygon fill="red" stroke="red" points="1039.44,-17.43 1029.25,-20.31 1039.02,-24.42 1039.44,-17.43"/>
<text text-anchor="middle" x="1344.76" y="-57.2" font-family="Times,serif" font-size="14.00">cpython</text>
</g>
</g>
</svg>
