<?xml version="1.0" encoding="UTF-8" standalone="no"?>
<!DOCTYPE svg PUBLIC "-//W3C//DTD SVG 1.1//EN"
 "http://www.w3.org/Graphics/SVG/1.1/DTD/svg11.dtd">
<!-- Generated by graphviz version 9.0.0 (20230911.1827)
 -->
<!-- Pages: 1 -->
<svg width="1454pt" height="785pt"
 viewBox="0.00 0.00 1454.03 785.00" xmlns="http://www.w3.org/2000/svg" xmlns:xlink="http://www.w3.org/1999/xlink">
<g id="graph0" class="graph" transform="scale(1 1) rotate(0) translate(4 781)">
<polygon fill="white" stroke="none" points="-4,4 -4,-781 1450.03,-781 1450.03,4 -4,4"/>
<!-- Fsharp -->
<g id="node1" class="node">
<title>Fsharp</title>
<ellipse fill="none" stroke="black" cx="132.01" cy="-316.5" rx="27" ry="18"/>
<text text-anchor="middle" x="132.01" y="-311.45" font-family="Times,serif" font-size="14.00">F#</text>
</g>
<!-- dotNET -->
<g id="node4" class="node">
<title>dotNET</title>
<ellipse fill="none" stroke="black" cx="80.01" cy="-228" rx="80.01" ry="18"/>
<text text-anchor="middle" x="80.01" y="-222.95" font-family="Times,serif" font-size="14.00">.NET (MSIL/CIL)</text>
</g>
<!-- Fsharp&#45;&gt;dotNET -->
<g id="edge14" class="edge">
<title>Fsharp&#45;&gt;dotNET</title>
<path fill="none" stroke="black" d="M126.3,-298.63C122.43,-288.25 116.79,-274.9 110.01,-264 108.07,-260.87 105.86,-257.74 103.53,-254.7"/>
<polygon fill="black" stroke="black" points="106.39,-252.68 97.35,-247.16 100.98,-257.11 106.39,-252.68"/>
<text text-anchor="middle" x="126.89" y="-267.2" font-family="Times,serif" font-size="14.00">fsc</text>
</g>
<!-- Cpp -->
<g id="node2" class="node">
<title>Cpp</title>
<ellipse fill="none" stroke="black" cx="439.01" cy="-493.5" rx="28.32" ry="18"/>
<text text-anchor="middle" x="439.01" y="-488.45" font-family="Times,serif" font-size="14.00">C++</text>
</g>
<!-- LLVMIR -->
<g id="node5" class="node">
<title>LLVMIR</title>
<ellipse fill="none" stroke="black" cx="671.01" cy="-316.5" rx="48.79" ry="18"/>
<text text-anchor="middle" x="671.01" y="-311.45" font-family="Times,serif" font-size="14.00">LLVM IR</text>
</g>
<!-- Cpp&#45;&gt;LLVMIR -->
<g id="edge25" class="edge">
<title>Cpp&#45;&gt;LLVMIR</title>
<path fill="none" stroke="black" d="M462.17,-482.54C473.8,-476.62 487.42,-468.17 497.01,-457.5 531.44,-419.2 506.74,-385.82 546.01,-352.5 564.46,-336.85 589.42,-328.17 612.19,-323.36"/>
<polygon fill="black" stroke="black" points="612.82,-326.81 622.01,-321.53 611.53,-319.93 612.82,-326.81"/>
<text text-anchor="middle" x="537.64" y="-399.95" font-family="Times,serif" font-size="14.00">clang</text>
</g>
<!-- assembly -->
<g id="node10" class="node">
<title>assembly</title>
<ellipse fill="none" stroke="black" cx="565.01" cy="-228" rx="45.72" ry="18"/>
<text text-anchor="middle" x="565.01" y="-222.95" font-family="Times,serif" font-size="14.00">assembly</text>
</g>
<!-- Cpp&#45;&gt;assembly -->
<g id="edge17" class="edge">
<title>Cpp&#45;&gt;assembly</title>
<path fill="none" stroke="black" d="M429.09,-476.21C417.66,-455.31 401.71,-418.04 412.01,-387 432.42,-325.53 492.96,-276.15 531.48,-249.83"/>
<polygon fill="black" stroke="black" points="533.13,-252.94 539.51,-244.48 529.25,-247.12 533.13,-252.94"/>
<text text-anchor="middle" x="439.64" y="-355.7" font-family="Times,serif" font-size="14.00">g++</text>
</g>
<!-- Zig -->
<g id="node19" class="node">
<title>Zig</title>
<ellipse fill="none" stroke="black" cx="448.01" cy="-405" rx="27" ry="18"/>
<text text-anchor="middle" x="448.01" y="-399.95" font-family="Times,serif" font-size="14.00">Zig</text>
</g>
<!-- Cpp&#45;&gt;Zig -->
<g id="edge22" class="edge">
<title>Cpp&#45;&gt;Zig</title>
<path fill="none" stroke="blue" d="M438.73,-475.28C438.77,-465.24 439.14,-452.37 440.51,-441 440.78,-438.78 441.12,-436.49 441.51,-434.2"/>
<polygon fill="blue" stroke="blue" points="444.93,-434.96 443.43,-424.47 438.06,-433.6 444.93,-434.96"/>
<text text-anchor="middle" x="449.26" y="-444.2" font-family="Times,serif" font-size="14.00">zig</text>
</g>
<!-- Csharp -->
<g id="node3" class="node">
<title>Csharp</title>
<ellipse fill="none" stroke="black" cx="29.01" cy="-316.5" rx="27" ry="18"/>
<text text-anchor="middle" x="29.01" y="-311.45" font-family="Times,serif" font-size="14.00">C#</text>
</g>
<!-- Csharp&#45;&gt;dotNET -->
<g id="edge13" class="edge">
<title>Csharp&#45;&gt;dotNET</title>
<path fill="none" stroke="black" d="M25.8,-298.28C24.71,-287.77 24.93,-274.41 30.51,-264 32.81,-259.72 35.88,-255.85 39.38,-252.37"/>
<polygon fill="black" stroke="black" points="41.6,-255.08 46.99,-245.96 37.09,-249.73 41.6,-255.08"/>
<text text-anchor="middle" x="70.76" y="-267.2" font-family="Times,serif" font-size="14.00">visual studio!?</text>
</g>
<!-- run -->
<g id="node7" class="node">
<title>run</title>
<ellipse fill="none" stroke="red" cx="1001.01" cy="-18" rx="27" ry="18"/>
<text text-anchor="middle" x="1001.01" y="-12.95" font-family="Times,serif" font-size="14.00">run</text>
</g>
<!-- dotNET&#45;&gt;run -->
<g id="edge3" class="edge">
<title>dotNET&#45;&gt;run</title>
<path fill="none" stroke="red" d="M81.64,-209.82C84.39,-190.66 91.69,-160.04 111.01,-142.5 181.32,-78.65 224.77,-107.78 317.76,-88.5 559.74,-38.34 857.76,-23.84 962.46,-20.14"/>
<polygon fill="red" stroke="red" points="962.3,-23.65 972.18,-19.81 962.06,-16.66 962.3,-23.65"/>
<text text-anchor="middle" x="331.14" y="-101.45" font-family="Times,serif" font-size="14.00">CLR</text>
</g>
<!-- binary -->
<g id="node9" class="node">
<title>binary</title>
<ellipse fill="none" stroke="black" cx="387.01" cy="-106.5" rx="34.46" ry="18"/>
<text text-anchor="middle" x="387.01" y="-101.45" font-family="Times,serif" font-size="14.00">binary</text>
</g>
<!-- dotNET&#45;&gt;binary -->
<g id="edge4" class="edge">
<title>dotNET&#45;&gt;binary</title>
<path fill="none" stroke="black" d="M95.9,-210.01C115.26,-190.42 149.93,-158.82 186.26,-142.5 236.26,-120.04 299.27,-111.94 341.23,-109.06"/>
<polygon fill="black" stroke="black" points="341.2,-112.56 350.97,-108.46 340.77,-105.58 341.2,-112.56"/>
<text text-anchor="middle" x="206.89" y="-162.2" font-family="Times,serif" font-size="14.00">coreRT</text>
</g>
<!-- LLVMIR&#45;&gt;run -->
<g id="edge5" class="edge">
<title>LLVMIR&#45;&gt;run</title>
<path fill="none" stroke="red" d="M669.61,-298.06C667.78,-265.38 667.62,-193.63 695.51,-142.5 747.96,-46.37 892.79,-24.95 962.52,-20.26"/>
<polygon fill="red" stroke="red" points="962.54,-23.76 972.32,-19.69 962.13,-16.78 962.54,-23.76"/>
<text text-anchor="middle" x="715.26" y="-162.2" font-family="Times,serif" font-size="14.00">llvm jit</text>
</g>
<!-- LLVMIR&#45;&gt;assembly -->
<g id="edge6" class="edge">
<title>LLVMIR&#45;&gt;assembly</title>
<path fill="none" stroke="black" d="M651.57,-299.63C635.21,-286.28 611.6,-267.02 593.17,-251.98"/>
<polygon fill="black" stroke="black" points="595.46,-249.33 585.5,-245.72 591.04,-254.76 595.46,-249.33"/>
<text text-anchor="middle" x="633.76" y="-267.2" font-family="Times,serif" font-size="14.00">llc</text>
</g>
<!-- WASM -->
<g id="node11" class="node">
<title>WASM</title>
<ellipse fill="none" stroke="black" cx="744.01" cy="-228" rx="39.58" ry="18"/>
<text text-anchor="middle" x="744.01" y="-222.95" font-family="Times,serif" font-size="14.00">WASM</text>
</g>
<!-- LLVMIR&#45;&gt;WASM -->
<g id="edge9" class="edge">
<title>LLVMIR&#45;&gt;WASM</title>
<path fill="none" stroke="black" d="M685.09,-298.82C695.86,-286.06 710.89,-268.25 723.07,-253.81"/>
<polygon fill="black" stroke="black" points="725.48,-256.39 729.25,-246.49 720.13,-251.88 725.48,-256.39"/>
<text text-anchor="middle" x="726.76" y="-267.2" font-family="Times,serif" font-size="14.00">llvm</text>
</g>
<!-- browser -->
<g id="node6" class="node">
<title>browser</title>
<ellipse fill="none" stroke="black" cx="821.01" cy="-106.5" rx="53.91" ry="18"/>
<text text-anchor="middle" x="821.01" y="-101.45" font-family="Times,serif" font-size="14.00">Browser IR</text>
</g>
<!-- browser&#45;&gt;run -->
<g id="edge1" class="edge">
<title>browser&#45;&gt;run</title>
<path fill="none" stroke="red" d="M827.45,-88.17C832.56,-76.78 840.8,-62.48 852.51,-54 884.81,-30.62 930.46,-22.63 962.6,-20.02"/>
<polygon fill="red" stroke="red" points="962.52,-23.53 972.27,-19.38 962.06,-16.55 962.52,-23.53"/>
<text text-anchor="middle" x="873.76" y="-57.2" font-family="Times,serif" font-size="14.00">browser</text>
</g>
<!-- JVM -->
<g id="node8" class="node">
<title>JVM</title>
<ellipse fill="none" stroke="black" cx="932.01" cy="-582" rx="29.86" ry="18"/>
<text text-anchor="middle" x="932.01" y="-576.95" font-family="Times,serif" font-size="14.00">JVM</text>
</g>
<!-- JVM&#45;&gt;run -->
<g id="edge2" class="edge">
<title>JVM&#45;&gt;run</title>
<path fill="none" stroke="red" d="M930.1,-563.71C921.88,-486.91 891.63,-176.55 929.01,-88.5 937.92,-67.51 956.62,-49.78 972.73,-37.48"/>
<polygon fill="red" stroke="red" points="974.56,-40.47 980.6,-31.77 970.45,-34.81 974.56,-40.47"/>
<text text-anchor="middle" x="923.26" y="-311.45" font-family="Times,serif" font-size="14.00">java</text>
</g>
<!-- binary&#45;&gt;run -->
<g id="edge8" class="edge">
<title>binary&#45;&gt;run</title>
<path fill="none" stroke="red" d="M417.65,-97.98C464.18,-86.82 555.58,-65.91 634.26,-54 753.58,-35.94 896.23,-25.49 963.01,-21.24"/>
<polygon fill="red" stroke="red" points="962.93,-24.75 972.69,-20.64 962.49,-17.77 962.93,-24.75"/>
<text text-anchor="middle" x="646.39" y="-57.2" font-family="Times,serif" font-size="14.00">exec</text>
</g>
<!-- assembly&#45;&gt;binary -->
<g id="edge7" class="edge">
<title>assembly&#45;&gt;binary</title>
<path fill="none" stroke="black" d="M548.6,-210.84C529.46,-192.6 496.33,-162.83 464.01,-142.5 451.78,-134.8 437.57,-127.85 424.71,-122.21"/>
<polygon fill="black" stroke="black" points="426.27,-119.06 415.69,-118.38 423.53,-125.51 426.27,-119.06"/>
<text text-anchor="middle" x="573.76" y="-162.2" font-family="Times,serif" font-size="14.00">assembler&amp;linker</text>
</g>
<!-- WASM&#45;&gt;browser -->
<g id="edge38" class="edge">
<title>WASM&#45;&gt;browser</title>
<path fill="none" stroke="black" d="M741.56,-209.83C739.89,-191.52 740.03,-162.45 753.76,-142.5 758.7,-135.33 765.56,-129.54 773.04,-124.88"/>
<polygon fill="black" stroke="black" points="774.32,-128.17 781.41,-120.29 770.95,-122.03 774.32,-128.17"/>
<text text-anchor="middle" x="779.64" y="-162.2" font-family="Times,serif" font-size="14.00">v8 and co</text>
</g>
<!-- Java -->
<g id="node12" class="node">
<title>Java</title>
<ellipse fill="none" stroke="black" cx="926.01" cy="-670.5" rx="27.3" ry="18"/>
<text text-anchor="middle" x="926.01" y="-665.45" font-family="Times,serif" font-size="14.00">Java</text>
</g>
<!-- Java&#45;&gt;JVM -->
<g id="edge10" class="edge">
<title>Java&#45;&gt;JVM</title>
<path fill="none" stroke="black" d="M927.2,-652.41C928.01,-640.76 929.1,-625.05 930.03,-611.52"/>
<polygon fill="black" stroke="black" points="933.5,-612.08 930.7,-601.86 926.52,-611.59 933.5,-612.08"/>
<text text-anchor="middle" x="943.26" y="-621.2" font-family="Times,serif" font-size="14.00">javac</text>
</g>
<!-- Kotlin -->
<g id="node13" class="node">
<title>Kotlin</title>
<ellipse fill="none" stroke="black" cx="799.01" cy="-670.5" rx="34.46" ry="18"/>
<text text-anchor="middle" x="799.01" y="-665.45" font-family="Times,serif" font-size="14.00">Kotlin</text>
</g>
<!-- Kotlin&#45;&gt;LLVMIR -->
<g id="edge20" class="edge">
<title>Kotlin&#45;&gt;LLVMIR</title>
<path fill="none" stroke="blue" d="M782.59,-654.2C769.43,-641.04 751.51,-620.93 741.01,-600 690.33,-498.91 712.1,-461.51 682.01,-352.5 681.38,-350.2 680.69,-347.82 679.99,-345.44"/>
<polygon fill="blue" stroke="blue" points="683.36,-344.49 677.07,-335.96 676.67,-346.55 683.36,-344.49"/>
<text text-anchor="middle" x="726.76" y="-488.45" font-family="Times,serif" font-size="14.00">kotlinc</text>
</g>
<!-- Kotlin&#45;&gt;JVM -->
<g id="edge11" class="edge">
<title>Kotlin&#45;&gt;JVM</title>
<path fill="none" stroke="black" d="M820.09,-655.79C842.46,-641.24 877.97,-618.14 902.99,-601.88"/>
<polygon fill="black" stroke="black" points="904.59,-605.01 911.07,-596.62 900.78,-599.14 904.59,-605.01"/>
<text text-anchor="middle" x="895.76" y="-621.2" font-family="Times,serif" font-size="14.00">kotlinc</text>
</g>
<!-- JavaScript -->
<g id="node24" class="node">
<title>JavaScript</title>
<ellipse fill="none" stroke="black" cx="799.01" cy="-582" rx="49.3" ry="18"/>
<text text-anchor="middle" x="799.01" y="-576.95" font-family="Times,serif" font-size="14.00">JavaScript</text>
</g>
<!-- Kotlin&#45;&gt;JavaScript -->
<g id="edge37" class="edge">
<title>Kotlin&#45;&gt;JavaScript</title>
<path fill="none" stroke="blue" d="M799.01,-652.41C799.01,-640.76 799.01,-625.05 799.01,-611.52"/>
<polygon fill="blue" stroke="blue" points="802.51,-611.86 799.01,-601.86 795.51,-611.86 802.51,-611.86"/>
<text text-anchor="middle" x="817.76" y="-621.2" font-family="Times,serif" font-size="14.00">kotlinc</text>
</g>
<!-- OCaml -->
<g id="node14" class="node">
<title>OCaml</title>
<ellipse fill="none" stroke="black" cx="1009.01" cy="-670.5" rx="38.04" ry="18"/>
<text text-anchor="middle" x="1009.01" y="-665.45" font-family="Times,serif" font-size="14.00">OCaml</text>
</g>
<!-- OCaml&#45;&gt;JVM -->
<g id="edge12" class="edge">
<title>OCaml&#45;&gt;JVM</title>
<path fill="none" stroke="black" d="M994.89,-653.63C983.2,-640.51 966.43,-621.66 953.14,-606.73"/>
<polygon fill="black" stroke="black" points="956.06,-604.75 946.79,-599.6 950.83,-609.4 956.06,-604.75"/>
<text text-anchor="middle" x="996.89" y="-621.2" font-family="Times,serif" font-size="14.00">ocamlc</text>
</g>
<!-- C -->
<g id="node15" class="node">
<title>C</title>
<ellipse fill="none" stroke="black" cx="576.01" cy="-493.5" rx="27" ry="18"/>
<text text-anchor="middle" x="576.01" y="-488.45" font-family="Times,serif" font-size="14.00">C</text>
</g>
<!-- C&#45;&gt;LLVMIR -->
<g id="edge26" class="edge">
<title>C&#45;&gt;LLVMIR</title>
<path fill="none" stroke="black" d="M583.57,-475.79C593.23,-454.76 610.74,-417.69 627.76,-387 635.81,-372.49 645.52,-356.75 653.69,-343.93"/>
<polygon fill="black" stroke="black" points="656.57,-345.93 659.04,-335.62 650.69,-342.14 656.57,-345.93"/>
<text text-anchor="middle" x="641.64" y="-399.95" font-family="Times,serif" font-size="14.00">clang</text>
</g>
<!-- C&#45;&gt;assembly -->
<g id="edge15" class="edge">
<title>C&#45;&gt;assembly</title>
<path fill="none" stroke="black" d="M575.29,-475.21C573.44,-430.82 568.5,-312.49 566.21,-257.65"/>
<polygon fill="black" stroke="black" points="569.71,-257.71 565.8,-247.86 562.72,-258 569.71,-257.71"/>
<text text-anchor="middle" x="579.39" y="-355.7" font-family="Times,serif" font-size="14.00">gcc</text>
</g>
<!-- C&#45;&gt;Zig -->
<g id="edge21" class="edge">
<title>C&#45;&gt;Zig</title>
<path fill="none" stroke="blue" d="M557.4,-479.92C535.98,-465.44 500.57,-441.52 475.86,-424.82"/>
<polygon fill="blue" stroke="blue" points="478.15,-422.14 467.9,-419.44 474.23,-427.94 478.15,-422.14"/>
<text text-anchor="middle" x="531.26" y="-444.2" font-family="Times,serif" font-size="14.00">zig</text>
</g>
<!-- erlang -->
<g id="node16" class="node">
<title>erlang</title>
<ellipse fill="none" stroke="black" cx="306.01" cy="-228" rx="33.95" ry="18"/>
<text text-anchor="middle" x="306.01" y="-222.95" font-family="Times,serif" font-size="14.00">erlang</text>
</g>
<!-- erlang&#45;&gt;binary -->
<g id="edge16" class="edge">
<title>erlang&#45;&gt;binary</title>
<path fill="none" stroke="black" d="M308.28,-209.56C311.4,-191.28 318.46,-162.49 333.76,-142.5 338.85,-135.86 345.58,-130.08 352.53,-125.25"/>
<polygon fill="black" stroke="black" points="354.17,-128.35 360.75,-120.05 350.43,-122.44 354.17,-128.35"/>
<text text-anchor="middle" x="344.14" y="-162.2" font-family="Times,serif" font-size="14.00">erlc</text>
</g>
<!-- Go -->
<g id="node17" class="node">
<title>Go</title>
<ellipse fill="none" stroke="black" cx="461.01" cy="-228" rx="27" ry="18"/>
<text text-anchor="middle" x="461.01" y="-222.95" font-family="Times,serif" font-size="14.00">Go</text>
</g>
<!-- Go&#45;&gt;binary -->
<g id="edge18" class="edge">
<title>Go&#45;&gt;binary</title>
<path fill="none" stroke="black" d="M454.69,-210.31C447.6,-192.65 435.1,-164.38 420.01,-142.5 417.29,-138.56 414.13,-134.62 410.87,-130.89"/>
<polygon fill="black" stroke="black" points="413.62,-128.71 404.25,-123.76 408.49,-133.47 413.62,-128.71"/>
<text text-anchor="middle" x="453.76" y="-162.2" font-family="Times,serif" font-size="14.00">go</text>
</g>
<!-- Fortran -->
<g id="node18" class="node">
<title>Fortran</title>
<ellipse fill="none" stroke="black" cx="216.01" cy="-228" rx="38.04" ry="18"/>
<text text-anchor="middle" x="216.01" y="-222.95" font-family="Times,serif" font-size="14.00">Fortran</text>
</g>
<!-- Fortran&#45;&gt;binary -->
<g id="edge19" class="edge">
<title>Fortran&#45;&gt;binary</title>
<path fill="none" stroke="black" d="M221.67,-209.78C228.86,-190.57 243.09,-159.92 265.51,-142.5 287.36,-125.52 317.14,-116.78 341.76,-112.28"/>
<polygon fill="black" stroke="black" points="342.21,-115.75 351.52,-110.68 341.08,-108.84 342.21,-115.75"/>
<text text-anchor="middle" x="287.76" y="-178.7" font-family="Times,serif" font-size="14.00">gfortran</text>
<text text-anchor="middle" x="287.76" y="-162.2" font-family="Times,serif" font-size="14.00">ifort</text>
<text text-anchor="middle" x="287.76" y="-145.7" font-family="Times,serif" font-size="14.00">pgf77</text>
</g>
<!-- Zig&#45;&gt;LLVMIR -->
<g id="edge24" class="edge">
<title>Zig&#45;&gt;LLVMIR</title>
<path fill="none" stroke="blue" d="M454.21,-387.46C459.44,-375.84 468.08,-360.91 480.51,-352.5 501.72,-338.15 565.11,-328.49 612.99,-323.01"/>
<polygon fill="blue" stroke="blue" points="613.12,-326.52 622.68,-321.94 612.35,-319.56 613.12,-326.52"/>
<text text-anchor="middle" x="488.26" y="-355.7" font-family="Times,serif" font-size="14.00">zig</text>
</g>
<!-- Zig&#45;&gt;binary -->
<g id="edge23" class="edge">
<title>Zig&#45;&gt;binary</title>
<path fill="none" stroke="black" d="M444.47,-386.78C434.36,-337.65 405.32,-196.47 392.83,-135.78"/>
<polygon fill="black" stroke="black" points="396.31,-135.34 390.87,-126.25 389.46,-136.75 396.31,-135.34"/>
<text text-anchor="middle" x="431.26" y="-267.2" font-family="Times,serif" font-size="14.00">zig</text>
</g>
<!-- Rust -->
<g id="node20" class="node">
<title>Rust</title>
<ellipse fill="none" stroke="black" cx="765.01" cy="-405" rx="27.81" ry="18"/>
<text text-anchor="middle" x="765.01" y="-399.95" font-family="Times,serif" font-size="14.00">Rust</text>
</g>
<!-- Rust&#45;&gt;LLVMIR -->
<g id="edge27" class="edge">
<title>Rust&#45;&gt;LLVMIR</title>
<path fill="none" stroke="black" d="M753.97,-388.1C746.06,-377.36 734.78,-363.23 723.01,-352.5 717.68,-347.64 711.63,-342.95 705.58,-338.67"/>
<polygon fill="black" stroke="black" points="707.68,-335.86 697.44,-333.16 703.76,-341.66 707.68,-335.86"/>
<text text-anchor="middle" x="751.14" y="-355.7" font-family="Times,serif" font-size="14.00">rustc</text>
</g>
<!-- Haskell -->
<g id="node21" class="node">
<title>Haskell</title>
<ellipse fill="none" stroke="black" cx="576.01" cy="-759" rx="39.07" ry="18"/>
<text text-anchor="middle" x="576.01" y="-753.95" font-family="Times,serif" font-size="14.00">Haskell</text>
</g>
<!-- STG -->
<g id="node22" class="node">
<title>STG</title>
<ellipse fill="none" stroke="black" cx="576.01" cy="-670.5" rx="28.32" ry="18"/>
<text text-anchor="middle" x="576.01" y="-665.45" font-family="Times,serif" font-size="14.00">STG</text>
</g>
<!-- Haskell&#45;&gt;STG -->
<g id="edge28" class="edge">
<title>Haskell&#45;&gt;STG</title>
<path fill="none" stroke="black" d="M576.01,-740.91C576.01,-729.26 576.01,-713.55 576.01,-700.02"/>
<polygon fill="black" stroke="black" points="579.51,-700.36 576.01,-690.36 572.51,-700.36 579.51,-700.36"/>
<text text-anchor="middle" x="585.76" y="-709.7" font-family="Times,serif" font-size="14.00">ghc</text>
</g>
<!-- Cmm -->
<g id="node23" class="node">
<title>Cmm</title>
<ellipse fill="none" stroke="black" cx="576.01" cy="-582" rx="32.41" ry="18"/>
<text text-anchor="middle" x="576.01" y="-576.95" font-family="Times,serif" font-size="14.00">Cmm</text>
</g>
<!-- STG&#45;&gt;Cmm -->
<g id="edge29" class="edge">
<title>STG&#45;&gt;Cmm</title>
<path fill="none" stroke="black" d="M576.01,-652.41C576.01,-640.76 576.01,-625.05 576.01,-611.52"/>
<polygon fill="black" stroke="black" points="579.51,-611.86 576.01,-601.86 572.51,-611.86 579.51,-611.86"/>
<text text-anchor="middle" x="585.76" y="-621.2" font-family="Times,serif" font-size="14.00">ghc</text>
</g>
<!-- Cmm&#45;&gt;LLVMIR -->
<g id="edge31" class="edge">
<title>Cmm&#45;&gt;LLVMIR</title>
<path fill="none" stroke="blue" d="M587.83,-564.98C591.91,-559.14 596.37,-552.4 600.01,-546 629.82,-493.64 640.19,-480.86 657.01,-423 664.42,-397.52 667.92,-367.43 669.57,-345.91"/>
<polygon fill="blue" stroke="blue" points="673.05,-346.36 670.22,-336.15 666.06,-345.89 673.05,-346.36"/>
<text text-anchor="middle" x="660.76" y="-444.2" font-family="Times,serif" font-size="14.00">ghc</text>
</g>
<!-- Cmm&#45;&gt;binary -->
<g id="edge30" class="edge">
<title>Cmm&#45;&gt;binary</title>
<path fill="none" stroke="blue" d="M543.94,-578.41C503.31,-573.23 434.65,-557.74 402.01,-511.5 319.17,-394.15 359.2,-206.22 378.59,-135.57"/>
<polygon fill="blue" stroke="blue" points="381.94,-136.55 381.3,-125.98 375.21,-134.64 381.94,-136.55"/>
<text text-anchor="middle" x="363.76" y="-355.7" font-family="Times,serif" font-size="14.00">ghc</text>
</g>
<!-- Cmm&#45;&gt;C -->
<g id="edge32" class="edge">
<title>Cmm&#45;&gt;C</title>
<path fill="none" stroke="black" d="M576.01,-563.91C576.01,-552.26 576.01,-536.55 576.01,-523.02"/>
<polygon fill="black" stroke="black" points="579.51,-523.36 576.01,-513.36 572.51,-523.36 579.51,-523.36"/>
<text text-anchor="middle" x="585.76" y="-532.7" font-family="Times,serif" font-size="14.00">ghc</text>
</g>
<!-- JavaScript&#45;&gt;browser -->
<g id="edge33" class="edge">
<title>JavaScript&#45;&gt;browser</title>
<path fill="none" stroke="black" d="M797.41,-563.6C796.2,-549.55 794.65,-529.27 794.01,-511.5 793.44,-495.51 792.15,-491.39 794.01,-475.5 800.05,-423.89 821.01,-413.71 821.01,-361.75 821.01,-361.75 821.01,-361.75 821.01,-227 821.01,-195.94 821.01,-160.34 821.01,-136.13"/>
<polygon fill="black" stroke="black" points="824.51,-136.43 821.01,-126.43 817.51,-136.43 824.51,-136.43"/>
<text text-anchor="middle" x="847.64" y="-355.7" font-family="Times,serif" font-size="14.00">v8 and co</text>
</g>
<!-- JavaScript&#45;&gt;C -->
<g id="edge34" class="edge">
<title>JavaScript&#45;&gt;C</title>
<path fill="none" stroke="blue" d="M766.11,-568.24C724.18,-551.97 652.08,-524.01 609.76,-507.59"/>
<polygon fill="blue" stroke="blue" points="611.16,-504.38 600.58,-504.03 608.63,-510.91 611.16,-504.38"/>
<text text-anchor="middle" x="729.51" y="-532.7" font-family="Times,serif" font-size="14.00">shermes</text>
</g>
<!-- TypeScript -->
<g id="node25" class="node">
<title>TypeScript</title>
<ellipse fill="none" stroke="black" cx="854.01" cy="-493.5" rx="51.35" ry="18"/>
<text text-anchor="middle" x="854.01" y="-488.45" font-family="Times,serif" font-size="14.00">TypeScript</text>
</g>
<!-- JavaScript&#45;&gt;TypeScript -->
<g id="edge35" class="edge">
<title>JavaScript&#45;&gt;TypeScript</title>
<path fill="none" stroke="blue" d="M813.97,-564.5C818.75,-558.84 823.86,-552.34 828.01,-546 832.92,-538.51 837.57,-529.97 841.54,-522.03"/>
<polygon fill="blue" stroke="blue" points="844.66,-523.62 845.84,-513.09 838.35,-520.58 844.66,-523.62"/>
<text text-anchor="middle" x="859.51" y="-532.7" font-family="Times,serif" font-size="14.00">shermes</text>
</g>
<!-- TypeScript&#45;&gt;JavaScript -->
<g id="edge36" class="edge">
<title>TypeScript&#45;&gt;JavaScript</title>
<path fill="none" stroke="black" d="M828.61,-509.28C821.24,-514.75 813.88,-521.57 809.01,-529.5 804.83,-536.3 802.35,-544.49 800.88,-552.3"/>
<polygon fill="black" stroke="black" points="797.42,-551.79 799.55,-562.17 804.35,-552.72 797.42,-551.79"/>
<text text-anchor="middle" x="816.51" y="-532.7" font-family="Times,serif" font-size="14.00">tsc</text>
</g>
<!-- Lisp -->
<g id="node26" class="node">
<title>Lisp</title>
<ellipse fill="none" stroke="black" cx="965.01" cy="-106.5" rx="27.3" ry="18"/>
<text text-anchor="middle" x="965.01" y="-101.45" font-family="Times,serif" font-size="14.00">Lisp</text>
</g>
<!-- Lisp&#45;&gt;run -->
<g id="edge39" class="edge">
<title>Lisp&#45;&gt;run</title>
<path fill="none" stroke="red" d="M971.95,-88.82C976.98,-76.74 983.9,-60.13 989.72,-46.14"/>
<polygon fill="red" stroke="red" points="992.9,-47.6 993.51,-37.02 986.44,-44.91 992.9,-47.6"/>
<text text-anchor="middle" x="995.76" y="-57.2" font-family="Times,serif" font-size="14.00">lisp</text>
</g>
<!-- sh -->
<g id="node27" class="node">
<title>sh</title>
<ellipse fill="none" stroke="black" cx="1037.01" cy="-106.5" rx="27" ry="18"/>
<text text-anchor="middle" x="1037.01" y="-101.45" font-family="Times,serif" font-size="14.00">sh</text>
</g>
<!-- sh&#45;&gt;run -->
<g id="edge40" class="edge">
<title>sh&#45;&gt;run</title>
<path fill="none" stroke="red" d="M1030.07,-88.82C1025.04,-76.74 1018.13,-60.13 1012.31,-46.14"/>
<polygon fill="red" stroke="red" points="1015.59,-44.91 1008.51,-37.02 1009.13,-47.6 1015.59,-44.91"/>
<text text-anchor="middle" x="1028.01" y="-57.2" font-family="Times,serif" font-size="14.00">sh</text>
</g>
<!-- zsh -->
<g id="node28" class="node">
<title>zsh</title>
<ellipse fill="none" stroke="black" cx="1109.01" cy="-106.5" rx="27" ry="18"/>
<text text-anchor="middle" x="1109.01" y="-101.45" font-family="Times,serif" font-size="14.00">zsh</text>
</g>
<!-- zsh&#45;&gt;run -->
<g id="edge41" class="edge">
<title>zsh&#45;&gt;run</title>
<path fill="none" stroke="red" d="M1092.14,-91.98C1074.54,-77.89 1046.76,-55.64 1026.49,-39.4"/>
<polygon fill="red" stroke="red" points="1028.94,-36.89 1018.95,-33.37 1024.57,-42.35 1028.94,-36.89"/>
<text text-anchor="middle" x="1073.01" y="-57.2" font-family="Times,serif" font-size="14.00">zsh</text>
</g>
<!-- fsh -->
<g id="node29" class="node">
<title>fsh</title>
<ellipse fill="none" stroke="black" cx="1181.01" cy="-106.5" rx="27" ry="18"/>
<text text-anchor="middle" x="1181.01" y="-101.45" font-family="Times,serif" font-size="14.00">fsh</text>
</g>
<!-- fsh&#45;&gt;run -->
<g id="edge42" class="edge">
<title>fsh&#45;&gt;run</title>
<path fill="none" stroke="red" d="M1161.31,-94.02C1142.32,-83.15 1112.62,-66.64 1086.01,-54 1069.27,-46.04 1050.21,-38.1 1034.39,-31.79"/>
<polygon fill="red" stroke="red" points="1036.02,-28.67 1025.44,-28.27 1033.46,-35.19 1036.02,-28.67"/>
<text text-anchor="middle" x="1125.26" y="-57.2" font-family="Times,serif" font-size="14.00">fsh</text>
</g>
<!-- bash -->
<g id="node30" class="node">
<title>bash</title>
<ellipse fill="none" stroke="black" cx="1254.01" cy="-106.5" rx="27.81" ry="18"/>
<text text-anchor="middle" x="1254.01" y="-101.45" font-family="Times,serif" font-size="14.00">bash</text>
</g>
<!-- bash&#45;&gt;run -->
<g id="edge43" class="edge">
<title>bash&#45;&gt;run</title>
<path fill="none" stroke="red" d="M1231.74,-95.18C1226.89,-92.96 1221.79,-90.64 1217.01,-88.5 1182.05,-72.83 1174.25,-66.45 1138.01,-54 1104.7,-42.55 1065.68,-32.94 1037.83,-26.71"/>
<polygon fill="red" stroke="red" points="1038.62,-23.3 1028.1,-24.57 1037.12,-30.13 1038.62,-23.3"/>
<text text-anchor="middle" x="1189.39" y="-57.2" font-family="Times,serif" font-size="14.00">bash</text>
</g>
<!-- perl -->
<g id="node31" class="node">
<title>perl</title>
<ellipse fill="none" stroke="black" cx="1327.01" cy="-106.5" rx="27" ry="18"/>
<text text-anchor="middle" x="1327.01" y="-101.45" font-family="Times,serif" font-size="14.00">perl</text>
</g>
<!-- perl&#45;&gt;run -->
<g id="edge44" class="edge">
<title>perl&#45;&gt;run</title>
<path fill="none" stroke="red" d="M1305.78,-95.23C1300.95,-92.97 1295.82,-90.61 1291.01,-88.5 1253.68,-72.12 1245.23,-65.16 1206.01,-54 1148.84,-37.73 1080.42,-27.91 1038.86,-22.97"/>
<polygon fill="red" stroke="red" points="1039.47,-19.52 1029.14,-21.85 1038.67,-26.47 1039.47,-19.52"/>
<text text-anchor="middle" x="1260.51" y="-57.2" font-family="Times,serif" font-size="14.00">perl</text>
</g>
<!-- Python -->
<g id="node32" class="node">
<title>Python</title>
<ellipse fill="none" stroke="black" cx="1409.01" cy="-106.5" rx="37.02" ry="18"/>
<text text-anchor="middle" x="1409.01" y="-101.45" font-family="Times,serif" font-size="14.00">Python</text>
</g>
<!-- Python&#45;&gt;run -->
<g id="edge45" class="edge">
<title>Python&#45;&gt;run</title>
<path fill="none" stroke="red" d="M1382.93,-93.32C1356.36,-81.43 1313.68,-63.75 1275.01,-54 1192.66,-33.24 1093.11,-24.45 1039.58,-21.01"/>
<polygon fill="red" stroke="red" points="1039.95,-17.52 1029.76,-20.41 1039.53,-24.51 1039.95,-17.52"/>
<text text-anchor="middle" x="1344.76" y="-57.2" font-family="Times,serif" font-size="14.00">cpython</text>
</g>
</g>
</svg>
