<?xml version="1.0" encoding="UTF-8" standalone="no"?>
<!DOCTYPE svg PUBLIC "-//W3C//DTD SVG 1.1//EN"
 "http://www.w3.org/Graphics/SVG/1.1/DTD/svg11.dtd">
<!-- Generated by graphviz version 8.1.0 (20230707.0739)
 -->
<!-- Pages: 1 -->
<svg width="1677pt" height="376pt"
 viewBox="0.00 0.00 1676.93 375.97" xmlns="http://www.w3.org/2000/svg" xmlns:xlink="http://www.w3.org/1999/xlink">
<g id="graph0" class="graph" transform="scale(1 1) rotate(0) translate(4 371.97)">
<polygon fill="white" stroke="none" points="-4,4 -4,-371.97 1672.93,-371.97 1672.93,4 -4,4"/>
<!-- conf -->
<g id="node1" class="node">
<title>conf</title>
<ellipse fill="none" stroke="black" cx="238.93" cy="-162" rx="99.97" ry="18"/>
<text text-anchor="middle" x="238.93" y="-156.95" font-family="Times,serif" font-size="14.00">configuration languages</text>
</g>
<!-- JSON -->
<g id="node11" class="node">
<title>JSON</title>
<ellipse fill="none" stroke="black" cx="32.93" cy="-90" rx="32.93" ry="18"/>
<text text-anchor="middle" x="32.93" y="-84.95" font-family="Times,serif" font-size="14.00">JSON</text>
</g>
<!-- conf&#45;&gt;JSON -->
<g id="edge8" class="edge">
<title>conf&#45;&gt;JSON</title>
<path fill="none" stroke="black" d="M189.45,-146.03C156.74,-135.89 113.03,-121.85 74.93,-108 72.85,-107.24 70.72,-106.45 68.57,-105.63"/>
<polygon fill="black" stroke="black" points="70.17,-102.11 59.58,-101.72 67.62,-108.63 70.17,-102.11"/>
</g>
<!-- INI -->
<g id="node12" class="node">
<title>INI</title>
<ellipse fill="none" stroke="black" cx="110.93" cy="-90" rx="27" ry="18"/>
<text text-anchor="middle" x="110.93" y="-84.95" font-family="Times,serif" font-size="14.00">INI</text>
</g>
<!-- conf&#45;&gt;INI -->
<g id="edge7" class="edge">
<title>conf&#45;&gt;INI</title>
<path fill="none" stroke="black" d="M208.59,-144.41C188.13,-133.22 161.26,-118.53 140.88,-107.38"/>
<polygon fill="black" stroke="black" points="142.91,-103.96 132.46,-102.23 139.55,-110.1 142.91,-103.96"/>
</g>
<!-- YAML -->
<g id="node13" class="node">
<title>YAML</title>
<ellipse fill="none" stroke="black" cx="193.93" cy="-90" rx="37.53" ry="18"/>
<text text-anchor="middle" x="193.93" y="-84.95" font-family="Times,serif" font-size="14.00">YAML</text>
</g>
<!-- conf&#45;&gt;YAML -->
<g id="edge6" class="edge">
<title>conf&#45;&gt;YAML</title>
<path fill="none" stroke="black" d="M227.8,-143.7C222.6,-135.61 216.31,-125.81 210.56,-116.87"/>
<polygon fill="black" stroke="black" points="212.96,-115.14 204.61,-108.62 207.08,-118.93 212.96,-115.14"/>
</g>
<!-- Toml -->
<g id="node14" class="node">
<title>Toml</title>
<ellipse fill="none" stroke="black" cx="279.93" cy="-90" rx="30.88" ry="18"/>
<text text-anchor="middle" x="279.93" y="-84.95" font-family="Times,serif" font-size="14.00">Toml</text>
</g>
<!-- conf&#45;&gt;Toml -->
<g id="edge9" class="edge">
<title>conf&#45;&gt;Toml</title>
<path fill="none" stroke="black" d="M249.06,-143.7C253.87,-135.49 259.71,-125.52 265.01,-116.48"/>
<polygon fill="black" stroke="black" points="268.44,-118.54 270.47,-108.14 262.4,-115 268.44,-118.54"/>
</g>
<!-- Starlark -->
<g id="node15" class="node">
<title>Starlark</title>
<ellipse fill="none" stroke="black" cx="368.93" cy="-90" rx="40.09" ry="18"/>
<text text-anchor="middle" x="368.93" y="-84.95" font-family="Times,serif" font-size="14.00">Starlark</text>
</g>
<!-- conf&#45;&gt;Starlark -->
<g id="edge10" class="edge">
<title>conf&#45;&gt;Starlark</title>
<path fill="none" stroke="black" d="M269.73,-144.41C289.22,-133.92 314.44,-120.34 334.57,-109.5"/>
<polygon fill="black" stroke="black" points="335.85,-112.25 343,-104.42 332.53,-106.08 335.85,-112.25"/>
</g>
<!-- clike -->
<g id="node2" class="node">
<title>clike</title>
<ellipse fill="none" stroke="black" cx="1136.93" cy="-90" rx="73.36" ry="18"/>
<text text-anchor="middle" x="1136.93" y="-84.95" font-family="Times,serif" font-size="14.00">C&#45;like languages</text>
</g>
<!-- Cpp -->
<g id="node3" class="node">
<title>Cpp</title>
<ellipse fill="none" stroke="black" cx="1568.93" cy="-18" rx="28.32" ry="18"/>
<text text-anchor="middle" x="1568.93" y="-12.95" font-family="Times,serif" font-size="14.00">C++</text>
</g>
<!-- clike&#45;&gt;Cpp -->
<g id="edge29" class="edge">
<title>clike&#45;&gt;Cpp</title>
<path fill="none" stroke="black" d="M1190.17,-77.24C1199.72,-75.34 1209.6,-73.5 1218.93,-72 1356.74,-49.81 1396.31,-72.93 1530.93,-36 1532.96,-35.44 1535.03,-34.79 1537.1,-34.07"/>
<polygon fill="black" stroke="black" points="1538.23,-36.99 1546.24,-30.06 1535.66,-30.48 1538.23,-36.99"/>
</g>
<!-- Csharp -->
<g id="node8" class="node">
<title>Csharp</title>
<ellipse fill="none" stroke="black" cx="1641.93" cy="-18" rx="27" ry="18"/>
<text text-anchor="middle" x="1641.93" y="-12.95" font-family="Times,serif" font-size="14.00">C#</text>
</g>
<!-- clike&#45;&gt;Csharp -->
<g id="edge28" class="edge">
<title>clike&#45;&gt;Csharp</title>
<path fill="none" stroke="black" d="M1189.7,-77.15C1199.39,-75.24 1209.44,-73.42 1218.93,-72 1389.77,-46.43 1439.3,-81.57 1605.93,-36 1607.71,-35.51 1609.52,-34.94 1611.33,-34.3"/>
<polygon fill="black" stroke="black" points="1612.52,-37.19 1620.46,-30.16 1609.88,-30.71 1612.52,-37.19"/>
</g>
<!-- C -->
<g id="node25" class="node">
<title>C</title>
<ellipse fill="none" stroke="black" cx="952.93" cy="-18" rx="27" ry="18"/>
<text text-anchor="middle" x="952.93" y="-12.95" font-family="Times,serif" font-size="14.00">C</text>
</g>
<!-- clike&#45;&gt;C -->
<g id="edge27" class="edge">
<title>clike&#45;&gt;C</title>
<path fill="none" stroke="black" d="M1094.41,-75C1064.6,-64.89 1023.98,-50.51 988.93,-36 987.26,-35.31 985.56,-34.58 983.84,-33.83"/>
<polygon fill="black" stroke="black" points="985.65,-30.36 975.09,-29.41 982.76,-36.73 985.65,-30.36"/>
</g>
<!-- Rust -->
<g id="node26" class="node">
<title>Rust</title>
<ellipse fill="none" stroke="black" cx="1025.93" cy="-18" rx="27.81" ry="18"/>
<text text-anchor="middle" x="1025.93" y="-12.95" font-family="Times,serif" font-size="14.00">Rust</text>
</g>
<!-- clike&#45;&gt;Rust -->
<g id="edge30" class="edge">
<title>clike&#45;&gt;Rust</title>
<path fill="none" stroke="black" d="M1111.18,-72.76C1094.21,-62.06 1071.98,-48.04 1054.47,-37"/>
<polygon fill="black" stroke="black" points="1056.62,-33.59 1046.29,-31.21 1052.88,-39.51 1056.62,-33.59"/>
</g>
<!-- Zig -->
<g id="node27" class="node">
<title>Zig</title>
<ellipse fill="none" stroke="black" cx="1098.93" cy="-18" rx="27" ry="18"/>
<text text-anchor="middle" x="1098.93" y="-12.95" font-family="Times,serif" font-size="14.00">Zig</text>
</g>
<!-- clike&#45;&gt;Zig -->
<g id="edge31" class="edge">
<title>clike&#45;&gt;Zig</title>
<path fill="none" stroke="black" d="M1127.53,-71.7C1123.13,-63.58 1117.78,-53.74 1112.91,-44.76"/>
<polygon fill="black" stroke="black" points="1115.54,-43.26 1107.69,-36.14 1109.39,-46.6 1115.54,-43.26"/>
</g>
<!-- Go -->
<g id="node28" class="node">
<title>Go</title>
<ellipse fill="none" stroke="black" cx="1170.93" cy="-18" rx="27" ry="18"/>
<text text-anchor="middle" x="1170.93" y="-12.95" font-family="Times,serif" font-size="14.00">Go</text>
</g>
<!-- clike&#45;&gt;Go -->
<g id="edge32" class="edge">
<title>clike&#45;&gt;Go</title>
<path fill="none" stroke="black" d="M1145.33,-71.7C1149.18,-63.78 1153.82,-54.23 1158.08,-45.44"/>
<polygon fill="black" stroke="black" points="1161.63,-47.15 1162.85,-36.62 1155.34,-44.09 1161.63,-47.15"/>
</g>
<!-- JavaScript -->
<g id="node29" class="node">
<title>JavaScript</title>
<ellipse fill="none" stroke="black" cx="1264.93" cy="-18" rx="49.3" ry="18"/>
<text text-anchor="middle" x="1264.93" y="-12.95" font-family="Times,serif" font-size="14.00">JavaScript</text>
</g>
<!-- clike&#45;&gt;JavaScript -->
<g id="edge33" class="edge">
<title>clike&#45;&gt;JavaScript</title>
<path fill="none" stroke="black" d="M1165.97,-73.12C1184.73,-62.85 1209.28,-49.43 1229.23,-38.52"/>
<polygon fill="black" stroke="black" points="1230.51,-41.26 1237.61,-33.39 1227.16,-35.12 1230.51,-41.26"/>
</g>
<!-- TypeScript -->
<g id="node30" class="node">
<title>TypeScript</title>
<ellipse fill="none" stroke="black" cx="1383.93" cy="-18" rx="51.35" ry="18"/>
<text text-anchor="middle" x="1383.93" y="-12.95" font-family="Times,serif" font-size="14.00">TypeScript</text>
</g>
<!-- clike&#45;&gt;TypeScript -->
<g id="edge34" class="edge">
<title>clike&#45;&gt;TypeScript</title>
<path fill="none" stroke="black" d="M1183.68,-75.75C1226.83,-63.52 1290.7,-45.42 1334.64,-32.97"/>
<polygon fill="black" stroke="black" points="1335.42,-36.1 1344.08,-30.01 1333.51,-29.37 1335.42,-36.1"/>
</g>
<!-- Kotlin -->
<g id="node31" class="node">
<title>Kotlin</title>
<ellipse fill="none" stroke="black" cx="1487.93" cy="-18" rx="34.46" ry="18"/>
<text text-anchor="middle" x="1487.93" y="-12.95" font-family="Times,serif" font-size="14.00">Kotlin</text>
</g>
<!-- clike&#45;&gt;Kotlin -->
<g id="edge35" class="edge">
<title>clike&#45;&gt;Kotlin</title>
<path fill="none" stroke="black" d="M1190.67,-77.49C1200.07,-75.58 1209.77,-73.68 1218.93,-72 1318.53,-53.72 1346.15,-62.39 1443.93,-36 1446.39,-35.33 1448.92,-34.58 1451.44,-33.76"/>
<polygon fill="black" stroke="black" points="1452.42,-36.78 1460.7,-30.16 1450.11,-30.17 1452.42,-36.78"/>
</g>
<!-- incomplete -->
<g id="node4" class="node">
<title>incomplete</title>
<ellipse fill="none" stroke="black" cx="312.93" cy="-244.99" rx="97.76" ry="28.99"/>
<text text-anchor="middle" x="312.93" y="-248.19" font-family="Times,serif" font-size="14.00">Turing Incomplete</text>
<text text-anchor="middle" x="312.93" y="-231.69" font-family="Times,serif" font-size="14.00">(finite time execution)</text>
</g>
<!-- incomplete&#45;&gt;conf -->
<g id="edge1" class="edge">
<title>incomplete&#45;&gt;conf</title>
<path fill="none" stroke="black" d="M287.87,-216.57C279.4,-207.3 269.99,-196.99 261.7,-187.92"/>
<polygon fill="black" stroke="black" points="264.79,-186.02 255.46,-181 259.62,-190.75 264.79,-186.02"/>
</g>
<!-- data -->
<g id="node9" class="node">
<title>data</title>
<ellipse fill="none" stroke="black" cx="93.93" cy="-162" rx="27" ry="18"/>
<text text-anchor="middle" x="93.93" y="-156.95" font-family="Times,serif" font-size="14.00">data</text>
</g>
<!-- incomplete&#45;&gt;data -->
<g id="edge2" class="edge">
<title>incomplete&#45;&gt;data</title>
<path fill="none" stroke="black" d="M247.94,-223.11C212.69,-211.33 168.55,-195.82 129.93,-180 128.26,-179.32 126.55,-178.59 124.84,-177.85"/>
<polygon fill="black" stroke="black" points="126.64,-174.37 116.08,-173.44 123.75,-180.75 126.64,-174.37"/>
</g>
<!-- build -->
<g id="node10" class="node">
<title>build</title>
<ellipse fill="none" stroke="black" cx="386.93" cy="-162" rx="29.86" ry="18"/>
<text text-anchor="middle" x="386.93" y="-156.95" font-family="Times,serif" font-size="14.00">build</text>
</g>
<!-- incomplete&#45;&gt;build -->
<g id="edge3" class="edge">
<title>incomplete&#45;&gt;build</title>
<path fill="none" stroke="black" d="M337.98,-216.57C347.06,-206.63 357.22,-195.52 365.91,-186"/>
<polygon fill="black" stroke="black" points="367.95,-188.86 372.12,-179.12 362.79,-184.14 367.95,-188.86"/>
</g>
<!-- complete -->
<g id="node5" class="node">
<title>complete</title>
<ellipse fill="none" stroke="black" cx="467.93" cy="-338.97" rx="113.14" ry="28.99"/>
<text text-anchor="middle" x="467.93" y="-342.17" font-family="Times,serif" font-size="14.00">Turing Complete</text>
<text text-anchor="middle" x="467.93" y="-325.67" font-family="Times,serif" font-size="14.00">(unknown time execution)</text>
</g>
<!-- complete&#45;&gt;incomplete -->
<g id="edge14" class="edge">
<title>complete&#45;&gt;incomplete</title>
<path fill="none" stroke="black" d="M423.92,-311.86C405.62,-301 384.24,-288.31 365.15,-276.98"/>
<polygon fill="black" stroke="black" points="367.09,-273.47 356.7,-271.38 363.51,-279.49 367.09,-273.47"/>
</g>
<!-- HighLevelLangs -->
<g id="node6" class="node">
<title>HighLevelLangs</title>
<ellipse fill="none" stroke="black" cx="813.93" cy="-244.99" rx="89.23" ry="18"/>
<text text-anchor="middle" x="813.93" y="-239.94" font-family="Times,serif" font-size="14.00">High level languages</text>
</g>
<!-- complete&#45;&gt;HighLevelLangs -->
<g id="edge13" class="edge">
<title>complete&#45;&gt;HighLevelLangs</title>
<path fill="none" stroke="black" d="M545.14,-317.45C607.11,-300.97 693.02,-278.13 750.89,-262.75"/>
<polygon fill="black" stroke="black" points="751.59,-265.92 760.36,-259.97 749.8,-259.15 751.59,-265.92"/>
</g>
<!-- functional -->
<g id="node17" class="node">
<title>functional</title>
<ellipse fill="none" stroke="black" cx="713.93" cy="-162" rx="48.28" ry="18"/>
<text text-anchor="middle" x="713.93" y="-156.95" font-family="Times,serif" font-size="14.00">functional</text>
</g>
<!-- HighLevelLangs&#45;&gt;functional -->
<g id="edge15" class="edge">
<title>HighLevelLangs&#45;&gt;functional</title>
<path fill="none" stroke="black" d="M793.21,-227.21C778.2,-215.06 757.77,-198.51 741.4,-185.25"/>
<polygon fill="black" stroke="black" points="744.24,-182.23 734.26,-178.66 739.83,-187.67 744.24,-182.23"/>
</g>
<!-- procedural -->
<g id="node18" class="node">
<title>procedural</title>
<ellipse fill="none" stroke="black" cx="914.93" cy="-162" rx="50.33" ry="18"/>
<text text-anchor="middle" x="914.93" y="-156.95" font-family="Times,serif" font-size="14.00">procedural</text>
</g>
<!-- HighLevelLangs&#45;&gt;procedural -->
<g id="edge16" class="edge">
<title>HighLevelLangs&#45;&gt;procedural</title>
<path fill="none" stroke="black" d="M834.85,-227.21C849.91,-215.14 870.38,-198.72 886.86,-185.51"/>
<polygon fill="black" stroke="black" points="888.44,-187.92 894.06,-178.93 884.07,-182.46 888.44,-187.92"/>
</g>
<!-- object oriented -->
<g id="node19" class="node">
<title>object oriented</title>
<ellipse fill="none" stroke="black" cx="1423.93" cy="-162" rx="66.19" ry="18"/>
<text text-anchor="middle" x="1423.93" y="-156.95" font-family="Times,serif" font-size="14.00">object oriented</text>
</g>
<!-- HighLevelLangs&#45;&gt;object oriented -->
<g id="edge17" class="edge">
<title>HighLevelLangs&#45;&gt;object oriented</title>
<path fill="none" stroke="black" d="M886.9,-234.3C1005.46,-218.56 1238.33,-187.64 1354.54,-172.21"/>
<polygon fill="black" stroke="black" points="1354.96,-175.55 1364.41,-170.77 1354.04,-168.62 1354.96,-175.55"/>
</g>
<!-- Fsharp -->
<g id="node7" class="node">
<title>Fsharp</title>
<ellipse fill="none" stroke="black" cx="713.93" cy="-90" rx="27" ry="18"/>
<text text-anchor="middle" x="713.93" y="-84.95" font-family="Times,serif" font-size="14.00">F#</text>
</g>
<!-- data&#45;&gt;JSON -->
<g id="edge4" class="edge">
<title>data&#45;&gt;JSON</title>
<path fill="none" stroke="black" d="M80.69,-145.81C72.81,-136.76 62.63,-125.08 53.69,-114.83"/>
<polygon fill="black" stroke="black" points="55.77,-112.88 46.56,-107.64 50.49,-117.48 55.77,-112.88"/>
</g>
<!-- data&#45;&gt;INI -->
<g id="edge5" class="edge">
<title>data&#45;&gt;INI</title>
<path fill="none" stroke="black" d="M98.04,-144.05C99.87,-136.52 102.08,-127.44 104.14,-118.94"/>
<polygon fill="black" stroke="black" points="107.77,-119.82 106.73,-109.28 100.97,-118.17 107.77,-119.82"/>
</g>
<!-- build&#45;&gt;Starlark -->
<g id="edge11" class="edge">
<title>build&#45;&gt;Starlark</title>
<path fill="none" stroke="black" d="M382.57,-144.05C380.61,-136.43 378.24,-127.23 376.04,-118.65"/>
<polygon fill="black" stroke="black" points="379.25,-118.09 373.37,-109.28 372.47,-119.83 379.25,-118.09"/>
</g>
<!-- Meson -->
<g id="node16" class="node">
<title>Meson</title>
<ellipse fill="none" stroke="black" cx="463.93" cy="-90" rx="36.51" ry="18"/>
<text text-anchor="middle" x="463.93" y="-84.95" font-family="Times,serif" font-size="14.00">Meson</text>
</g>
<!-- build&#45;&gt;Meson -->
<g id="edge12" class="edge">
<title>build&#45;&gt;Meson</title>
<path fill="none" stroke="black" d="M402.88,-146.5C413.4,-136.93 427.4,-124.21 439.33,-113.36"/>
<polygon fill="black" stroke="black" points="441.15,-116.53 446.19,-107.21 436.44,-111.35 441.15,-116.53"/>
</g>
<!-- functional&#45;&gt;Fsharp -->
<g id="edge46" class="edge">
<title>functional&#45;&gt;Fsharp</title>
<path fill="none" stroke="black" d="M713.93,-143.7C713.93,-136.24 713.93,-127.32 713.93,-118.97"/>
<polygon fill="black" stroke="black" points="717.43,-119.1 713.93,-109.1 710.43,-119.1 717.43,-119.1"/>
</g>
<!-- OCaml -->
<g id="node23" class="node">
<title>OCaml</title>
<ellipse fill="none" stroke="black" cx="796.93" cy="-90" rx="38.04" ry="18"/>
<text text-anchor="middle" x="796.93" y="-84.95" font-family="Times,serif" font-size="14.00">OCaml</text>
</g>
<!-- functional&#45;&gt;OCaml -->
<g id="edge47" class="edge">
<title>functional&#45;&gt;OCaml</title>
<path fill="none" stroke="black" d="M732.76,-145.12C744.03,-135.61 758.52,-123.39 770.87,-112.97"/>
<polygon fill="black" stroke="black" points="772.63,-115.22 778.02,-106.1 768.12,-109.87 772.63,-115.22"/>
</g>
<!-- Haskell -->
<g id="node38" class="node">
<title>Haskell</title>
<ellipse fill="none" stroke="black" cx="557.93" cy="-90" rx="39.07" ry="18"/>
<text text-anchor="middle" x="557.93" y="-84.95" font-family="Times,serif" font-size="14.00">Haskell</text>
</g>
<!-- functional&#45;&gt;Haskell -->
<g id="edge44" class="edge">
<title>functional&#45;&gt;Haskell</title>
<path fill="none" stroke="black" d="M683.85,-147.5C658.57,-136.16 622.32,-119.9 595.2,-107.73"/>
<polygon fill="black" stroke="black" points="596.86,-104.18 586.3,-103.28 593.99,-110.57 596.86,-104.18"/>
</g>
<!-- Lisp -->
<g id="node39" class="node">
<title>Lisp</title>
<ellipse fill="none" stroke="black" cx="641.93" cy="-90" rx="27.3" ry="18"/>
<text text-anchor="middle" x="641.93" y="-84.95" font-family="Times,serif" font-size="14.00">Lisp</text>
</g>
<!-- functional&#45;&gt;Lisp -->
<g id="edge45" class="edge">
<title>functional&#45;&gt;Lisp</title>
<path fill="none" stroke="black" d="M697.23,-144.76C687.43,-135.24 674.92,-123.08 664.28,-112.73"/>
<polygon fill="black" stroke="black" points="667.19,-110.71 657.58,-106.25 662.31,-115.73 667.19,-110.71"/>
</g>
<!-- procedural&#45;&gt;clike -->
<g id="edge19" class="edge">
<title>procedural&#45;&gt;clike</title>
<path fill="none" stroke="black" d="M951.83,-149.36C987.56,-138.1 1042.14,-120.89 1082.78,-108.07"/>
<polygon fill="black" stroke="black" points="1083.57,-111.18 1092.06,-104.83 1081.47,-104.5 1083.57,-111.18"/>
</g>
<!-- procedural&#45;&gt;Fsharp -->
<g id="edge20" class="edge">
<title>procedural&#45;&gt;Fsharp</title>
<path fill="none" stroke="black" d="M876.09,-150.08C842.33,-140.23 792.32,-124.74 749.93,-108 748.25,-107.34 746.54,-106.63 744.82,-105.9"/>
<polygon fill="black" stroke="black" points="746.6,-102.42 736.04,-101.53 743.75,-108.81 746.6,-102.42"/>
</g>
<!-- procedural&#45;&gt;Starlark -->
<g id="edge37" class="edge">
<title>procedural&#45;&gt;Starlark</title>
<path fill="none" stroke="black" d="M867.93,-155.26C839.8,-151.87 803.33,-147.56 770.93,-144 614.17,-126.75 571.9,-142.07 417.93,-108 414.96,-107.34 411.92,-106.56 408.89,-105.71"/>
<polygon fill="black" stroke="black" points="410.26,-102.16 399.67,-102.55 408.19,-108.85 410.26,-102.16"/>
</g>
<!-- Fortran -->
<g id="node20" class="node">
<title>Fortran</title>
<ellipse fill="none" stroke="black" cx="1265.93" cy="-90" rx="38.04" ry="18"/>
<text text-anchor="middle" x="1265.93" y="-84.95" font-family="Times,serif" font-size="14.00">Fortran</text>
</g>
<!-- procedural&#45;&gt;Fortran -->
<g id="edge18" class="edge">
<title>procedural&#45;&gt;Fortran</title>
<path fill="none" stroke="black" d="M962.09,-155.37C1022.32,-147.6 1129.48,-131.78 1218.93,-108 1221.57,-107.3 1224.27,-106.51 1226.98,-105.67"/>
<polygon fill="black" stroke="black" points="1227.96,-108.7 1236.35,-102.23 1225.75,-102.06 1227.96,-108.7"/>
</g>
<!-- Python -->
<g id="node22" class="node">
<title>Python</title>
<ellipse fill="none" stroke="black" cx="1358.93" cy="-90" rx="37.02" ry="18"/>
<text text-anchor="middle" x="1358.93" y="-84.95" font-family="Times,serif" font-size="14.00">Python</text>
</g>
<!-- procedural&#45;&gt;Python -->
<g id="edge36" class="edge">
<title>procedural&#45;&gt;Python</title>
<path fill="none" stroke="black" d="M964.29,-157.96C1040.17,-152.49 1189.62,-138.59 1312.93,-108 1315.6,-107.34 1318.34,-106.57 1321.07,-105.73"/>
<polygon fill="black" stroke="black" points="1322.12,-108.74 1330.51,-102.26 1319.91,-102.1 1322.12,-108.74"/>
</g>
<!-- commandline -->
<g id="node32" class="node">
<title>commandline</title>
<ellipse fill="none" stroke="black" cx="914.93" cy="-90" rx="62.1" ry="18"/>
<text text-anchor="middle" x="914.93" y="-84.95" font-family="Times,serif" font-size="14.00">commandline</text>
</g>
<!-- procedural&#45;&gt;commandline -->
<g id="edge38" class="edge">
<title>procedural&#45;&gt;commandline</title>
<path fill="none" stroke="black" d="M914.93,-143.7C914.93,-136.24 914.93,-127.32 914.93,-118.97"/>
<polygon fill="black" stroke="black" points="918.43,-119.1 914.93,-109.1 911.43,-119.1 918.43,-119.1"/>
</g>
<!-- object oriented&#45;&gt;Cpp -->
<g id="edge23" class="edge">
<title>object oriented&#45;&gt;Cpp</title>
<path fill="none" stroke="black" d="M1424.28,-143.54C1425.57,-123.94 1430.46,-92.22 1447.93,-72 1474.21,-41.57 1494.13,-52.21 1530.93,-36 1532.81,-35.17 1534.75,-34.31 1536.7,-33.45"/>
<polygon fill="black" stroke="black" points="1537.73,-36.38 1545.44,-29.11 1534.88,-29.98 1537.73,-36.38"/>
</g>
<!-- object oriented&#45;&gt;Csharp -->
<g id="edge24" class="edge">
<title>object oriented&#45;&gt;Csharp</title>
<path fill="none" stroke="black" d="M1430.44,-143.93C1438.99,-123.78 1455.92,-90.65 1480.93,-72 1527.27,-37.44 1551.83,-56.41 1605.93,-36 1607.62,-35.36 1609.34,-34.68 1611.06,-33.96"/>
<polygon fill="black" stroke="black" points="1612.11,-36.88 1619.85,-29.64 1609.29,-30.48 1612.11,-36.88"/>
</g>
<!-- Java -->
<g id="node21" class="node">
<title>Java</title>
<ellipse fill="none" stroke="black" cx="1516.93" cy="-90" rx="27.3" ry="18"/>
<text text-anchor="middle" x="1516.93" y="-84.95" font-family="Times,serif" font-size="14.00">Java</text>
</g>
<!-- object oriented&#45;&gt;Java -->
<g id="edge21" class="edge">
<title>object oriented&#45;&gt;Java</title>
<path fill="none" stroke="black" d="M1445.5,-144.76C1459.09,-134.53 1476.73,-121.26 1491.07,-110.46"/>
<polygon fill="black" stroke="black" points="1492.63,-112.92 1498.52,-104.1 1488.42,-107.32 1492.63,-112.92"/>
</g>
<!-- object oriented&#45;&gt;Python -->
<g id="edge22" class="edge">
<title>object oriented&#45;&gt;Python</title>
<path fill="none" stroke="black" d="M1408.19,-144.05C1400.05,-135.29 1389.99,-124.45 1381.08,-114.86"/>
<polygon fill="black" stroke="black" points="1383.99,-112.78 1374.63,-107.83 1378.86,-117.54 1383.99,-112.78"/>
</g>
<!-- object oriented&#45;&gt;OCaml -->
<g id="edge25" class="edge">
<title>object oriented&#45;&gt;OCaml</title>
<path fill="none" stroke="black" d="M1357.85,-160.43C1249.3,-158.28 1027.01,-148.77 843.93,-108 841.09,-107.37 838.18,-106.61 835.28,-105.77"/>
<polygon fill="black" stroke="black" points="836.5,-102.16 825.91,-102.44 834.37,-108.83 836.5,-102.16"/>
</g>
<!-- erlang -->
<g id="node24" class="node">
<title>erlang</title>
<ellipse fill="none" stroke="black" cx="1595.93" cy="-90" rx="33.95" ry="18"/>
<text text-anchor="middle" x="1595.93" y="-84.95" font-family="Times,serif" font-size="14.00">erlang</text>
</g>
<!-- object oriented&#45;&gt;erlang -->
<g id="edge26" class="edge">
<title>object oriented&#45;&gt;erlang</title>
<path fill="none" stroke="black" d="M1459.56,-146.5C1488.88,-134.57 1530.24,-117.73 1559.71,-105.74"/>
<polygon fill="black" stroke="black" points="1560.65,-108.73 1568.59,-101.72 1558.01,-102.24 1560.65,-108.73"/>
</g>
<!-- sh -->
<g id="node33" class="node">
<title>sh</title>
<ellipse fill="none" stroke="black" cx="662.93" cy="-18" rx="27" ry="18"/>
<text text-anchor="middle" x="662.93" y="-12.95" font-family="Times,serif" font-size="14.00">sh</text>
</g>
<!-- commandline&#45;&gt;sh -->
<g id="edge39" class="edge">
<title>commandline&#45;&gt;sh</title>
<path fill="none" stroke="black" d="M868.21,-77.79C807.15,-63.1 706.98,-38.86 698.93,-36 697.22,-35.4 695.5,-34.74 693.76,-34.04"/>
<polygon fill="black" stroke="black" points="695.52,-30.56 684.95,-29.79 692.73,-36.98 695.52,-30.56"/>
</g>
<!-- zsh -->
<g id="node34" class="node">
<title>zsh</title>
<ellipse fill="none" stroke="black" cx="734.93" cy="-18" rx="27" ry="18"/>
<text text-anchor="middle" x="734.93" y="-12.95" font-family="Times,serif" font-size="14.00">zsh</text>
</g>
<!-- commandline&#45;&gt;zsh -->
<g id="edge40" class="edge">
<title>commandline&#45;&gt;zsh</title>
<path fill="none" stroke="black" d="M875.75,-75.64C846.59,-65.43 805.94,-50.68 770.93,-36 769.26,-35.3 767.56,-34.57 765.85,-33.82"/>
<polygon fill="black" stroke="black" points="767.66,-30.34 757.11,-29.38 764.76,-36.71 767.66,-30.34"/>
</g>
<!-- fsh -->
<g id="node35" class="node">
<title>fsh</title>
<ellipse fill="none" stroke="black" cx="806.93" cy="-18" rx="27" ry="18"/>
<text text-anchor="middle" x="806.93" y="-12.95" font-family="Times,serif" font-size="14.00">fsh</text>
</g>
<!-- commandline&#45;&gt;fsh -->
<g id="edge41" class="edge">
<title>commandline&#45;&gt;fsh</title>
<path fill="none" stroke="black" d="M890.42,-73.12C873.93,-62.43 852.15,-48.31 834.97,-37.18"/>
<polygon fill="black" stroke="black" points="837.26,-33.84 826.96,-31.34 833.45,-39.71 837.26,-33.84"/>
</g>
<!-- bash -->
<g id="node36" class="node">
<title>bash</title>
<ellipse fill="none" stroke="black" cx="879.93" cy="-18" rx="27.81" ry="18"/>
<text text-anchor="middle" x="879.93" y="-12.95" font-family="Times,serif" font-size="14.00">bash</text>
</g>
<!-- commandline&#45;&gt;bash -->
<g id="edge42" class="edge">
<title>commandline&#45;&gt;bash</title>
<path fill="none" stroke="black" d="M906.27,-71.7C902.32,-63.78 897.54,-54.23 893.15,-45.44"/>
<polygon fill="black" stroke="black" points="895.84,-44 888.24,-36.62 889.58,-47.13 895.84,-44"/>
</g>
<!-- perl -->
<g id="node37" class="node">
<title>perl</title>
<ellipse fill="none" stroke="black" cx="590.93" cy="-18" rx="27" ry="18"/>
<text text-anchor="middle" x="590.93" y="-12.95" font-family="Times,serif" font-size="14.00">perl</text>
</g>
<!-- commandline&#45;&gt;perl -->
<g id="edge43" class="edge">
<title>commandline&#45;&gt;perl</title>
<path fill="none" stroke="black" d="M869.2,-77.55C860.82,-75.59 852.13,-73.66 843.93,-72 748.11,-52.61 720.24,-65.15 626.93,-36 625.16,-35.45 623.36,-34.82 621.57,-34.15"/>
<polygon fill="black" stroke="black" points="623.05,-30.55 612.47,-29.9 620.33,-37 623.05,-30.55"/>
</g>
</g>
</svg>
