<?xml version="1.0" encoding="UTF-8" standalone="no"?>
<!DOCTYPE svg PUBLIC "-//W3C//DTD SVG 1.1//EN"
 "http://www.w3.org/Graphics/SVG/1.1/DTD/svg11.dtd">
<!-- Generated by graphviz version 8.1.0 (20230707.0739)
 -->
<!-- Pages: 1 -->
<svg width="1515pt" height="898pt"
 viewBox="0.00 0.00 1515.12 898.00" xmlns="http://www.w3.org/2000/svg" xmlns:xlink="http://www.w3.org/1999/xlink">
<g id="graph0" class="graph" transform="scale(1 1) rotate(0) translate(4 894)">
<polygon fill="white" stroke="none" points="-4,4 -4,-894 1511.12,-894 1511.12,4 -4,4"/>
<!-- MC -->
<g id="node1" class="node">
<title>MC</title>
<ellipse fill="none" stroke="black" cx="1078.54" cy="-432" rx="65.68" ry="18"/>
<text text-anchor="middle" x="1078.54" y="-426.95" font-family="Times,serif" font-size="14.00">Machine Code</text>
</g>
<!-- Runtime -->
<g id="node7" class="node">
<title>Runtime</title>
<ellipse fill="none" stroke="black" cx="1463.96" cy="-315" rx="43.16" ry="18"/>
<text text-anchor="middle" x="1463.96" y="-309.95" font-family="Times,serif" font-size="14.00">Runtime</text>
</g>
<!-- MC&#45;&gt;Runtime -->
<g id="edge8" class="edge">
<title>MC&#45;&gt;Runtime</title>
<path fill="none" stroke="black" d="M1137.08,-440.56C1205.36,-447.74 1320.33,-450.23 1402.8,-402 1425.61,-388.66 1441.79,-362.82 1451.58,-342.76"/>
<polygon fill="black" stroke="black" points="1455.12,-344.43 1456.12,-333.89 1448.76,-341.51 1455.12,-344.43"/>
</g>
<!-- Fsharp -->
<g id="node2" class="node">
<title>Fsharp</title>
<ellipse fill="none" stroke="black" cx="629.52" cy="-294" rx="27" ry="18"/>
<text text-anchor="middle" x="629.52" y="-288.95" font-family="Times,serif" font-size="14.00">F#</text>
</g>
<!-- dotNET -->
<g id="node5" class="node">
<title>dotNET</title>
<ellipse fill="none" stroke="black" cx="853.35" cy="-294" rx="80.01" ry="18"/>
<text text-anchor="middle" x="853.35" y="-288.95" font-family="Times,serif" font-size="14.00">.NET (MSIL/CIL)</text>
</g>
<!-- Fsharp&#45;&gt;dotNET -->
<g id="edge13" class="edge">
<title>Fsharp&#45;&gt;dotNET</title>
<path fill="none" stroke="black" d="M656.84,-294C682.96,-294 724.49,-294 762.57,-294"/>
<polygon fill="black" stroke="black" points="762.21,-297.5 772.21,-294 762.21,-290.5 762.21,-297.5"/>
<text text-anchor="middle" x="715.59" y="-297.2" font-family="Times,serif" font-size="14.00">fsc</text>
</g>
<!-- Cpp -->
<g id="node3" class="node">
<title>Cpp</title>
<ellipse fill="none" stroke="black" cx="629.52" cy="-450" rx="28.32" ry="18"/>
<text text-anchor="middle" x="629.52" y="-444.95" font-family="Times,serif" font-size="14.00">C++</text>
</g>
<!-- Cpp&#45;&gt;MC -->
<g id="edge15" class="edge">
<title>Cpp&#45;&gt;MC</title>
<path fill="none" stroke="black" d="M657.82,-447.4C663.76,-446.89 670.01,-446.39 675.84,-446 719.12,-443.09 729.99,-443.18 773.34,-441.5 851.29,-438.48 940.51,-435.79 1002.07,-434.04"/>
<polygon fill="black" stroke="black" points="1001.95,-437.52 1011.85,-433.74 1001.76,-430.52 1001.95,-437.52"/>
<text text-anchor="middle" x="853.35" y="-444.2" font-family="Times,serif" font-size="14.00">g++</text>
</g>
<!-- LLVMIR -->
<g id="node9" class="node">
<title>LLVMIR</title>
<ellipse fill="none" stroke="black" cx="853.35" cy="-593" rx="46.23" ry="18"/>
<text text-anchor="middle" x="853.35" y="-587.95" font-family="Times,serif" font-size="14.00">LLVMIR</text>
</g>
<!-- Cpp&#45;&gt;LLVMIR -->
<g id="edge22" class="edge">
<title>Cpp&#45;&gt;LLVMIR</title>
<path fill="none" stroke="black" d="M657.24,-445.28C685.46,-441.95 729.39,-441.76 755.34,-466.5 787.86,-497.51 744.04,-531.93 773.34,-566 780.14,-573.91 789.37,-579.51 799.12,-583.47"/>
<polygon fill="black" stroke="black" points="797.79,-587.06 808.38,-587.03 800.08,-580.45 797.79,-587.06"/>
<text text-anchor="middle" x="715.59" y="-469.2" font-family="Times,serif" font-size="14.00">clang</text>
</g>
<!-- Csharp -->
<g id="node4" class="node">
<title>Csharp</title>
<ellipse fill="none" stroke="black" cx="629.52" cy="-240" rx="27" ry="18"/>
<text text-anchor="middle" x="629.52" y="-234.95" font-family="Times,serif" font-size="14.00">C#</text>
</g>
<!-- Csharp&#45;&gt;dotNET -->
<g id="edge12" class="edge">
<title>Csharp&#45;&gt;dotNET</title>
<path fill="none" stroke="black" d="M655.1,-245.99C686.75,-253.69 742.92,-267.36 787.25,-278.15"/>
<polygon fill="black" stroke="black" points="786.12,-281.72 796.67,-280.69 787.78,-274.92 786.12,-281.72"/>
<text text-anchor="middle" x="715.59" y="-274.2" font-family="Times,serif" font-size="14.00">visual studio!?</text>
</g>
<!-- dotNET&#45;&gt;MC -->
<g id="edge4" class="edge">
<title>dotNET&#45;&gt;MC</title>
<path fill="none" stroke="black" d="M925.63,-301.92C949.18,-307.07 974.54,-315.54 994.86,-329.5 1006.3,-337.35 1004.39,-344.01 1012.86,-355 1026.32,-372.45 1042.23,-391.42 1054.9,-406.16"/>
<polygon fill="black" stroke="black" points="1052.76,-408.03 1061.95,-413.3 1058.06,-403.45 1052.76,-408.03"/>
<text text-anchor="middle" x="973.11" y="-333.2" font-family="Times,serif" font-size="14.00">coreRT</text>
</g>
<!-- dotNET&#45;&gt;Runtime -->
<g id="edge3" class="edge">
<title>dotNET&#45;&gt;Runtime</title>
<path fill="none" stroke="black" d="M929.37,-300.05C950.63,-302.29 973.73,-305.23 994.86,-309 1148.7,-336.41 1186.62,-391.17 1341.3,-369 1369.49,-364.96 1376.7,-362.4 1402.8,-351 1412.3,-346.85 1422.14,-341.47 1431.04,-336.15"/>
<polygon fill="black" stroke="black" points="1432.6,-338.68 1439.27,-330.45 1428.92,-332.73 1432.6,-338.68"/>
<text text-anchor="middle" x="1188.85" y="-372.2" font-family="Times,serif" font-size="14.00">CLR</text>
</g>
<!-- Browser IR -->
<g id="node6" class="node">
<title>Browser IR</title>
<ellipse fill="none" stroke="black" cx="1287.39" cy="-677" rx="53.91" ry="18"/>
<text text-anchor="middle" x="1287.39" y="-671.95" font-family="Times,serif" font-size="14.00">Browser IR</text>
</g>
<!-- Browser IR&#45;&gt;Runtime -->
<g id="edge1" class="edge">
<title>Browser IR&#45;&gt;Runtime</title>
<path fill="none" stroke="black" d="M1335.7,-668.61C1359.25,-662.01 1386.16,-650.37 1402.8,-630 1438.59,-586.18 1455.47,-413.39 1460.91,-344.04"/>
<polygon fill="black" stroke="black" points="1464.47,-344.32 1461.74,-334.08 1457.49,-343.79 1464.47,-344.32"/>
</g>
<!-- JVM -->
<g id="node8" class="node">
<title>JVM</title>
<ellipse fill="none" stroke="black" cx="361.39" cy="-775" rx="29.86" ry="18"/>
<text text-anchor="middle" x="361.39" y="-769.95" font-family="Times,serif" font-size="14.00">JVM</text>
</g>
<!-- JVM&#45;&gt;Runtime -->
<g id="edge2" class="edge">
<title>JVM&#45;&gt;Runtime</title>
<path fill="none" stroke="black" d="M391.58,-773.2C422.78,-771.43 473.72,-769 517.7,-769 517.7,-769 517.7,-769 1288.39,-769 1358.93,-769 1369.66,-721.27 1402.8,-659 1458.99,-553.41 1464.31,-406.27 1463.79,-344.32"/>
<polygon fill="black" stroke="black" points="1467.27,-344.39 1463.62,-334.44 1460.27,-344.49 1467.27,-344.39"/>
</g>
<!-- LLVMIR&#45;&gt;MC -->
<g id="edge6" class="edge">
<title>LLVMIR&#45;&gt;MC</title>
<path fill="none" stroke="black" d="M898.98,-589.47C928.47,-585.27 966.74,-576.08 994.86,-556 1029,-531.63 1053.05,-488.41 1066.11,-459.98"/>
<polygon fill="black" stroke="black" points="1069.57,-461.79 1070.42,-451.23 1063.17,-458.96 1069.57,-461.79"/>
<text text-anchor="middle" x="973.11" y="-579.2" font-family="Times,serif" font-size="14.00">llvm</text>
</g>
<!-- LLVMIR&#45;&gt;Runtime -->
<g id="edge5" class="edge">
<title>LLVMIR&#45;&gt;Runtime</title>
<path fill="none" stroke="black" d="M897.21,-599.21C925.26,-602.06 962.57,-603.53 994.86,-597 1187.72,-558 1256.79,-556.9 1402.8,-425 1427.56,-402.63 1444.24,-367.6 1453.64,-343.1"/>
<polygon fill="black" stroke="black" points="1457.19,-344.58 1457.33,-333.99 1450.61,-342.18 1457.19,-344.58"/>
<text text-anchor="middle" x="1188.85" y="-564.2" font-family="Times,serif" font-size="14.00">llvm jit</text>
</g>
<!-- WASM -->
<g id="node10" class="node">
<title>WASM</title>
<ellipse fill="none" stroke="black" cx="1078.54" cy="-677" rx="39.58" ry="18"/>
<text text-anchor="middle" x="1078.54" y="-671.95" font-family="Times,serif" font-size="14.00">WASM</text>
</g>
<!-- LLVMIR&#45;&gt;WASM -->
<g id="edge7" class="edge">
<title>LLVMIR&#45;&gt;WASM</title>
<path fill="none" stroke="black" d="M887.11,-605.57C905.9,-612.76 929.94,-621.93 951.36,-630 979.88,-640.75 1012.08,-652.74 1036.81,-661.92"/>
<polygon fill="black" stroke="black" points="1035.33,-665.47 1045.92,-665.67 1037.76,-658.91 1035.33,-665.47"/>
<text text-anchor="middle" x="973.11" y="-648.2" font-family="Times,serif" font-size="14.00">llvm</text>
</g>
<!-- WASM&#45;&gt;Browser IR -->
<g id="edge33" class="edge">
<title>WASM&#45;&gt;Browser IR</title>
<path fill="none" stroke="black" d="M1118.45,-677C1147.7,-677 1188.42,-677 1222.43,-677"/>
<polygon fill="black" stroke="black" points="1222.21,-680.5 1232.21,-677 1222.21,-673.5 1222.21,-680.5"/>
<text text-anchor="middle" x="1188.85" y="-680.2" font-family="Times,serif" font-size="14.00">v8 and co</text>
</g>
<!-- Java -->
<g id="node11" class="node">
<title>Java</title>
<ellipse fill="none" stroke="black" cx="184.99" cy="-818" rx="27.3" ry="18"/>
<text text-anchor="middle" x="184.99" y="-812.95" font-family="Times,serif" font-size="14.00">Java</text>
</g>
<!-- Java&#45;&gt;JVM -->
<g id="edge9" class="edge">
<title>Java&#45;&gt;JVM</title>
<path fill="none" stroke="black" d="M210.92,-812.12C232.84,-806.91 265.61,-799.07 294.09,-792 303.56,-789.65 313.77,-787.06 323.28,-784.62"/>
<polygon fill="black" stroke="black" points="323.83,-787.84 332.64,-781.96 322.08,-781.06 323.83,-787.84"/>
<text text-anchor="middle" x="274.21" y="-804.2" font-family="Times,serif" font-size="14.00">javac</text>
</g>
<!-- Kotlin -->
<g id="node12" class="node">
<title>Kotlin</title>
<ellipse fill="none" stroke="black" cx="184.99" cy="-691" rx="34.46" ry="18"/>
<text text-anchor="middle" x="184.99" y="-685.95" font-family="Times,serif" font-size="14.00">Kotlin</text>
</g>
<!-- Kotlin&#45;&gt;JVM -->
<g id="edge10" class="edge">
<title>Kotlin&#45;&gt;JVM</title>
<path fill="none" stroke="black" d="M216.53,-698.55C238.85,-704.79 269.42,-714.83 294.09,-728.5 303.07,-733.48 303.8,-736.93 312.09,-743 318.09,-747.39 324.65,-751.91 330.95,-756.12"/>
<polygon fill="black" stroke="black" points="328.62,-759.44 338.89,-762.02 332.47,-753.6 328.62,-759.44"/>
<text text-anchor="middle" x="274.21" y="-731.2" font-family="Times,serif" font-size="14.00">kotlinc</text>
</g>
<!-- Kotlin&#45;&gt;LLVMIR -->
<g id="edge18" class="edge">
<title>Kotlin&#45;&gt;LLVMIR</title>
<path fill="none" stroke="black" d="M215.29,-681.98C249.69,-672.21 308.62,-658 360.39,-658 360.39,-658 360.39,-658 630.52,-658 697.02,-658 770.38,-630.76 813.85,-611.55"/>
<polygon fill="black" stroke="black" points="815.04,-614.41 822.71,-607.1 812.16,-608.03 815.04,-614.41"/>
<text text-anchor="middle" x="518.7" y="-661.2" font-family="Times,serif" font-size="14.00">kotlinc</text>
</g>
<!-- JavaScript -->
<g id="node22" class="node">
<title>JavaScript</title>
<ellipse fill="none" stroke="black" cx="361.39" cy="-716" rx="49.3" ry="18"/>
<text text-anchor="middle" x="361.39" y="-710.95" font-family="Times,serif" font-size="14.00">JavaScript</text>
</g>
<!-- Kotlin&#45;&gt;JavaScript -->
<g id="edge32" class="edge">
<title>Kotlin&#45;&gt;JavaScript</title>
<path fill="none" stroke="black" d="M219.37,-688.68C240.87,-687.86 269.33,-688.07 294.09,-692.5 301.94,-693.91 310.1,-696.12 317.9,-698.65"/>
<polygon fill="black" stroke="black" points="316.66,-702.27 327.26,-702.23 318.95,-695.65 316.66,-702.27"/>
<text text-anchor="middle" x="274.21" y="-695.2" font-family="Times,serif" font-size="14.00">kotlinc</text>
</g>
<!-- OcaML -->
<g id="node13" class="node">
<title>OcaML</title>
<ellipse fill="none" stroke="black" cx="184.99" cy="-872" rx="40.09" ry="18"/>
<text text-anchor="middle" x="184.99" y="-866.95" font-family="Times,serif" font-size="14.00">OcaML</text>
</g>
<!-- OcaML&#45;&gt;JVM -->
<g id="edge11" class="edge">
<title>OcaML&#45;&gt;JVM</title>
<path fill="none" stroke="black" d="M215.62,-860.04C237.77,-850.68 268.5,-836.82 294.09,-822 307.71,-814.11 322.05,-804.17 333.9,-795.47"/>
<polygon fill="black" stroke="black" points="335.5,-797.89 341.42,-789.11 331.31,-792.29 335.5,-797.89"/>
<text text-anchor="middle" x="274.21" y="-844.2" font-family="Times,serif" font-size="14.00">ocamlc</text>
</g>
<!-- C -->
<g id="node14" class="node">
<title>C</title>
<ellipse fill="none" stroke="black" cx="518.7" cy="-563" rx="27" ry="18"/>
<text text-anchor="middle" x="518.7" y="-557.95" font-family="Times,serif" font-size="14.00">C</text>
</g>
<!-- C&#45;&gt;MC -->
<g id="edge14" class="edge">
<title>C&#45;&gt;MC</title>
<path fill="none" stroke="black" d="M540.99,-552.3C555.17,-544.04 573.02,-531.29 583.2,-515 605.27,-479.66 569.3,-449.8 601.2,-423 724.8,-319.14 936.83,-378.88 1030.59,-413.13"/>
<polygon fill="black" stroke="black" points="1029.04,-416.66 1039.63,-416.87 1031.48,-410.1 1029.04,-416.66"/>
<text text-anchor="middle" x="715.59" y="-384.2" font-family="Times,serif" font-size="14.00">gcc</text>
</g>
<!-- Zig -->
<g id="node17" class="node">
<title>Zig</title>
<ellipse fill="none" stroke="black" cx="629.52" cy="-609" rx="27" ry="18"/>
<text text-anchor="middle" x="629.52" y="-603.95" font-family="Times,serif" font-size="14.00">Zig</text>
</g>
<!-- C&#45;&gt;Zig -->
<g id="edge19" class="edge">
<title>C&#45;&gt;Zig</title>
<path fill="none" stroke="black" d="M542.24,-572.53C557.86,-579.13 578.87,-588.01 596.25,-595.36"/>
<polygon fill="black" stroke="black" points="594.42,-598.81 605,-599.48 597.15,-592.36 594.42,-598.81"/>
<text text-anchor="middle" x="573.45" y="-591.2" font-family="Times,serif" font-size="14.00">zig</text>
</g>
<!-- Go -->
<g id="node15" class="node">
<title>Go</title>
<ellipse fill="none" stroke="black" cx="853.35" cy="-485" rx="27" ry="18"/>
<text text-anchor="middle" x="853.35" y="-479.95" font-family="Times,serif" font-size="14.00">Go</text>
</g>
<!-- Go&#45;&gt;MC -->
<g id="edge16" class="edge">
<title>Go&#45;&gt;MC</title>
<path fill="none" stroke="black" d="M879.09,-479.13C912.19,-471.27 971.96,-457.07 1017.29,-446.31"/>
<polygon fill="black" stroke="black" points="1017.97,-449.51 1026.89,-443.79 1016.35,-442.7 1017.97,-449.51"/>
<text text-anchor="middle" x="973.11" y="-464.2" font-family="Times,serif" font-size="14.00">goc</text>
</g>
<!-- Fortran -->
<g id="node16" class="node">
<title>Fortran</title>
<ellipse fill="none" stroke="black" cx="853.35" cy="-539" rx="38.04" ry="18"/>
<text text-anchor="middle" x="853.35" y="-533.95" font-family="Times,serif" font-size="14.00">Fortran</text>
</g>
<!-- Fortran&#45;&gt;MC -->
<g id="edge17" class="edge">
<title>Fortran&#45;&gt;MC</title>
<path fill="none" stroke="black" d="M885.83,-529.24C900.44,-524.46 917.95,-518.36 933.36,-512 972.23,-495.95 1013.97,-471.98 1042.48,-454.46"/>
<polygon fill="black" stroke="black" points="1043.97,-457.04 1050.62,-448.79 1040.28,-451.09 1043.97,-457.04"/>
<text text-anchor="middle" x="973.11" y="-538.2" font-family="Times,serif" font-size="14.00">gfortran</text>
<text text-anchor="middle" x="973.11" y="-521.7" font-family="Times,serif" font-size="14.00">ifort</text>
<text text-anchor="middle" x="973.11" y="-505.2" font-family="Times,serif" font-size="14.00">pgf77</text>
</g>
<!-- Zig&#45;&gt;MC -->
<g id="edge20" class="edge">
<title>Zig&#45;&gt;MC</title>
<path fill="none" stroke="black" d="M653.81,-617.17C717.62,-637.92 896.95,-684.99 994.86,-597 1036.22,-559.83 1059.5,-497.23 1070.21,-460.76"/>
<polygon fill="black" stroke="black" points="1073.8,-461.91 1073.13,-451.33 1067.06,-460.02 1073.8,-461.91"/>
<text text-anchor="middle" x="853.35" y="-651.2" font-family="Times,serif" font-size="14.00">zig</text>
</g>
<!-- Zig&#45;&gt;LLVMIR -->
<g id="edge21" class="edge">
<title>Zig&#45;&gt;LLVMIR</title>
<path fill="none" stroke="black" d="M655.88,-604.96C662.37,-604.03 669.35,-603.14 675.84,-602.5 715.94,-598.55 761.33,-596.16 796.04,-594.76"/>
<polygon fill="black" stroke="black" points="796.06,-598.22 805.92,-594.34 795.79,-591.23 796.06,-598.22"/>
<text text-anchor="middle" x="715.59" y="-605.2" font-family="Times,serif" font-size="14.00">zig</text>
</g>
<!-- Rust -->
<g id="node18" class="node">
<title>Rust</title>
<ellipse fill="none" stroke="black" cx="629.52" cy="-555" rx="27.81" ry="18"/>
<text text-anchor="middle" x="629.52" y="-549.95" font-family="Times,serif" font-size="14.00">Rust</text>
</g>
<!-- Rust&#45;&gt;LLVMIR -->
<g id="edge23" class="edge">
<title>Rust&#45;&gt;LLVMIR</title>
<path fill="none" stroke="black" d="M656.84,-559.2C682.11,-563.26 721.36,-569.65 755.34,-575.5 769.85,-578 785.57,-580.8 800.05,-583.41"/>
<polygon fill="black" stroke="black" points="799.37,-587.02 809.83,-585.36 800.62,-580.14 799.37,-587.02"/>
<text text-anchor="middle" x="715.59" y="-578.2" font-family="Times,serif" font-size="14.00">rustc</text>
</g>
<!-- Haskell -->
<g id="node19" class="node">
<title>Haskell</title>
<ellipse fill="none" stroke="black" cx="39.07" cy="-497" rx="39.07" ry="18"/>
<text text-anchor="middle" x="39.07" y="-491.95" font-family="Times,serif" font-size="14.00">Haskell</text>
</g>
<!-- STG -->
<g id="node20" class="node">
<title>STG</title>
<ellipse fill="none" stroke="black" cx="184.99" cy="-497" rx="28.32" ry="18"/>
<text text-anchor="middle" x="184.99" y="-491.95" font-family="Times,serif" font-size="14.00">STG</text>
</g>
<!-- Haskell&#45;&gt;STG -->
<g id="edge24" class="edge">
<title>Haskell&#45;&gt;STG</title>
<path fill="none" stroke="black" d="M78.64,-497C99.29,-497 124.66,-497 145.33,-497"/>
<polygon fill="black" stroke="black" points="145.27,-500.5 155.27,-497 145.27,-493.5 145.27,-500.5"/>
<text text-anchor="middle" x="105.89" y="-500.2" font-family="Times,serif" font-size="14.00">ghc</text>
</g>
<!-- Cmm -->
<g id="node21" class="node">
<title>Cmm</title>
<ellipse fill="none" stroke="black" cx="361.39" cy="-497" rx="32.41" ry="18"/>
<text text-anchor="middle" x="361.39" y="-491.95" font-family="Times,serif" font-size="14.00">Cmm</text>
</g>
<!-- STG&#45;&gt;Cmm -->
<g id="edge25" class="edge">
<title>STG&#45;&gt;Cmm</title>
<path fill="none" stroke="black" d="M213.62,-497C241.63,-497 285.35,-497 317.79,-497"/>
<polygon fill="black" stroke="black" points="317.75,-500.5 327.75,-497 317.75,-493.5 317.75,-500.5"/>
<text text-anchor="middle" x="274.21" y="-500.2" font-family="Times,serif" font-size="14.00">ghc</text>
</g>
<!-- Cmm&#45;&gt;MC -->
<g id="edge26" class="edge">
<title>Cmm&#45;&gt;MC</title>
<path fill="none" stroke="black" d="M370.42,-479.32C389.69,-439.85 442.59,-348 517.7,-348 517.7,-348 517.7,-348 716.59,-348 841.3,-348 881.76,-331.47 994.86,-384 1010.92,-391.46 1027.94,-401.03 1042.35,-409.66"/>
<polygon fill="black" stroke="black" points="1040.03,-412.96 1050.4,-415.17 1043.67,-406.98 1040.03,-412.96"/>
<text text-anchor="middle" x="629.52" y="-351.2" font-family="Times,serif" font-size="14.00">ghc</text>
</g>
<!-- Cmm&#45;&gt;LLVMIR -->
<g id="edge27" class="edge">
<title>Cmm&#45;&gt;LLVMIR</title>
<path fill="none" stroke="black" d="M394.18,-498.31C448.65,-501.01 563.09,-508.64 657.84,-528 702.26,-537.07 712.88,-542.1 755.34,-558 763.54,-561.07 765.19,-562.8 773.34,-566 783.97,-570.17 795.55,-574.33 806.48,-578.1"/>
<polygon fill="black" stroke="black" points="805.11,-581.67 815.71,-581.57 807.36,-575.04 805.11,-581.67"/>
<text text-anchor="middle" x="573.45" y="-518.2" font-family="Times,serif" font-size="14.00">ghc</text>
</g>
<!-- Cmm&#45;&gt;C -->
<g id="edge28" class="edge">
<title>Cmm&#45;&gt;C</title>
<path fill="none" stroke="black" d="M387.69,-507.75C414.33,-519.07 456.36,-536.93 485.38,-549.27"/>
<polygon fill="black" stroke="black" points="483.86,-552.85 494.43,-553.54 486.6,-546.41 483.86,-552.85"/>
<text text-anchor="middle" x="451.2" y="-546.2" font-family="Times,serif" font-size="14.00">ghc</text>
</g>
<!-- JavaScript&#45;&gt;Browser IR -->
<g id="edge29" class="edge">
<title>JavaScript&#45;&gt;Browser IR</title>
<path fill="none" stroke="black" d="M410.29,-719.27C440.98,-721.1 481.67,-723 517.7,-723 517.7,-723 517.7,-723 1079.54,-723 1135.55,-723 1198.1,-706.73 1239.6,-693.54"/>
<polygon fill="black" stroke="black" points="1240.51,-696.6 1248.94,-690.18 1238.35,-689.94 1240.51,-696.6"/>
<text text-anchor="middle" x="715.59" y="-726.2" font-family="Times,serif" font-size="14.00">v8 and co</text>
</g>
<!-- JavaScript&#45;&gt;C -->
<g id="edge30" class="edge">
<title>JavaScript&#45;&gt;C</title>
<path fill="none" stroke="black" d="M379.61,-699.04C407.74,-671.33 463.55,-616.34 494.93,-585.43"/>
<polygon fill="black" stroke="black" points="497.05,-588.27 501.71,-578.76 492.13,-583.29 497.05,-588.27"/>
<text text-anchor="middle" x="451.2" y="-651.2" font-family="Times,serif" font-size="14.00">shermes</text>
</g>
<!-- TypeScript -->
<g id="node23" class="node">
<title>TypeScript</title>
<ellipse fill="none" stroke="black" cx="184.99" cy="-764" rx="51.35" ry="18"/>
<text text-anchor="middle" x="184.99" y="-758.95" font-family="Times,serif" font-size="14.00">TypeScript</text>
</g>
<!-- TypeScript&#45;&gt;JavaScript -->
<g id="edge31" class="edge">
<title>TypeScript&#45;&gt;JavaScript</title>
<path fill="none" stroke="black" d="M235.69,-760.51C254.3,-758.32 275.44,-754.76 294.09,-749 304.39,-745.81 315.06,-741.17 324.75,-736.38"/>
<polygon fill="black" stroke="black" points="326.16,-739.07 333.43,-731.37 322.94,-732.85 326.16,-739.07"/>
<text text-anchor="middle" x="274.21" y="-760.2" font-family="Times,serif" font-size="14.00">tsc</text>
</g>
<!-- Lisp -->
<g id="node24" class="node">
<title>Lisp</title>
<ellipse fill="none" stroke="black" cx="1287.39" cy="-342" rx="27.3" ry="18"/>
<text text-anchor="middle" x="1287.39" y="-336.95" font-family="Times,serif" font-size="14.00">Lisp</text>
</g>
<!-- Lisp&#45;&gt;Runtime -->
<g id="edge34" class="edge">
<title>Lisp&#45;&gt;Runtime</title>
<path fill="none" stroke="black" d="M1314.15,-338.02C1339.88,-334.04 1380.13,-327.81 1412.29,-322.84"/>
<polygon fill="black" stroke="black" points="1412.5,-326.19 1421.85,-321.2 1411.43,-319.27 1412.5,-326.19"/>
<text text-anchor="middle" x="1381.05" y="-334.2" font-family="Times,serif" font-size="14.00">lisp</text>
</g>
<!-- sh -->
<g id="node25" class="node">
<title>sh</title>
<ellipse fill="none" stroke="black" cx="1287.39" cy="-288" rx="27" ry="18"/>
<text text-anchor="middle" x="1287.39" y="-282.95" font-family="Times,serif" font-size="14.00">sh</text>
</g>
<!-- sh&#45;&gt;Runtime -->
<g id="edge35" class="edge">
<title>sh&#45;&gt;Runtime</title>
<path fill="none" stroke="black" d="M1314.32,-291.52C1337.53,-294.72 1372.48,-299.67 1402.8,-304.5 1406.2,-305.04 1409.71,-305.62 1413.24,-306.2"/>
<polygon fill="black" stroke="black" points="1412.39,-309.78 1422.83,-308 1413.55,-302.88 1412.39,-309.78"/>
<text text-anchor="middle" x="1381.05" y="-308.2" font-family="Times,serif" font-size="14.00">sh</text>
</g>
<!-- zsh -->
<g id="node26" class="node">
<title>zsh</title>
<ellipse fill="none" stroke="black" cx="1287.39" cy="-234" rx="27" ry="18"/>
<text text-anchor="middle" x="1287.39" y="-228.95" font-family="Times,serif" font-size="14.00">zsh</text>
</g>
<!-- zsh&#45;&gt;Runtime -->
<g id="edge36" class="edge">
<title>zsh&#45;&gt;Runtime</title>
<path fill="none" stroke="black" d="M1312.13,-241.87C1335.63,-249.98 1372.41,-263.51 1402.8,-278.5 1412.05,-283.06 1421.75,-288.59 1430.59,-293.94"/>
<polygon fill="black" stroke="black" points="1428.43,-297.35 1438.78,-299.63 1432.12,-291.39 1428.43,-297.35"/>
<text text-anchor="middle" x="1381.05" y="-282.2" font-family="Times,serif" font-size="14.00">zsh</text>
</g>
<!-- fsh -->
<g id="node27" class="node">
<title>fsh</title>
<ellipse fill="none" stroke="black" cx="1287.39" cy="-180" rx="27" ry="18"/>
<text text-anchor="middle" x="1287.39" y="-174.95" font-family="Times,serif" font-size="14.00">fsh</text>
</g>
<!-- fsh&#45;&gt;Runtime -->
<g id="edge37" class="edge">
<title>fsh&#45;&gt;Runtime</title>
<path fill="none" stroke="black" d="M1311.59,-188.63C1336,-198.46 1374.7,-216.21 1402.8,-239.5 1419.73,-253.54 1435.12,-273.02 1446.09,-288.68"/>
<polygon fill="black" stroke="black" points="1443.5,-290.1 1452.02,-296.39 1449.28,-286.16 1443.5,-290.1"/>
<text text-anchor="middle" x="1381.05" y="-243.2" font-family="Times,serif" font-size="14.00">fsh</text>
</g>
<!-- bash -->
<g id="node28" class="node">
<title>bash</title>
<ellipse fill="none" stroke="black" cx="1287.39" cy="-126" rx="27.81" ry="18"/>
<text text-anchor="middle" x="1287.39" y="-120.95" font-family="Times,serif" font-size="14.00">bash</text>
</g>
<!-- bash&#45;&gt;Runtime -->
<g id="edge38" class="edge">
<title>bash&#45;&gt;Runtime</title>
<path fill="none" stroke="black" d="M1311.92,-134.51C1337.33,-144.76 1377.57,-164.21 1402.8,-192.5 1427.61,-220.32 1444.64,-260.21 1454.09,-286.83"/>
<polygon fill="black" stroke="black" points="1451.02,-287.68 1457.57,-296.01 1457.65,-285.42 1451.02,-287.68"/>
<text text-anchor="middle" x="1381.05" y="-196.2" font-family="Times,serif" font-size="14.00">bash</text>
</g>
<!-- perl -->
<g id="node29" class="node">
<title>perl</title>
<ellipse fill="none" stroke="black" cx="1287.39" cy="-72" rx="27" ry="18"/>
<text text-anchor="middle" x="1287.39" y="-66.95" font-family="Times,serif" font-size="14.00">perl</text>
</g>
<!-- perl&#45;&gt;Runtime -->
<g id="edge39" class="edge">
<title>perl&#45;&gt;Runtime</title>
<path fill="none" stroke="black" d="M1312.15,-79.74C1338.16,-89.42 1379.29,-108.47 1402.8,-138.5 1437.52,-182.86 1452.84,-248.45 1459.08,-285.93"/>
<polygon fill="black" stroke="black" points="1455.75,-286.26 1460.74,-295.6 1462.67,-285.18 1455.75,-286.26"/>
<text text-anchor="middle" x="1381.05" y="-142.2" font-family="Times,serif" font-size="14.00">perl</text>
</g>
<!-- Python -->
<g id="node30" class="node">
<title>Python</title>
<ellipse fill="none" stroke="black" cx="1287.39" cy="-18" rx="37.02" ry="18"/>
<text text-anchor="middle" x="1287.39" y="-12.95" font-family="Times,serif" font-size="14.00">Python</text>
</g>
<!-- Python&#45;&gt;Runtime -->
<g id="edge40" class="edge">
<title>Python&#45;&gt;Runtime</title>
<path fill="none" stroke="black" d="M1319.25,-27.66C1345.51,-37.5 1382.15,-55.36 1402.8,-83.5 1448.19,-145.39 1459.4,-238.59 1462.12,-285.63"/>
<polygon fill="black" stroke="black" points="1458.67,-285.72 1462.65,-295.54 1465.66,-285.39 1458.67,-285.72"/>
<text text-anchor="middle" x="1381.05" y="-87.2" font-family="Times,serif" font-size="14.00">cpython</text>
</g>
</g>
</svg>
