<?xml version="1.0" encoding="UTF-8" standalone="no"?>
<!DOCTYPE svg PUBLIC "-//W3C//DTD SVG 1.1//EN"
 "http://www.w3.org/Graphics/SVG/1.1/DTD/svg11.dtd">
<!-- Generated by graphviz version 8.1.0 (20230707.0739)
 -->
<!-- Pages: 1 -->
<svg width="1578pt" height="376pt"
 viewBox="0.00 0.00 1578.00 375.97" xmlns="http://www.w3.org/2000/svg" xmlns:xlink="http://www.w3.org/1999/xlink">
<g id="graph0" class="graph" transform="scale(1 1) rotate(0) translate(4 371.97)">
<polygon fill="white" stroke="none" points="-4,4 -4,-371.97 1574,-371.97 1574,4 -4,4"/>
<!-- conf -->
<g id="node1" class="node">
<title>conf</title>
<ellipse fill="none" stroke="black" cx="233" cy="-162" rx="99.97" ry="18"/>
<text text-anchor="middle" x="233" y="-156.95" font-family="Times,serif" font-size="14.00">configuration languages</text>
</g>
<!-- JSON -->
<g id="node11" class="node">
<title>JSON</title>
<ellipse fill="none" stroke="black" cx="105" cy="-90" rx="32.93" ry="18"/>
<text text-anchor="middle" x="105" y="-84.95" font-family="Times,serif" font-size="14.00">JSON</text>
</g>
<!-- conf&#45;&gt;JSON -->
<g id="edge8" class="edge">
<title>conf&#45;&gt;JSON</title>
<path fill="none" stroke="black" d="M202.67,-144.41C182.93,-133.62 157.23,-119.57 137.15,-108.58"/>
<polygon fill="black" stroke="black" points="138.96,-105.04 128.51,-103.31 135.6,-111.18 138.96,-105.04"/>
</g>
<!-- INI -->
<g id="node12" class="node">
<title>INI</title>
<ellipse fill="none" stroke="black" cx="27" cy="-90" rx="27" ry="18"/>
<text text-anchor="middle" x="27" y="-84.95" font-family="Times,serif" font-size="14.00">INI</text>
</g>
<!-- conf&#45;&gt;INI -->
<g id="edge7" class="edge">
<title>conf&#45;&gt;INI</title>
<path fill="none" stroke="black" d="M179.51,-146.39C145.7,-136.66 101.31,-122.93 63,-108 61.32,-107.34 59.6,-106.65 57.88,-105.92"/>
<polygon fill="black" stroke="black" points="59.67,-102.44 49.11,-101.57 56.82,-108.83 59.67,-102.44"/>
</g>
<!-- YAML -->
<g id="node13" class="node">
<title>YAML</title>
<ellipse fill="none" stroke="black" cx="193" cy="-90" rx="37.53" ry="18"/>
<text text-anchor="middle" x="193" y="-84.95" font-family="Times,serif" font-size="14.00">YAML</text>
</g>
<!-- conf&#45;&gt;YAML -->
<g id="edge6" class="edge">
<title>conf&#45;&gt;YAML</title>
<path fill="none" stroke="black" d="M223.11,-143.7C218.54,-135.7 213.01,-126.02 207.95,-117.15"/>
<polygon fill="black" stroke="black" points="210.5,-115.57 202.5,-108.62 204.42,-119.04 210.5,-115.57"/>
</g>
<!-- Toml -->
<g id="node14" class="node">
<title>Toml</title>
<ellipse fill="none" stroke="black" cx="279" cy="-90" rx="30.88" ry="18"/>
<text text-anchor="middle" x="279" y="-84.95" font-family="Times,serif" font-size="14.00">Toml</text>
</g>
<!-- conf&#45;&gt;Toml -->
<g id="edge9" class="edge">
<title>conf&#45;&gt;Toml</title>
<path fill="none" stroke="black" d="M244.37,-143.7C249.82,-135.4 256.45,-125.31 262.45,-116.19"/>
<polygon fill="black" stroke="black" points="265.82,-118.42 268.39,-108.14 259.97,-114.58 265.82,-118.42"/>
</g>
<!-- Starlark -->
<g id="node15" class="node">
<title>Starlark</title>
<ellipse fill="none" stroke="black" cx="459" cy="-90" rx="40.09" ry="18"/>
<text text-anchor="middle" x="459" y="-84.95" font-family="Times,serif" font-size="14.00">Starlark</text>
</g>
<!-- conf&#45;&gt;Starlark -->
<g id="edge10" class="edge">
<title>conf&#45;&gt;Starlark</title>
<path fill="none" stroke="black" d="M284.69,-146.16C320.08,-135.84 368.03,-121.56 410,-108 412.59,-107.16 415.24,-106.29 417.92,-105.4"/>
<polygon fill="black" stroke="black" points="418.88,-108.43 427.22,-101.9 416.63,-101.8 418.88,-108.43"/>
</g>
<!-- clike -->
<g id="node2" class="node">
<title>clike</title>
<ellipse fill="none" stroke="black" cx="924" cy="-90" rx="73.36" ry="18"/>
<text text-anchor="middle" x="924" y="-84.95" font-family="Times,serif" font-size="14.00">C&#45;like languages</text>
</g>
<!-- Cpp -->
<g id="node3" class="node">
<title>Cpp</title>
<ellipse fill="none" stroke="black" cx="494" cy="-18" rx="28.32" ry="18"/>
<text text-anchor="middle" x="494" y="-12.95" font-family="Times,serif" font-size="14.00">C++</text>
</g>
<!-- clike&#45;&gt;Cpp -->
<g id="edge28" class="edge">
<title>clike&#45;&gt;Cpp</title>
<path fill="none" stroke="black" d="M870.76,-77.24C861.21,-75.34 851.33,-73.5 842,-72 704.63,-49.85 664.99,-73.51 531,-36 529.22,-35.5 527.42,-34.93 525.62,-34.3"/>
<polygon fill="black" stroke="black" points="527.06,-30.71 516.48,-30.25 524.47,-37.21 527.06,-30.71"/>
</g>
<!-- Csharp -->
<g id="node8" class="node">
<title>Csharp</title>
<ellipse fill="none" stroke="black" cx="567" cy="-18" rx="27" ry="18"/>
<text text-anchor="middle" x="567" y="-12.95" font-family="Times,serif" font-size="14.00">C#</text>
</g>
<!-- clike&#45;&gt;Csharp -->
<g id="edge27" class="edge">
<title>clike&#45;&gt;Csharp</title>
<path fill="none" stroke="black" d="M870.27,-77.42C860.86,-75.52 851.16,-73.64 842,-72 736.26,-53.09 705.77,-67.27 603,-36 601.23,-35.46 599.43,-34.85 597.63,-34.18"/>
<polygon fill="black" stroke="black" points="599.11,-30.59 588.53,-29.95 596.4,-37.04 599.11,-30.59"/>
</g>
<!-- C -->
<g id="node24" class="node">
<title>C</title>
<ellipse fill="none" stroke="black" cx="1107" cy="-18" rx="27" ry="18"/>
<text text-anchor="middle" x="1107" y="-12.95" font-family="Times,serif" font-size="14.00">C</text>
</g>
<!-- clike&#45;&gt;C -->
<g id="edge26" class="edge">
<title>clike&#45;&gt;C</title>
<path fill="none" stroke="black" d="M966.23,-74.97C995.83,-64.84 1036.17,-50.46 1071,-36 1072.67,-35.31 1074.37,-34.58 1076.08,-33.83"/>
<polygon fill="black" stroke="black" points="1077.17,-36.73 1084.83,-29.41 1074.28,-30.35 1077.17,-36.73"/>
</g>
<!-- Rust -->
<g id="node25" class="node">
<title>Rust</title>
<ellipse fill="none" stroke="black" cx="1180" cy="-18" rx="27.81" ry="18"/>
<text text-anchor="middle" x="1180" y="-12.95" font-family="Times,serif" font-size="14.00">Rust</text>
</g>
<!-- clike&#45;&gt;Rust -->
<g id="edge29" class="edge">
<title>clike&#45;&gt;Rust</title>
<path fill="none" stroke="black" d="M981.13,-78.33C1025.84,-69.23 1089.23,-54.66 1143,-36 1144.74,-35.39 1146.52,-34.74 1148.3,-34.04"/>
<polygon fill="black" stroke="black" points="1149.53,-36.9 1157.37,-29.78 1146.8,-30.45 1149.53,-36.9"/>
</g>
<!-- Zig -->
<g id="node26" class="node">
<title>Zig</title>
<ellipse fill="none" stroke="black" cx="639" cy="-18" rx="27" ry="18"/>
<text text-anchor="middle" x="639" y="-12.95" font-family="Times,serif" font-size="14.00">Zig</text>
</g>
<!-- clike&#45;&gt;Zig -->
<g id="edge30" class="edge">
<title>clike&#45;&gt;Zig</title>
<path fill="none" stroke="black" d="M869.43,-77.55C797.56,-62.44 679.65,-37.57 675,-36 673.29,-35.42 671.55,-34.79 669.81,-34.11"/>
<polygon fill="black" stroke="black" points="671.55,-30.62 660.98,-29.9 668.8,-37.05 671.55,-30.62"/>
</g>
<!-- Go -->
<g id="node27" class="node">
<title>Go</title>
<ellipse fill="none" stroke="black" cx="711" cy="-18" rx="27" ry="18"/>
<text text-anchor="middle" x="711" y="-12.95" font-family="Times,serif" font-size="14.00">Go</text>
</g>
<!-- clike&#45;&gt;Go -->
<g id="edge31" class="edge">
<title>clike&#45;&gt;Go</title>
<path fill="none" stroke="black" d="M874.5,-76.32C838.64,-66.62 789.23,-52.19 747,-36 745.31,-35.35 743.6,-34.66 741.87,-33.94"/>
<polygon fill="black" stroke="black" points="743.65,-30.46 733.09,-29.61 740.81,-36.86 743.65,-30.46"/>
</g>
<!-- JavaScript -->
<g id="node28" class="node">
<title>JavaScript</title>
<ellipse fill="none" stroke="black" cx="805" cy="-18" rx="49.3" ry="18"/>
<text text-anchor="middle" x="805" y="-12.95" font-family="Times,serif" font-size="14.00">JavaScript</text>
</g>
<!-- clike&#45;&gt;JavaScript -->
<g id="edge32" class="edge">
<title>clike&#45;&gt;JavaScript</title>
<path fill="none" stroke="black" d="M896.7,-72.94C879.71,-62.95 857.72,-50.01 839.53,-39.31"/>
<polygon fill="black" stroke="black" points="841.54,-35.84 831.14,-33.79 837.99,-41.88 841.54,-35.84"/>
</g>
<!-- TypeScript -->
<g id="node29" class="node">
<title>TypeScript</title>
<ellipse fill="none" stroke="black" cx="924" cy="-18" rx="51.35" ry="18"/>
<text text-anchor="middle" x="924" y="-12.95" font-family="Times,serif" font-size="14.00">TypeScript</text>
</g>
<!-- clike&#45;&gt;TypeScript -->
<g id="edge33" class="edge">
<title>clike&#45;&gt;TypeScript</title>
<path fill="none" stroke="black" d="M924,-71.7C924,-64.24 924,-55.32 924,-46.97"/>
<polygon fill="black" stroke="black" points="927.5,-47.1 924,-37.1 920.5,-47.1 927.5,-47.1"/>
</g>
<!-- Kotlin -->
<g id="node30" class="node">
<title>Kotlin</title>
<ellipse fill="none" stroke="black" cx="1028" cy="-18" rx="34.46" ry="18"/>
<text text-anchor="middle" x="1028" y="-12.95" font-family="Times,serif" font-size="14.00">Kotlin</text>
</g>
<!-- clike&#45;&gt;Kotlin -->
<g id="edge34" class="edge">
<title>clike&#45;&gt;Kotlin</title>
<path fill="none" stroke="black" d="M948.38,-72.59C963.44,-62.45 982.85,-49.39 998.73,-38.7"/>
<polygon fill="black" stroke="black" points="1000.28,-41.21 1006.62,-32.72 996.37,-35.4 1000.28,-41.21"/>
</g>
<!-- incomplete -->
<g id="node4" class="node">
<title>incomplete</title>
<ellipse fill="none" stroke="black" cx="307" cy="-244.99" rx="97.76" ry="28.99"/>
<text text-anchor="middle" x="307" y="-248.19" font-family="Times,serif" font-size="14.00">Turing Incomplete</text>
<text text-anchor="middle" x="307" y="-231.69" font-family="Times,serif" font-size="14.00">(finite time execution)</text>
</g>
<!-- incomplete&#45;&gt;conf -->
<g id="edge1" class="edge">
<title>incomplete&#45;&gt;conf</title>
<path fill="none" stroke="black" d="M281.95,-216.57C273.47,-207.3 264.06,-196.99 255.77,-187.92"/>
<polygon fill="black" stroke="black" points="258.86,-186.02 249.54,-181 253.7,-190.75 258.86,-186.02"/>
</g>
<!-- data -->
<g id="node9" class="node">
<title>data</title>
<ellipse fill="none" stroke="black" cx="88" cy="-162" rx="27" ry="18"/>
<text text-anchor="middle" x="88" y="-156.95" font-family="Times,serif" font-size="14.00">data</text>
</g>
<!-- incomplete&#45;&gt;data -->
<g id="edge2" class="edge">
<title>incomplete&#45;&gt;data</title>
<path fill="none" stroke="black" d="M242.02,-223.11C206.76,-211.33 162.62,-195.82 124,-180 122.33,-179.32 120.62,-178.59 118.91,-177.85"/>
<polygon fill="black" stroke="black" points="120.71,-174.37 110.16,-173.44 117.83,-180.75 120.71,-174.37"/>
</g>
<!-- build -->
<g id="node10" class="node">
<title>build</title>
<ellipse fill="none" stroke="black" cx="381" cy="-162" rx="29.86" ry="18"/>
<text text-anchor="middle" x="381" y="-156.95" font-family="Times,serif" font-size="14.00">build</text>
</g>
<!-- incomplete&#45;&gt;build -->
<g id="edge3" class="edge">
<title>incomplete&#45;&gt;build</title>
<path fill="none" stroke="black" d="M332.05,-216.57C341.13,-206.63 351.29,-195.52 359.99,-186"/>
<polygon fill="black" stroke="black" points="362.03,-188.86 366.19,-179.12 356.86,-184.14 362.03,-188.86"/>
</g>
<!-- complete -->
<g id="node5" class="node">
<title>complete</title>
<ellipse fill="none" stroke="black" cx="426" cy="-338.97" rx="113.14" ry="28.99"/>
<text text-anchor="middle" x="426" y="-342.17" font-family="Times,serif" font-size="14.00">Turing Complete</text>
<text text-anchor="middle" x="426" y="-325.67" font-family="Times,serif" font-size="14.00">(unknown time execution)</text>
</g>
<!-- complete&#45;&gt;incomplete -->
<g id="edge14" class="edge">
<title>complete&#45;&gt;incomplete</title>
<path fill="none" stroke="black" d="M391.26,-311.12C378.19,-301.02 363.19,-289.42 349.49,-278.84"/>
<polygon fill="black" stroke="black" points="352.22,-275.75 342.17,-272.4 347.94,-281.29 352.22,-275.75"/>
</g>
<!-- HighLevelLangs -->
<g id="node6" class="node">
<title>HighLevelLangs</title>
<ellipse fill="none" stroke="black" cx="721" cy="-244.99" rx="89.23" ry="18"/>
<text text-anchor="middle" x="721" y="-239.94" font-family="Times,serif" font-size="14.00">High level languages</text>
</g>
<!-- complete&#45;&gt;HighLevelLangs -->
<g id="edge13" class="edge">
<title>complete&#45;&gt;HighLevelLangs</title>
<path fill="none" stroke="black" d="M496.66,-315.94C547.69,-300.03 615.74,-278.81 663.46,-263.93"/>
<polygon fill="black" stroke="black" points="664.42,-266.99 672.92,-260.67 662.33,-260.31 664.42,-266.99"/>
</g>
<!-- functional -->
<g id="node17" class="node">
<title>functional</title>
<ellipse fill="none" stroke="black" cx="1360" cy="-162" rx="48.28" ry="18"/>
<text text-anchor="middle" x="1360" y="-156.95" font-family="Times,serif" font-size="14.00">functional</text>
</g>
<!-- HighLevelLangs&#45;&gt;functional -->
<g id="edge15" class="edge">
<title>HighLevelLangs&#45;&gt;functional</title>
<path fill="none" stroke="black" d="M794.93,-234.62C924.3,-218.22 1188.94,-184.68 1304.24,-170.07"/>
<polygon fill="black" stroke="black" points="1304.44,-173.44 1313.92,-168.71 1303.56,-166.5 1304.44,-173.44"/>
</g>
<!-- procedural -->
<g id="node18" class="node">
<title>procedural</title>
<ellipse fill="none" stroke="black" cx="795" cy="-162" rx="50.33" ry="18"/>
<text text-anchor="middle" x="795" y="-156.95" font-family="Times,serif" font-size="14.00">procedural</text>
</g>
<!-- HighLevelLangs&#45;&gt;procedural -->
<g id="edge16" class="edge">
<title>HighLevelLangs&#45;&gt;procedural</title>
<path fill="none" stroke="black" d="M736.69,-226.82C747.13,-215.39 761.01,-200.2 772.6,-187.51"/>
<polygon fill="black" stroke="black" points="774.67,-190.34 778.84,-180.6 769.51,-185.62 774.67,-190.34"/>
</g>
<!-- object oriented -->
<g id="node19" class="node">
<title>object oriented</title>
<ellipse fill="none" stroke="black" cx="648" cy="-162" rx="66.19" ry="18"/>
<text text-anchor="middle" x="648" y="-156.95" font-family="Times,serif" font-size="14.00">object oriented</text>
</g>
<!-- HighLevelLangs&#45;&gt;object oriented -->
<g id="edge17" class="edge">
<title>HighLevelLangs&#45;&gt;object oriented</title>
<path fill="none" stroke="black" d="M705.52,-226.82C695.29,-215.46 681.71,-200.41 670.32,-187.77"/>
<polygon fill="black" stroke="black" points="673.5,-185.96 664.21,-180.87 668.3,-190.65 673.5,-185.96"/>
</g>
<!-- Fsharp -->
<g id="node7" class="node">
<title>Fsharp</title>
<ellipse fill="none" stroke="black" cx="1360" cy="-90" rx="27" ry="18"/>
<text text-anchor="middle" x="1360" y="-84.95" font-family="Times,serif" font-size="14.00">F#</text>
</g>
<!-- data&#45;&gt;JSON -->
<g id="edge4" class="edge">
<title>data&#45;&gt;JSON</title>
<path fill="none" stroke="black" d="M92.12,-144.05C93.95,-136.52 96.15,-127.44 98.22,-118.94"/>
<polygon fill="black" stroke="black" points="101.85,-119.82 100.8,-109.28 95.04,-118.17 101.85,-119.82"/>
</g>
<!-- data&#45;&gt;INI -->
<g id="edge5" class="edge">
<title>data&#45;&gt;INI</title>
<path fill="none" stroke="black" d="M74.76,-145.81C66.77,-136.64 56.42,-124.76 47.4,-114.4"/>
<polygon fill="black" stroke="black" points="49.42,-112.4 40.21,-107.16 44.14,-117 49.42,-112.4"/>
</g>
<!-- build&#45;&gt;Starlark -->
<g id="edge11" class="edge">
<title>build&#45;&gt;Starlark</title>
<path fill="none" stroke="black" d="M397.16,-146.5C407.75,-137 421.8,-124.38 433.84,-113.58"/>
<polygon fill="black" stroke="black" points="435.67,-116.74 440.78,-107.46 431,-111.53 435.67,-116.74"/>
</g>
<!-- Meson -->
<g id="node16" class="node">
<title>Meson</title>
<ellipse fill="none" stroke="black" cx="364" cy="-90" rx="36.51" ry="18"/>
<text text-anchor="middle" x="364" y="-84.95" font-family="Times,serif" font-size="14.00">Meson</text>
</g>
<!-- build&#45;&gt;Meson -->
<g id="edge12" class="edge">
<title>build&#45;&gt;Meson</title>
<path fill="none" stroke="black" d="M376.8,-143.7C374.97,-136.15 372.77,-127.12 370.72,-118.68"/>
<polygon fill="black" stroke="black" points="373.92,-118 368.15,-109.1 367.11,-119.65 373.92,-118"/>
</g>
<!-- functional&#45;&gt;Fsharp -->
<g id="edge45" class="edge">
<title>functional&#45;&gt;Fsharp</title>
<path fill="none" stroke="black" d="M1360,-143.7C1360,-136.24 1360,-127.32 1360,-118.97"/>
<polygon fill="black" stroke="black" points="1363.5,-119.1 1360,-109.1 1356.5,-119.1 1363.5,-119.1"/>
</g>
<!-- OcaML -->
<g id="node23" class="node">
<title>OcaML</title>
<ellipse fill="none" stroke="black" cx="1094" cy="-90" rx="40.09" ry="18"/>
<text text-anchor="middle" x="1094" y="-84.95" font-family="Times,serif" font-size="14.00">OcaML</text>
</g>
<!-- functional&#45;&gt;OcaML -->
<g id="edge46" class="edge">
<title>functional&#45;&gt;OcaML</title>
<path fill="none" stroke="black" d="M1321.32,-150.82C1272.76,-138.04 1189.63,-116.17 1138.49,-102.71"/>
<polygon fill="black" stroke="black" points="1139.64,-99.13 1129.08,-99.97 1137.86,-105.9 1139.64,-99.13"/>
</g>
<!-- Haskell -->
<g id="node37" class="node">
<title>Haskell</title>
<ellipse fill="none" stroke="black" cx="1444" cy="-90" rx="39.07" ry="18"/>
<text text-anchor="middle" x="1444" y="-84.95" font-family="Times,serif" font-size="14.00">Haskell</text>
</g>
<!-- functional&#45;&gt;Haskell -->
<g id="edge43" class="edge">
<title>functional&#45;&gt;Haskell</title>
<path fill="none" stroke="black" d="M1379.06,-145.12C1390.39,-135.68 1404.93,-123.56 1417.37,-113.19"/>
<polygon fill="black" stroke="black" points="1419.15,-115.43 1424.59,-106.34 1414.67,-110.05 1419.15,-115.43"/>
</g>
<!-- Lisp -->
<g id="node38" class="node">
<title>Lisp</title>
<ellipse fill="none" stroke="black" cx="1528" cy="-90" rx="27.3" ry="18"/>
<text text-anchor="middle" x="1528" y="-84.95" font-family="Times,serif" font-size="14.00">Lisp</text>
</g>
<!-- functional&#45;&gt;Lisp -->
<g id="edge44" class="edge">
<title>functional&#45;&gt;Lisp</title>
<path fill="none" stroke="black" d="M1392.77,-148.47C1419.62,-138.05 1458.5,-122.62 1492,-108 1493.46,-107.36 1494.96,-106.7 1496.46,-106.02"/>
<polygon fill="black" stroke="black" points="1497.77,-108.81 1505.39,-101.46 1494.85,-102.45 1497.77,-108.81"/>
</g>
<!-- procedural&#45;&gt;clike -->
<g id="edge19" class="edge">
<title>procedural&#45;&gt;clike</title>
<path fill="none" stroke="black" d="M821.73,-146.5C839.99,-136.58 864.5,-123.29 884.94,-112.19"/>
<polygon fill="black" stroke="black" points="886.49,-114.8 893.61,-106.95 883.15,-108.64 886.49,-114.8"/>
</g>
<!-- procedural&#45;&gt;Fsharp -->
<g id="edge20" class="edge">
<title>procedural&#45;&gt;Fsharp</title>
<path fill="none" stroke="black" d="M845.64,-161.6C941.05,-161.49 1153.23,-155.36 1324,-108 1325.79,-107.5 1327.59,-106.93 1329.4,-106.29"/>
<polygon fill="black" stroke="black" points="1330.6,-109.17 1338.52,-102.14 1327.94,-102.69 1330.6,-109.17"/>
</g>
<!-- procedural&#45;&gt;Starlark -->
<g id="edge36" class="edge">
<title>procedural&#45;&gt;Starlark</title>
<path fill="none" stroke="black" d="M754.36,-150.91C744.15,-148.51 733.2,-146.06 723,-144 628.02,-124.86 601.88,-131.96 508,-108 505.19,-107.28 502.32,-106.48 499.44,-105.62"/>
<polygon fill="black" stroke="black" points="500.67,-102.02 490.08,-102.33 498.55,-108.69 500.67,-102.02"/>
</g>
<!-- Fortran -->
<g id="node20" class="node">
<title>Fortran</title>
<ellipse fill="none" stroke="black" cx="795" cy="-90" rx="38.04" ry="18"/>
<text text-anchor="middle" x="795" y="-84.95" font-family="Times,serif" font-size="14.00">Fortran</text>
</g>
<!-- procedural&#45;&gt;Fortran -->
<g id="edge18" class="edge">
<title>procedural&#45;&gt;Fortran</title>
<path fill="none" stroke="black" d="M795,-143.7C795,-136.24 795,-127.32 795,-118.97"/>
<polygon fill="black" stroke="black" points="798.5,-119.1 795,-109.1 791.5,-119.1 798.5,-119.1"/>
</g>
<!-- Python -->
<g id="node22" class="node">
<title>Python</title>
<ellipse fill="none" stroke="black" cx="702" cy="-90" rx="37.02" ry="18"/>
<text text-anchor="middle" x="702" y="-84.95" font-family="Times,serif" font-size="14.00">Python</text>
</g>
<!-- procedural&#45;&gt;Python -->
<g id="edge35" class="edge">
<title>procedural&#45;&gt;Python</title>
<path fill="none" stroke="black" d="M774.36,-145.46C761.24,-135.59 744.1,-122.69 729.79,-111.92"/>
<polygon fill="black" stroke="black" points="732.41,-108.75 722.31,-105.54 728.2,-114.35 732.41,-108.75"/>
</g>
<!-- commandline -->
<g id="node31" class="node">
<title>commandline</title>
<ellipse fill="none" stroke="black" cx="1253" cy="-90" rx="62.1" ry="18"/>
<text text-anchor="middle" x="1253" y="-84.95" font-family="Times,serif" font-size="14.00">commandline</text>
</g>
<!-- procedural&#45;&gt;commandline -->
<g id="edge37" class="edge">
<title>procedural&#45;&gt;commandline</title>
<path fill="none" stroke="black" d="M840.89,-154.04C907.46,-143.95 1034.72,-124.61 1143,-108 1157.76,-105.74 1173.62,-103.29 1188.59,-100.98"/>
<polygon fill="black" stroke="black" points="1188.94,-104.31 1198.29,-99.32 1187.88,-97.39 1188.94,-104.31"/>
</g>
<!-- object oriented&#45;&gt;Cpp -->
<g id="edge23" class="edge">
<title>object oriented&#45;&gt;Cpp</title>
<path fill="none" stroke="black" d="M637.57,-143.76C625.42,-124.65 603.94,-93.65 580,-72 563.69,-57.25 542.73,-44.23 525.58,-34.79"/>
<polygon fill="black" stroke="black" points="527.46,-31.29 516.99,-29.66 524.15,-37.46 527.46,-31.29"/>
</g>
<!-- object oriented&#45;&gt;Csharp -->
<g id="edge24" class="edge">
<title>object oriented&#45;&gt;Csharp</title>
<path fill="none" stroke="black" d="M643.16,-143.8C637.51,-125.26 627.11,-95.29 613,-72 606.33,-60.99 597.33,-50.04 589.06,-40.98"/>
<polygon fill="black" stroke="black" points="592.16,-39.11 582.76,-34.24 587.07,-43.91 592.16,-39.11"/>
</g>
<!-- Java -->
<g id="node21" class="node">
<title>Java</title>
<ellipse fill="none" stroke="black" cx="544" cy="-90" rx="27.3" ry="18"/>
<text text-anchor="middle" x="544" y="-84.95" font-family="Times,serif" font-size="14.00">Java</text>
</g>
<!-- object oriented&#45;&gt;Java -->
<g id="edge21" class="edge">
<title>object oriented&#45;&gt;Java</title>
<path fill="none" stroke="black" d="M623.88,-144.76C608.23,-134.23 587.8,-120.48 571.51,-109.52"/>
<polygon fill="black" stroke="black" points="573.72,-106.11 563.47,-103.43 569.81,-111.92 573.72,-106.11"/>
</g>
<!-- object oriented&#45;&gt;Python -->
<g id="edge22" class="edge">
<title>object oriented&#45;&gt;Python</title>
<path fill="none" stroke="black" d="M661.07,-144.05C667.6,-135.59 675.63,-125.19 682.83,-115.84"/>
<polygon fill="black" stroke="black" points="686.08,-118.36 689.42,-108.31 680.54,-114.09 686.08,-118.36"/>
</g>
<!-- object oriented&#45;&gt;OcaML -->
<g id="edge25" class="edge">
<title>object oriented&#45;&gt;OcaML</title>
<path fill="none" stroke="black" d="M700.03,-150.43C711.83,-148.18 724.33,-145.9 736,-144 855.48,-124.51 886.52,-127.49 1006,-108 1019.57,-105.79 1034.26,-103.07 1047.68,-100.47"/>
<polygon fill="black" stroke="black" points="1047.98,-103.78 1057.12,-98.42 1046.63,-96.92 1047.98,-103.78"/>
</g>
<!-- sh -->
<g id="node32" class="node">
<title>sh</title>
<ellipse fill="none" stroke="black" cx="1543" cy="-18" rx="27" ry="18"/>
<text text-anchor="middle" x="1543" y="-12.95" font-family="Times,serif" font-size="14.00">sh</text>
</g>
<!-- commandline&#45;&gt;sh -->
<g id="edge38" class="edge">
<title>commandline&#45;&gt;sh</title>
<path fill="none" stroke="black" d="M1299.15,-77.66C1307.41,-75.71 1315.95,-73.75 1324,-72 1404.99,-54.35 1428.26,-61.89 1507,-36 1508.72,-35.44 1510.46,-34.81 1512.2,-34.14"/>
<polygon fill="black" stroke="black" points="1513.2,-37.09 1521.04,-29.96 1510.46,-30.65 1513.2,-37.09"/>
</g>
<!-- zsh -->
<g id="node33" class="node">
<title>zsh</title>
<ellipse fill="none" stroke="black" cx="1253" cy="-18" rx="27" ry="18"/>
<text text-anchor="middle" x="1253" y="-12.95" font-family="Times,serif" font-size="14.00">zsh</text>
</g>
<!-- commandline&#45;&gt;zsh -->
<g id="edge39" class="edge">
<title>commandline&#45;&gt;zsh</title>
<path fill="none" stroke="black" d="M1253,-71.7C1253,-64.24 1253,-55.32 1253,-46.97"/>
<polygon fill="black" stroke="black" points="1256.5,-47.1 1253,-37.1 1249.5,-47.1 1256.5,-47.1"/>
</g>
<!-- fsh -->
<g id="node34" class="node">
<title>fsh</title>
<ellipse fill="none" stroke="black" cx="1325" cy="-18" rx="27" ry="18"/>
<text text-anchor="middle" x="1325" y="-12.95" font-family="Times,serif" font-size="14.00">fsh</text>
</g>
<!-- commandline&#45;&gt;fsh -->
<g id="edge40" class="edge">
<title>commandline&#45;&gt;fsh</title>
<path fill="none" stroke="black" d="M1270.06,-72.41C1279.87,-62.87 1292.3,-50.79 1302.86,-40.53"/>
<polygon fill="black" stroke="black" points="1304.76,-43.59 1309.49,-34.11 1299.88,-38.57 1304.76,-43.59"/>
</g>
<!-- bash -->
<g id="node35" class="node">
<title>bash</title>
<ellipse fill="none" stroke="black" cx="1398" cy="-18" rx="27.81" ry="18"/>
<text text-anchor="middle" x="1398" y="-12.95" font-family="Times,serif" font-size="14.00">bash</text>
</g>
<!-- commandline&#45;&gt;bash -->
<g id="edge41" class="edge">
<title>commandline&#45;&gt;bash</title>
<path fill="none" stroke="black" d="M1284.11,-73.98C1308.43,-62.24 1342.09,-45.99 1366.51,-34.2"/>
<polygon fill="black" stroke="black" points="1367.87,-36.95 1375.35,-29.45 1364.82,-30.65 1367.87,-36.95"/>
</g>
<!-- perl -->
<g id="node36" class="node">
<title>perl</title>
<ellipse fill="none" stroke="black" cx="1471" cy="-18" rx="27" ry="18"/>
<text text-anchor="middle" x="1471" y="-12.95" font-family="Times,serif" font-size="14.00">perl</text>
</g>
<!-- commandline&#45;&gt;perl -->
<g id="edge42" class="edge">
<title>commandline&#45;&gt;perl</title>
<path fill="none" stroke="black" d="M1299.28,-77.68C1336.47,-68.08 1389.76,-53.15 1435,-36 1436.69,-35.36 1438.41,-34.67 1440.13,-33.96"/>
<polygon fill="black" stroke="black" points="1441.19,-36.88 1448.92,-29.63 1438.36,-30.47 1441.19,-36.88"/>
</g>
</g>
</svg>
